<svg xmlns="http://www.w3.org/2000/svg" xmlns:xlink="http://www.w3.org/1999/xlink" width="113" height="113" viewBox="0 0 113 113">
  <defs>
    <filter id="Trazado_982547" x="0" y="0" width="113" height="113" filterUnits="userSpaceOnUse">
      <feOffset dy="3" input="SourceAlpha"/>
      <feGaussianBlur stdDeviation="3" result="blur"/>
      <feFlood flood-opacity="0.161"/>
      <feComposite operator="in" in2="blur"/>
      <feComposite in="SourceGraphic"/>
    </filter>
  </defs>
  <g id="Grupo_1209469" data-name="Grupo 1209469" transform="translate(-743.203 -1784.512)">
    <g id="Grupo_1207468" data-name="Grupo 1207468" transform="translate(0 1148.44)">
      <g id="Grupo_1202450" data-name="Grupo 1202450" transform="translate(0 -677.451)">
        <g id="Grupo_1202353" data-name="Grupo 1202353" transform="translate(472.203 443.108)">
          <g id="Grupo_1174813" data-name="Grupo 1174813" transform="translate(280 876.414)">
            <g id="Grupo_1201680" data-name="Grupo 1201680">
              <g id="Grupo_1201330" data-name="Grupo 1201330">
                <g id="Grupo_1172010" data-name="Grupo 1172010">
                  <g id="Grupo_1171046" data-name="Grupo 1171046">
                    <g id="Grupo_1148525" data-name="Grupo 1148525">
                      <g transform="matrix(1, 0, 0, 1, -9, -6)" filter="url(#Trazado_982547)">
                        <g id="Trazado_982547-2" data-name="Trazado 982547" transform="translate(9 6)" fill="#fff4e6">
                          <path d="M 47.5 93.5 C 41.28937149047852 93.5 35.26533508300781 92.28397369384766 29.59518623352051 89.88570404052734 C 24.11771965026855 87.56893157958984 19.19813346862793 84.25196075439453 14.97309303283691 80.02691650390625 C 10.74804019927979 75.80186462402344 7.431066513061523 70.88229370117188 5.114293098449707 65.40481567382812 C 2.716026782989502 59.73468017578125 1.5 53.71062850952148 1.5 47.5 C 1.5 41.28937149047852 2.716026782989502 35.26533508300781 5.114293098449707 29.59518623352051 C 7.431066513061523 24.11771965026855 10.74804019927979 19.19813346862793 14.97309303283691 14.97309303283691 C 19.19813346862793 10.74804019927979 24.11771965026855 7.431066513061523 29.59518623352051 5.114293098449707 C 35.26533508300781 2.716026782989502 41.28937149047852 1.5 47.5 1.5 C 53.71062850952148 1.5 59.73468017578125 2.716026782989502 65.40481567382812 5.114293098449707 C 70.88229370117188 7.431066513061523 75.80186462402344 10.74804019927979 80.02691650390625 14.97309303283691 C 84.25196075439453 19.19813346862793 87.56893157958984 24.11771965026855 89.88570404052734 29.59518623352051 C 92.28397369384766 35.26533508300781 93.5 41.28937149047852 93.5 47.5 C 93.5 53.71062850952148 92.28397369384766 59.73468017578125 89.88570404052734 65.40481567382812 C 87.56893157958984 70.88229370117188 84.25196075439453 75.80186462402344 80.02691650390625 80.02691650390625 C 75.80186462402344 84.25196075439453 70.88229370117188 87.56893157958984 65.40481567382812 89.88570404052734 C 59.73468017578125 92.28397369384766 53.71062850952148 93.5 47.5 93.5 Z" stroke="none"/>
                          <path d="M 47.5 3 C 41.49121475219727 3 35.66376876831055 4.176155090332031 30.17950439453125 6.495796203613281 C 24.88084411621094 8.736953735351562 20.12152099609375 11.94598388671875 16.03375244140625 16.03375244140625 C 11.94598388671875 20.12152099609375 8.736953735351562 24.88084411621094 6.495796203613281 30.17950439453125 C 4.176155090332031 35.66376876831055 3 41.49121475219727 3 47.5 C 3 53.50878524780273 4.176155090332031 59.33623123168945 6.495796203613281 64.82049560546875 C 8.736953735351562 70.11915588378906 11.94598388671875 74.87847900390625 16.03375244140625 78.96624755859375 C 20.12152099609375 83.05401611328125 24.88084411621094 86.26304626464844 30.17950439453125 88.50419616699219 C 35.66376876831055 90.82384490966797 41.49121475219727 92 47.5 92 C 53.50878524780273 92 59.33623123168945 90.82384490966797 64.82049560546875 88.50419616699219 C 70.11915588378906 86.26304626464844 74.87847900390625 83.05401611328125 78.96624755859375 78.96624755859375 C 83.05401611328125 74.87847900390625 86.26304626464844 70.11915588378906 88.50419616699219 64.82049560546875 C 90.82384490966797 59.33623123168945 92 53.50878524780273 92 47.5 C 92 41.49121475219727 90.82384490966797 35.66376876831055 88.50419616699219 30.17950439453125 C 86.26304626464844 24.88084411621094 83.05401611328125 20.12152099609375 78.96624755859375 16.03375244140625 C 74.87847900390625 11.94598388671875 70.11915588378906 8.736953735351562 64.82049560546875 6.495796203613281 C 59.33623123168945 4.176155090332031 53.50878524780273 3 47.5 3 M 47.5 0 C 73.7335205078125 0 95 21.2664794921875 95 47.5 C 95 73.7335205078125 73.7335205078125 95 47.5 95 C 21.2664794921875 95 0 73.7335205078125 0 47.5 C 0 21.2664794921875 21.2664794921875 0 47.5 0 Z" stroke="none" fill="#ff9d1c"/>
                        </g>
                      </g>
                    </g>
                  </g>
                </g>
              </g>
            </g>
          </g>
        </g>
      </g>
    </g>
    <g id="risk-management_12166486" transform="translate(763.881 1778.967)">
      <g id="Grupo_1209468" data-name="Grupo 1209468" transform="translate(4.759 31.34)">
        <path id="Trazado_1052378" data-name="Trazado 1052378" d="M34.344,84.959h1.318a.944.944,0,0,0,.942-.942v-3.5a.944.944,0,0,0-.942-.942H34.344a11.3,11.3,0,0,0-1.331-3.21l.933-.933a.944.944,0,0,0,0-1.333l-2.475-2.475a.944.944,0,0,0-1.333,0l-.933.933A11.291,11.291,0,0,0,26,71.224V69.906a.944.944,0,0,0-.942-.942h-3.5a.944.944,0,0,0-.942.942v1.318a11.3,11.3,0,0,0-3.21,1.331l-.933-.933a.944.944,0,0,0-1.333,0L12.659,74.1a.944.944,0,0,0,0,1.333l.933.933a11.291,11.291,0,0,0-1.331,3.21H10.942a.944.944,0,0,0-.942.942v3.5a.944.944,0,0,0,.942.942H12.26a11.3,11.3,0,0,0,1.331,3.21l-.933.933a.944.944,0,0,0,0,1.333l2.475,2.475a.944.944,0,0,0,1.333,0l.933-.933a11.3,11.3,0,0,0,3.21,1.331v1.318a.944.944,0,0,0,.942.942h3.5A.944.944,0,0,0,26,94.627V93.309a11.3,11.3,0,0,0,3.21-1.331l.933.933a.944.944,0,0,0,1.333,0l2.475-2.475a.944.944,0,0,0,0-1.333l-.933-.933a11.3,11.3,0,0,0,1.331-3.21ZM23.3,75.369a6.9,6.9,0,1,1-6.9,6.9A6.9,6.9,0,0,1,23.3,75.369Z" transform="translate(-10 -64.875)" fill="#5f7080" fill-rule="evenodd"/>
        <path id="Trazado_1052379" data-name="Trazado 1052379" d="M26,71.225V69.907a.944.944,0,0,0-.942-.942h-3.5a.944.944,0,0,0-.942.942v1.318a11.3,11.3,0,0,0-3.21,1.331l-.933-.933a.944.944,0,0,0-1.333,0L12.659,74.1a.944.944,0,0,0,0,1.333l.933.933a11.291,11.291,0,0,0-1.331,3.21H10.942a.944.944,0,0,0-.942.942v3.5a.944.944,0,0,0,.942.942H12.26a11.3,11.3,0,0,0,1.331,3.21l-.933.933a.944.944,0,0,0,0,1.333l2.475,2.475a.944.944,0,0,0,1.333,0l.933-.933a11.3,11.3,0,0,0,3.21,1.331v1.318a.944.944,0,0,0,.942.942h3.5A.944.944,0,0,0,26,94.628V93.31a11.054,11.054,0,1,1,0-22.085Z" transform="translate(-10 -64.876)" fill="#566573" fill-rule="evenodd"/>
        <path id="Trazado_1052380" data-name="Trazado 1052380" d="M0,0H8.564V5.7H0Z" transform="translate(16.998 41.088) rotate(-45)" fill="#5f7080"/>
        <path id="Trazado_1052381" data-name="Trazado 1052381" d="M0,0H8.564V2.85H0Z" transform="translate(16.998 41.088) rotate(-45)" fill="#566573"/>
        <circle id="Elipse_13426" data-name="Elipse 13426" cx="22.332" cy="22.332" r="22.332" transform="translate(17.461)" fill="#5c85da"/>
        <circle id="Elipse_13427" data-name="Elipse 13427" cx="18.3" cy="18.3" r="18.3" transform="translate(21.493 4.032)" fill="#dbe2ec"/>
        <path id="Trazado_1052382" data-name="Trazado 1052382" d="M239.634,74.666a18.3,18.3,0,0,1-10.9,31.126,18.3,18.3,0,0,1,0-36.372,18.221,18.221,0,0,1,10.9,5.246Z" transform="translate(-186.901 -65.274)" fill="#f3f5fb" fill-rule="evenodd"/>
        <rect id="Rectángulo_422448" data-name="Rectángulo 422448" width="14.527" height="8.456" rx="4.228" transform="translate(6.135 50) rotate(-45)" fill="#5c85da"/>
        <path id="Trazado_1052383" data-name="Trazado 1052383" d="M75.856,358.2l-2.015-2.015a1.382,1.382,0,0,0-1.949,0l-8.323,8.323a1.382,1.382,0,0,0,0,1.949l2.015,2.015Z" transform="translate(-56.454 -315.476)" fill="#4677d5" fill-rule="evenodd"/>
        <path id="Trazado_1052384" data-name="Trazado 1052384" d="M238.09,198.357h5.541v13.348H238.09Z" transform="translate(-209.289 -177.93)" fill="#80e0b7"/>
        <path id="Trazado_1052385" data-name="Trazado 1052385" d="M303.2,220.656h5.541v10.533H303.2Z" transform="translate(-266.179 -197.413)" fill="#ffe54e"/>
        <path id="Trazado_1052386" data-name="Trazado 1052386" d="M368.313,251.156h5.541v6.681h-5.541Z" transform="translate(-323.068 -224.062)" fill="#fd7a6e"/>
        <path id="Trazado_1052387" data-name="Trazado 1052387" d="M238.09,198.357h2.5v13.348h-2.5Z" transform="translate(-209.289 -177.93)" fill="#60daa8"/>
        <path id="Trazado_1052388" data-name="Trazado 1052388" d="M303.2,220.656h2.5v10.533h-2.5Z" transform="translate(-266.179 -197.413)" fill="#fad51b"/>
        <path id="Trazado_1052389" data-name="Trazado 1052389" d="M368.313,251.156h2.5v6.681h-2.5Z" transform="translate(-323.068 -224.062)" fill="#fb695b"/>
        <g id="Grupo_1209467" data-name="Grupo 1209467" transform="translate(28.958 9.213)">
          <path id="Trazado_1052390" data-name="Trazado 1052390" d="M244.319,112.7a.758.758,0,1,1-1.515,0,.559.559,0,0,0-.21-.417,1.054,1.054,0,0,0-1.3,0,.559.559,0,0,0-.21.417c0,.434.534.552,1.08.673,1.181.261,2.391.528,2.391,2.329a2.248,2.248,0,0,1-.807,1.706,2.7,2.7,0,0,1-1.049.555v.338a.758.758,0,1,1-1.515,0v-.338a2.7,2.7,0,0,1-1.049-.555,2.248,2.248,0,0,1-.807-1.706.758.758,0,1,1,1.515,0,.753.753,0,0,0,.28.564,1.322,1.322,0,0,0,1.636,0,.753.753,0,0,0,.28-.564c0-.59-.608-.724-1.2-.855-1.148-.253-2.27-.5-2.27-2.147a2.053,2.053,0,0,1,.737-1.559,2.439,2.439,0,0,1,.879-.482v-.35a.758.758,0,1,1,1.515,0v.35a2.439,2.439,0,0,1,.879.482,2.054,2.054,0,0,1,.737,1.559Z" transform="translate(-239.333 -109.549)" fill="#80e0b7" fill-rule="evenodd"/>
          <path id="Trazado_1052391" data-name="Trazado 1052391" d="M289.217,147.737a.758.758,0,1,1,1.071-1.071l5.069,5.07,3.185-1.839a.755.755,0,0,1,.909.121l0,0,4.34,4.34v-.5a.758.758,0,1,1,1.515,0v2.332a.758.758,0,0,1-.758.758h-2.332a.758.758,0,0,1,0-1.515h.5l-3.931-3.931-3.123,1.8a.758.758,0,0,1-.973-.083Z" transform="translate(-282.724 -141.785)" fill="#fd7a6e" fill-rule="evenodd"/>
          <path id="Trazado_1052392" data-name="Trazado 1052392" d="M300.11,287.215l5.243,9.082,5.243,9.082a2.892,2.892,0,0,1-2.5,4.338H287.118a2.892,2.892,0,0,1-2.5-4.338l5.243-9.082,5.243-9.082a2.892,2.892,0,0,1,5.009,0Z" transform="translate(-278.549 -263.518)" fill="#fad51b" fill-rule="evenodd"/>
          <path id="Trazado_1052393" data-name="Trazado 1052393" d="M324.442,291.257l5.243,9.082,5.243,9.082a2.892,2.892,0,0,1-2.5,4.338H314.967a2.892,2.892,0,0,1-2.5-4.338l5.243-9.082,5.243-9.082a2.936,2.936,0,0,1,.746-.862,2.937,2.937,0,0,1,.746.862Z" transform="translate(-302.881 -267.559)" fill="#ffe54e" fill-rule="evenodd"/>
          <path id="Trazado_1052394" data-name="Trazado 1052394" d="M379.637,431.217a1.6,1.6,0,0,1-1.083-.4,1.411,1.411,0,0,1-.463-1.128,1.51,1.51,0,0,1,1.525-1.518,1.5,1.5,0,0,1,1.093.442,1.559,1.559,0,0,1,0,2.2,1.559,1.559,0,0,1-1.069.407Z" transform="translate(-360.57 -387.935)" fill="#fd7a6e" fill-rule="evenodd"/>
          <path id="Trazado_1052395" data-name="Trazado 1052395" d="M378.51,333.622l-.327-4.882c-.059-.951-.091-1.637-.091-2.051a1.855,1.855,0,0,1,.442-1.32,1.514,1.514,0,0,1,1.163-.474,1.169,1.169,0,0,1,1.17.606,4.085,4.085,0,0,1,.3,1.748c0,.449-.024.905-.07,1.368l-.439,5.024a3.974,3.974,0,0,1-.306,1.379.8.8,0,0,1-.773.477.768.768,0,0,1-.763-.463,4.681,4.681,0,0,1-.3-1.414Z" transform="translate(-360.571 -297.704)" fill="#fd7a6e" fill-rule="evenodd"/>
        </g>
      </g>
      <path id="Trazado_1052396" data-name="Trazado 1052396" d="M53.484,71.4l-.439,5.029a3.066,3.066,0,0,1-.234,1.11.244.244,0,0,1-.022.042.223.223,0,0,1-.067.007.344.344,0,0,1-.067-.006s-.006-.007-.006-.011a3.877,3.877,0,0,1-.239-1.164l-.328-4.868c-.056-.962-.089-1.618-.089-2a1.131,1.131,0,0,1,.239-.8.751.751,0,0,1,.612-.233c.4,0,.462.124.49.182a3.308,3.308,0,0,1,.217,1.414c0,.411-.022.847-.067,1.3Zm-.64-4.414a2.289,2.289,0,0,0-1.719.714,2.6,2.6,0,0,0-.645,1.837c0,.418.028,1.1.095,2.1l.328,4.882v.019A5.318,5.318,0,0,0,51.27,78.2a1.619,1.619,0,0,0,2.9,0,4.7,4.7,0,0,0,.384-1.646l.434-5.017a14.409,14.409,0,0,0,.072-1.442,4.73,4.73,0,0,0-.367-2.077,1.9,1.9,0,0,0-1.853-1.034Zm.506,15.873a.8.8,0,0,1-.567.217.838.838,0,0,1-.584-.22.648.648,0,0,1-.206-.555.72.72,0,0,1,.222-.54.708.708,0,0,1,.545-.22.754.754,0,0,1,.567.226.69.69,0,0,1,.222.534.681.681,0,0,1-.2.557Zm-.59-2.833A2.264,2.264,0,0,0,50.48,82.3,2.151,2.151,0,0,0,51.2,84a2.363,2.363,0,0,0,1.58.592,2.306,2.306,0,0,0,1.574-.6,2.32,2.32,0,0,0,.028-3.307,2.243,2.243,0,0,0-1.624-.657Zm12.35,4.9a2.069,2.069,0,0,0,0-2.133L54.625,64.629a2.136,2.136,0,0,0-3.7,0L40.439,82.793a2.134,2.134,0,0,0,1.847,3.2H63.258a2.068,2.068,0,0,0,1.853-1.067ZM54.786,59.191v3.446a3.731,3.731,0,0,0-4.028,0V59.191Zm.757-1.515a.754.754,0,0,1,.757.758v6.075l.812,1.406a17.537,17.537,0,1,0-11.727,5.279l3.861-6.685V58.433A.758.758,0,0,1,50,57.676ZM29.3,68.927a21.525,21.525,0,0,0,13.78,6.268L44.5,72.728a19.057,19.057,0,1,1,13.529-5.581c-.044.042-.089.084-.128.127l1.291,2.243q.317-.29.617-.59A21.575,21.575,0,1,0,24.651,45.314a.775.775,0,0,1-.067.152A21.628,21.628,0,0,0,29.3,68.927Zm-3.121,6.079-2.96-2.959,3.594-3.595c.451.532.918,1.049,1.413,1.546s1.012.967,1.546,1.413l-3.594,3.595Zm-.534,2.484-8.322,8.323a.623.623,0,0,1-.879,0l-4.033-4.03a.629.629,0,0,1,0-.877l8.328-8.323a.619.619,0,0,1,.873,0l4.033,4.03a.629.629,0,0,1,0,.877ZM21.464,53.671v.169a6.074,6.074,0,0,1-3.4,1.03,6.14,6.14,0,1,1,5.012-9.692A23.014,23.014,0,0,0,21.464,53.671Zm-.89,5.366a.757.757,0,0,0-.579.736v1.318a.186.186,0,0,1-.184.185h-3.5a.191.191,0,0,1-.189-.185V59.773a.752.752,0,0,0-.579-.737,10.606,10.606,0,0,1-2.993-1.242.756.756,0,0,0-.929.112l-.935.933a.18.18,0,0,1-.128.053.191.191,0,0,1-.133-.053L7.951,56.364a.2.2,0,0,1,0-.261l.935-.932A.759.759,0,0,0,9,54.24a10.487,10.487,0,0,1-1.24-3,.761.761,0,0,0-.74-.579H5.7a.19.19,0,0,1-.184-.185v-3.5A.19.19,0,0,1,5.7,46.8H7.017a.761.761,0,0,0,.74-.579,10.5,10.5,0,0,1,1.24-3,.758.758,0,0,0-.111-.93l-.935-.933a.2.2,0,0,1,0-.261l2.476-2.476a.191.191,0,0,1,.133-.053.179.179,0,0,1,.128.054l.935.932a.755.755,0,0,0,.929.111,10.636,10.636,0,0,1,2.993-1.242.751.751,0,0,0,.579-.736V36.371a.191.191,0,0,1,.189-.185h3.5a.186.186,0,0,1,.184.185v1.317a.758.758,0,0,0,.579.737,10.567,10.567,0,0,1,3,1.242.757.757,0,0,0,.929-.111l.935-.933a.172.172,0,0,1,.128-.053.19.19,0,0,1,.133.054l.734.737a23.018,23.018,0,0,0-2.676,4.254,7.652,7.652,0,1,0-2.214,11.939,22.058,22.058,0,0,0,.445,3.034,10.854,10.854,0,0,1-1.413.452Zm39.4,11.822c.306-.279.612-.567.907-.862A23.09,23.09,0,0,0,28.223,37.344c-.278.279-.545.564-.812.854l-.645-.648a1.7,1.7,0,0,0-2.4,0l-.523.522a12,12,0,0,0-2.325-.965v-.737a1.7,1.7,0,0,0-1.7-1.7h-3.5a1.7,1.7,0,0,0-1.7,1.7v.738a11.987,11.987,0,0,0-2.325.965l-.523-.523a1.7,1.7,0,0,0-2.4,0L6.884,40.026a1.694,1.694,0,0,0,0,2.4l.523.522a11.847,11.847,0,0,0-.968,2.327H5.7a1.7,1.7,0,0,0-1.7,1.7v3.5a1.7,1.7,0,0,0,1.7,1.7h.74a11.828,11.828,0,0,0,.968,2.328l-.523.522a1.694,1.694,0,0,0,0,2.4L9.359,59.91a1.7,1.7,0,0,0,2.4,0l.523-.523a12,12,0,0,0,2.325.965v.738a1.7,1.7,0,0,0,1.7,1.7h3.5a1.7,1.7,0,0,0,1.7-1.7v-.738c.284-.085.567-.18.846-.285a22.672,22.672,0,0,0,3.516,7.181l-3.827,3.825a2.149,2.149,0,0,0-.879-.188,2.118,2.118,0,0,0-1.508.624l-8.322,8.323a2.141,2.141,0,0,0,0,3.02l4.028,4.031a2.141,2.141,0,0,0,1.513.624,2.118,2.118,0,0,0,1.508-.624l8.322-8.323a2.125,2.125,0,0,0,.439-2.385l3.827-3.828a23,23,0,0,0,11.259,4.3l-3.11,5.391a3.649,3.649,0,0,0,3.16,5.474H63.259a3.649,3.649,0,0,0,3.16-5.474L59.971,70.86ZM56.3,54.951a1.181,1.181,0,0,1-.011.142v0a1.017,1.017,0,0,1-.039.134s-.006.005-.006.007a.557.557,0,0,1-.067.126v.006a.763.763,0,0,1-.211.213l-.011,0a.71.71,0,0,1-.122.066s-.006,0-.011,0a.624.624,0,0,1-.128.04h-.011a.738.738,0,0,1-.139.013H53.212a.758.758,0,0,1,0-1.515h.506l-3.933-3.929L46.6,52.1a.754.754,0,0,1-.912-.121L40.211,46.5a.757.757,0,1,1,1.068-1.072L46.347,50.5l3.188-1.838a.754.754,0,0,1,.912.12l4.339,4.34v-.5a.757.757,0,1,1,1.513,0v2.332ZM33.719,46.7a.757.757,0,1,1,1.513,0,1.136,1.136,0,0,0,2.2,0c0-.5-.167-.624-1.2-.852-.851-.187-2.27-.5-2.27-2.15a2.188,2.188,0,0,1,1.613-2.04v-.351a.759.759,0,0,1,1.519,0v.351A2.188,2.188,0,0,1,38.7,43.7a.757.757,0,1,1-1.513,0c0-.347-.395-.639-.862-.639s-.857.293-.857.639.045.441,1.085.67c.89.2,2.387.528,2.387,2.332a2.406,2.406,0,0,1-1.853,2.261V49.3a.759.759,0,0,1-1.519,0v-.339A2.412,2.412,0,0,1,33.719,46.7Zm4.623,17.654H34.32V52.524h4.022ZM39.1,51.009a.759.759,0,0,1,.762.758V65.115a.759.759,0,0,1-.762.758H33.558a.758.758,0,0,1-.757-.758V51.766a.758.758,0,0,1,.757-.758Zm7.466,13.348H42.536V55.34h4.028Zm.757-10.532a.754.754,0,0,1,.757.758V65.115a.754.754,0,0,1-.757.758H41.78a.758.758,0,0,1-.757-.758V54.582a.758.758,0,0,1,.757-.758Z" transform="translate(0 0)" fill="#242222" fill-rule="evenodd"/>
    </g>
  </g>
</svg>
