<svg xmlns="http://www.w3.org/2000/svg" xmlns:xlink="http://www.w3.org/1999/xlink" width="103" height="103" viewBox="0 0 103 103">
  <defs>
    <filter id="Trazado_982547" x="0" y="0" width="103" height="103" filterUnits="userSpaceOnUse">
      <feOffset dy="3" input="SourceAlpha"/>
      <feGaussianBlur stdDeviation="3" result="blur"/>
      <feFlood flood-opacity="0.161"/>
      <feComposite operator="in" in2="blur"/>
      <feComposite in="SourceGraphic"/>
    </filter>
  </defs>
  <g id="Grupo_1209518" data-name="Grupo 1209518" transform="translate(-191 -4059.612)">
    <g id="Grupo_1207485" data-name="Grupo 1207485" transform="translate(0 396.112)">
      <g id="Grupo_1207313" data-name="Grupo 1207313" transform="translate(0 2919.5)">
        <g id="Grupo_1202212" data-name="Grupo 1202212" transform="translate(-80 -126.414)">
          <g id="Grupo_1174813" data-name="Grupo 1174813" transform="translate(280 876.414)">
            <g id="Grupo_1201680" data-name="Grupo 1201680">
              <g id="Grupo_1201330" data-name="Grupo 1201330">
                <g id="Grupo_1172010" data-name="Grupo 1172010">
                  <g id="Grupo_1171046" data-name="Grupo 1171046">
                    <g id="Grupo_1148525" data-name="Grupo 1148525">
                      <g transform="matrix(1, 0, 0, 1, -9, -6)" filter="url(#Trazado_982547)">
                        <g id="Trazado_982547-2" data-name="Trazado 982547" transform="translate(9 6)" fill="#f2f7e5">
                          <path d="M 42.5 83.5 C 36.96437835693359 83.5 31.59512901306152 82.41617584228516 26.54141235351562 80.27863311767578 C 21.65934181213379 78.21369171142578 17.27447128295898 75.25723266601562 13.50862312316895 71.49137878417969 C 9.742764472961426 67.72553253173828 6.786305904388428 63.34066009521484 4.721364498138428 58.45858764648438 C 2.583823442459106 53.40486907958984 1.5 48.03562164306641 1.5 42.5 C 1.5 36.96437835693359 2.583823442459106 31.59512901306152 4.721364498138428 26.54141235351562 C 6.786305904388428 21.65934181213379 9.742764472961426 17.27448272705078 13.50862312316895 13.50862312316895 C 17.27447128295898 9.742776870727539 21.65934181213379 6.786305904388428 26.54141235351562 4.721364498138428 C 31.59512901306152 2.583823442459106 36.96437835693359 1.5 42.5 1.5 C 48.03562164306641 1.5 53.40486907958984 2.583823442459106 58.45858764648438 4.721364498138428 C 63.34066009521484 6.786305904388428 67.72553253173828 9.742776870727539 71.49137878417969 13.50862312316895 C 75.25723266601562 17.27448272705078 78.21369171142578 21.65934181213379 80.27863311767578 26.54141235351562 C 82.41617584228516 31.59512901306152 83.5 36.96437835693359 83.5 42.5 C 83.5 48.03562164306641 82.41617584228516 53.40486907958984 80.27863311767578 58.45858764648438 C 78.21369171142578 63.34066009521484 75.25723266601562 67.72553253173828 71.49137878417969 71.49137878417969 C 67.72553253173828 75.25723266601562 63.34066009521484 78.21369171142578 58.45858764648438 80.27863311767578 C 53.40486907958984 82.41617584228516 48.03562164306641 83.5 42.5 83.5 Z" stroke="none"/>
                          <path d="M 42.5 3 C 37.16621398925781 3 31.99356079101562 4.043960571289062 27.125732421875 6.102882385253906 C 22.42246627807617 8.092185974121094 18.19785308837891 10.94070434570312 14.56928253173828 14.56928253173828 C 10.94070434570312 18.19785308837891 8.092185974121094 22.42246627807617 6.102882385253906 27.125732421875 C 4.043960571289062 31.99356079101562 3 37.16621398925781 3 42.5 C 3 47.83378601074219 4.043960571289062 53.00643920898438 6.102882385253906 57.874267578125 C 8.092185974121094 62.57753372192383 10.94070434570312 66.80214691162109 14.56928253173828 70.43071746826172 C 18.19785308837891 74.05929565429688 22.42246627807617 76.90781402587891 27.125732421875 78.89711761474609 C 31.99356079101562 80.95603942871094 37.16621398925781 82 42.5 82 C 47.83378601074219 82 53.00643920898438 80.95603942871094 57.874267578125 78.89711761474609 C 62.57753372192383 76.90781402587891 66.80214691162109 74.05929565429688 70.43071746826172 70.43071746826172 C 74.05929565429688 66.80214691162109 76.90781402587891 62.57753372192383 78.89711761474609 57.874267578125 C 80.95603942871094 53.00643920898438 82 47.83378601074219 82 42.5 C 82 37.16621398925781 80.95603942871094 31.99356079101562 78.89711761474609 27.125732421875 C 76.90781402587891 22.42246627807617 74.05929565429688 18.19785308837891 70.43071746826172 14.56928253173828 C 66.80214691162109 10.94070434570312 62.57753372192383 8.092185974121094 57.874267578125 6.102882385253906 C 53.00643920898438 4.043960571289062 47.83378601074219 3 42.5 3 M 42.5 0 C 65.97210693359375 0 85 19.02789306640625 85 42.5 C 85 65.97210693359375 65.97210693359375 85 42.5 85 C 19.02789306640625 85 0 65.97210693359375 0 42.5 C 0 19.02789306640625 19.02789306640625 0 42.5 0 Z" stroke="none" fill="#1d7083"/>
                        </g>
                      </g>
                    </g>
                  </g>
                </g>
              </g>
            </g>
          </g>
        </g>
      </g>
    </g>
    <g id="analytics_997281" transform="translate(216.913 4067.612)">
      <g id="Grupo_1209516" data-name="Grupo 1209516" transform="translate(0.794 15.794)">
        <g id="XMLID_193_" transform="translate(8.571 15.342)">
          <g id="Grupo_1209496" data-name="Grupo 1209496">
            <path id="Trazado_1052418" data-name="Trazado 1052418" d="M92.574,167.5H89.982a1.482,1.482,0,0,0-1.482,1.482v24.334a1.482,1.482,0,0,0,1.482,1.482h24.334a1.482,1.482,0,0,0,1.482-1.482V167.5Z" transform="translate(-88.5 -167.5)" fill="#c7cfcf"/>
          </g>
        </g>
        <g id="XMLID_192_" transform="translate(16.718 7.195)">
          <g id="Grupo_1209498" data-name="Grupo 1209498">
            <g id="Grupo_1209497" data-name="Grupo 1209497">
              <path id="Trazado_1052419" data-name="Trazado 1052419" d="M191.316,90.5H166.982a1.482,1.482,0,0,0-1.482,1.482v25.6l23.225.216h2.591a1.482,1.482,0,0,0,1.482-1.482V91.982A1.482,1.482,0,0,0,191.316,90.5Z" transform="translate(-165.5 -90.5)" fill="#c7cfcf"/>
            </g>
          </g>
        </g>
        <g id="XMLID_183_" transform="translate(12.644 11.057)">
          <g id="Grupo_1209501" data-name="Grupo 1209501">
            <g id="Grupo_1209500" data-name="Grupo 1209500">
              <g id="Grupo_1209499" data-name="Grupo 1209499">
                <path id="Trazado_1052420" data-name="Trazado 1052420" d="M154.3,128.482v24.334a1.482,1.482,0,0,1-1.482,1.482H128.482A1.482,1.482,0,0,1,127,152.816V128.482A1.482,1.482,0,0,1,128.482,127h24.334A1.482,1.482,0,0,1,154.3,128.482Z" transform="translate(-127 -127)" fill="#f4f5f5"/>
              </g>
            </g>
          </g>
        </g>
        <path id="Trazado_1052421" data-name="Trazado 1052421" d="M137.211,152.816V128.482A1.482,1.482,0,0,1,138.693,127H128.482A1.482,1.482,0,0,0,127,128.482v24.334a1.482,1.482,0,0,0,1.482,1.482h10.211A1.482,1.482,0,0,1,137.211,152.816Z" transform="translate(-114.356 -115.943)" fill="#e8e9e9"/>
        <g id="XMLID_184_" transform="translate(12.644 11.057)">
          <g id="Grupo_1209503" data-name="Grupo 1209503">
            <g id="Grupo_1209502" data-name="Grupo 1209502">
              <path id="Trazado_1052422" data-name="Trazado 1052422" d="M154.3,128.482v4.073H127v-4.073A1.482,1.482,0,0,1,128.482,127h24.334A1.482,1.482,0,0,1,154.3,128.482Z" transform="translate(-127 -127)" fill="#ff395e"/>
            </g>
          </g>
        </g>
        <path id="Trazado_1052423" data-name="Trazado 1052423" d="M137.211,128.482A1.482,1.482,0,0,1,138.694,127H128.483a1.476,1.476,0,0,0-.829.253,1.488,1.488,0,0,0-.4.4,1.478,1.478,0,0,0-.253.829v4.073h10.211v-4.072Z" transform="translate(-114.357 -115.943)" fill="#b12e65"/>
        <g id="XMLID_190_" transform="translate(36.927 0)">
          <g id="Grupo_1209505" data-name="Grupo 1209505">
            <g id="Grupo_1209504" data-name="Grupo 1209504">
              <path id="Trazado_1052424" data-name="Trazado 1052424" d="M372.16,23.2v2.3a.7.7,0,0,1-.7.7H357.2a.7.7,0,0,1-.7-.7V23.2a.7.7,0,0,1,.7-.7h14.253A.7.7,0,0,1,372.16,23.2Z" transform="translate(-356.5 -22.5)" fill="#f3d064"/>
            </g>
          </g>
        </g>
        <g id="XMLID_191_" transform="translate(0 45.71)">
          <g id="Grupo_1209507" data-name="Grupo 1209507">
            <g id="Grupo_1209506" data-name="Grupo 1209506">
              <path id="Trazado_1052425" data-name="Trazado 1052425" d="M23.16,455.2v2.3a.7.7,0,0,1-.7.7H8.2a.7.7,0,0,1-.7-.7v-2.3a.7.7,0,0,1,.7-.7H22.456A.7.7,0,0,1,23.16,455.2Z" transform="translate(-7.5 -454.5)" fill="#f3d064"/>
            </g>
          </g>
        </g>
        <circle id="Elipse_13434" data-name="Elipse 13434" cx="4.973" cy="4.973" r="4.973" transform="translate(15.554 25.5)" fill="#f3d064"/>
        <g id="XMLID_186_" transform="translate(20.527 24.767)">
          <g id="Grupo_1209509" data-name="Grupo 1209509" transform="translate(0 0)">
            <g id="Grupo_1209508" data-name="Grupo 1209508">
              <path id="Trazado_1052426" data-name="Trazado 1052426" d="M206.918,262.277H201.5v-5.418a.288.288,0,0,1,.3-.288,5.715,5.715,0,0,1,5.4,5.4A.288.288,0,0,1,206.918,262.277Z" transform="translate(-201.5 -256.57)" fill="#7ca1d8"/>
            </g>
          </g>
        </g>
        <g id="XMLID_187_" transform="translate(17.459 19.046)">
          <g id="Grupo_1209511" data-name="Grupo 1209511">
            <g id="Grupo_1209510" data-name="Grupo 1209510">
              <path id="Trazado_1052427" data-name="Trazado 1052427" d="M190.064,203.3v1.045a.8.8,0,0,1-.8.8H173.3a.8.8,0,0,1-.8-.8V203.3a.8.8,0,0,1,.8-.8h15.964A.8.8,0,0,1,190.064,203.3Z" transform="translate(-172.5 -202.5)" fill="#c5d65c"/>
            </g>
          </g>
        </g>
        <g id="XMLID_188_" transform="translate(33.965 28.463)">
          <g id="Grupo_1209513" data-name="Grupo 1209513">
            <g id="Grupo_1209512" data-name="Grupo 1209512">
              <circle id="Elipse_13435" data-name="Elipse 13435" cx="1.27" cy="1.27" r="1.27" fill="#ff395e"/>
            </g>
          </g>
        </g>
        <g id="XMLID_189_" transform="translate(33.965 32.695)">
          <g id="Grupo_1209515" data-name="Grupo 1209515" transform="translate(0 0)">
            <g id="Grupo_1209514" data-name="Grupo 1209514">
              <circle id="Elipse_13436" data-name="Elipse 13436" cx="1.27" cy="1.27" r="1.27" fill="#ff395e"/>
            </g>
          </g>
        </g>
      </g>
      <g id="Grupo_1209517" data-name="Grupo 1209517" transform="translate(0 15)">
        <path id="Trazado_1052428" data-name="Trazado 1052428" d="M52.678,15H38.424a1.5,1.5,0,0,0-1.5,1.5v2.3a1.5,1.5,0,0,0,1.5,1.5H48.99V28.9H45.6V24.471A2.279,2.279,0,0,0,43.328,22.2H18.994a2.279,2.279,0,0,0-2.276,2.276v1.586h-1.8a2.279,2.279,0,0,0-2.276,2.276v2.009h-1.8a2.279,2.279,0,0,0-2.276,2.276V50.513H4.391a.794.794,0,0,0-.794.794v9.4H1.5a1.5,1.5,0,0,0-1.5,1.5v2.3A1.5,1.5,0,0,0,1.5,66H15.75a1.5,1.5,0,0,0,1.5-1.5v-2.3a1.5,1.5,0,0,0-1.5-1.5H5.185V52.1H8.571v4.853a2.279,2.279,0,0,0,2.276,2.276H35.18a2.279,2.279,0,0,0,2.276-2.276V54.943h1.8a2.279,2.279,0,0,0,2.276-2.276V51.081h1.8A2.279,2.279,0,0,0,45.6,48.8V30.487h4.179a.794.794,0,0,0,.794-.794v-9.4h2.1a1.5,1.5,0,0,0,1.5-1.5V16.5A1.5,1.5,0,0,0,52.678,15ZM15.66,64.413H1.587V62.3H15.66Zm-1.428-36.08a.69.69,0,0,1,.689-.689H39.254a.69.69,0,0,1,.689.689v3.279H14.231V28.333ZM35.869,56.952a.69.69,0,0,1-.689.689H10.847a.69.69,0,0,1-.689-.689V32.618a.69.69,0,0,1,.689-.689h1.8V52.667a2.279,2.279,0,0,0,2.276,2.276H35.869ZM44.017,48.8a.69.69,0,0,1-.689.689h-1.8V43.621a.794.794,0,0,0-1.587,0v9.046a.69.69,0,0,1-.689.689H14.92a.69.69,0,0,1-.689-.689V33.2H39.943v7.248a.794.794,0,0,0,1.587,0V28.333a2.279,2.279,0,0,0-2.276-2.276H18.3V24.471a.69.69,0,0,1,.689-.689H43.328a.69.69,0,0,1,.689.689V48.8Zm8.571-30.1H38.515V16.587H52.587Z" transform="translate(0 -15)" fill="#000100"/>
        <circle id="Elipse_13437" data-name="Elipse 13437" cx="0.846" cy="0.846" r="0.846" transform="translate(15.818 13.808)" fill="#000100"/>
        <circle id="Elipse_13438" data-name="Elipse 13438" cx="0.724" cy="0.724" r="0.724" transform="translate(19.12 13.911)" fill="#000100"/>
        <circle id="Elipse_13439" data-name="Elipse 13439" cx="0.846" cy="0.846" r="0.846" transform="translate(22.273 13.914)" fill="#000100"/>
        <path id="Trazado_1052429" data-name="Trazado 1052429" d="M166.593,199.231h15.964a1.6,1.6,0,0,0,1.593-1.593v-1.046A1.6,1.6,0,0,0,182.558,195H166.593A1.6,1.6,0,0,0,165,196.592v1.046A1.6,1.6,0,0,0,166.593,199.231Zm0-2.645,15.971.006,0,1.052h0l-15.971-.006Z" transform="translate(-147.541 -175.953)" fill="#000100"/>
        <path id="Trazado_1052430" data-name="Trazado 1052430" d="M165.572,255.566a2.064,2.064,0,1,0,0-1.587H164.2a.794.794,0,0,0-.561.232l-2,2h-2.788a.793.793,0,0,0,.419-.7A6.515,6.515,0,0,0,152.767,249a.794.794,0,0,0-.794.794v0a5.766,5.766,0,1,0,6.086,8h3.47l1.776,1.776a.794.794,0,0,0,.561.232h1.707a2.064,2.064,0,1,0-.008-1.587H164.2l-1.158-1.158,1.491-1.491Zm1.9-1.276a.476.476,0,1,1-.476.476A.477.477,0,0,1,167.474,254.29Zm0,4.232A.476.476,0,1,1,167,259,.477.477,0,0,1,167.474,258.523Zm-9.851-3.809H153.56v-4.063A4.932,4.932,0,0,1,157.623,254.714Zm-4.856,4.973a4.18,4.18,0,0,1-.794-8.283v4.1a.794.794,0,0,0,.794.794h4.1A4.186,4.186,0,0,1,152.767,259.687Z" transform="translate(-131.446 -224.241)" fill="#000100"/>
      </g>
    </g>
  </g>
</svg>
