<svg xmlns="http://www.w3.org/2000/svg" xmlns:xlink="http://www.w3.org/1999/xlink" width="600" height="355" viewBox="0 0 600 355">
  <defs>
    <clipPath id="clip-path">
      <rect id="Rectángulo_419562" data-name="Rectángulo 419562" width="600" height="355" transform="translate(810 5786)" fill="#103d47" opacity="0.4"/>
    </clipPath>
    <clipPath id="clip-path-2">
      <rect id="Rectángulo_419559" data-name="Rectángulo 419559" width="358.163" height="332.733" fill="none"/>
    </clipPath>
    <filter id="Trazado_1052110" x="77.919" y="61.391" width="107.895" height="106.759" filterUnits="userSpaceOnUse">
      <feOffset dy="3" input="SourceAlpha"/>
      <feGaussianBlur stdDeviation="3" result="blur"/>
      <feFlood flood-opacity="0.161"/>
      <feComposite operator="in" in2="blur"/>
      <feComposite in="SourceGraphic"/>
    </filter>
    <clipPath id="clip-path-3">
      <rect id="Rectángulo_419560" data-name="Rectángulo 419560" width="92.484" height="127.438" fill="none"/>
    </clipPath>
    <clipPath id="clip-path-4">
      <rect id="Rectángulo_419561" data-name="Rectángulo 419561" width="128.069" height="134.127" fill="none"/>
    </clipPath>
  </defs>
  <g id="Enmascarar_grupo_1098811" data-name="Enmascarar grupo 1098811" transform="translate(-810 -5786)" clip-path="url(#clip-path)">
    <g id="Grupo_1209462" data-name="Grupo 1209462" transform="translate(0 3.633)">
      <path id="Trazado_1051983" data-name="Trazado 1051983" d="M10.848,0H536.957C542.948,0,547.8,8.372,547.8,18.7V188.748c0,10.328-4.857,18.7-10.848,18.7H10.848C4.857,207.448,0,199.075,0,188.748V18.7C0,8.372,4.857,0,10.848,0Z" transform="translate(836.098 5868.281)" fill="#d3cbc0"/>
      <g id="Grupo_1209459" data-name="Grupo 1209459" transform="translate(896.919 5793.5)">
        <g id="Grupo_1209458" data-name="Grupo 1209458" transform="translate(0)">
          <g id="Grupo_1209451" data-name="Grupo 1209451" transform="translate(41.963)">
            <g id="Grupo_1209450" data-name="Grupo 1209450" clip-path="url(#clip-path-2)">
              <path id="Trazado_1051984" data-name="Trazado 1051984" d="M2707.587,851.307c-1.606,3.162-3.331,6.3-3.985,9.82a9.672,9.672,0,0,0,3.136,9.227c1.925,1.816,3.805,3.678,5.706,5.519.8.254,1.068.973,1.425,1.615a4.524,4.524,0,0,0,.421.781c2.355,2.729,4.929,5.342,4.365,9.553,1.236-1.039,1.427-2.245,1.881-3.308a3.462,3.462,0,0,1,3.431-2.327c3.625-.026,7.251,0,10.873-.27a48.1,48.1,0,0,1,23.847,18.22c3.9,5.493,5.507,12.138,7.076,18.635a67.6,67.6,0,0,1,1.521,23.854,27.686,27.686,0,0,1-3.431,10.033,87.876,87.876,0,0,1-20.065,24.815,139.517,139.517,0,0,1-12.18,10.078c-1.323-.135-1.53-1.262-1.9-2.2-5.294-13.485-9.968-27.192-14.72-40.874-2.591-7.458-6.616-14.265-10.347-21.2a174.243,174.243,0,0,0-11.2-18.459,15.881,15.881,0,0,0-3.563-3.95c-2.7-2.647-5.031-5.66-8.074-7.985-7.313-5.584-14.9-10.617-23.97-12.945-2.273-.583-2.778-1.351-2.645-3.437.3-4.652-.5-5.9-4.771-7.517a2.708,2.708,0,0,1-1.146-.666c-.764-1.174-.374-2.428-.3-3.681a13.347,13.347,0,0,0-3.579-10.171c-4.626-5.233-10.768-6.94-17.407-7.73-3.828-.456-7.678-.107-11.488-.639a1.317,1.317,0,0,1-.413-.591,3.294,3.294,0,0,1,.369-2.349,42.128,42.128,0,0,0,3.574-12.688,4.369,4.369,0,0,1,.508-1.675c1-.972,1.422.081,1.9.613a16.187,16.187,0,0,0,3.459,3.373c1.016.4,1.9-.123,2.821-.407,3.126-.771,4.141-2.876,4.529-5.965,1.341-10.691,3.823-21.193,5.66-31.805a10.687,10.687,0,0,0,.059-4.406c1.027-2.229,2.647-2.444,4.086-.537a9.957,9.957,0,0,1,1.168,2.612c-.106,3.8-1.458,7.36-2.187,11.042-1.6,8.091-2.668,16.277-4.55,24.5,1.04,0,1.545-.729,2.225-1.04.977-.35,1.664-1.191,2.625-1.567,1.309-.7,1.651-2.057,2.1-3.269a52.949,52.949,0,0,0,3.32-14.852c.123-1.876,1.1-3.737.238-5.655-.2-1.734-1.557-3.226-1.078-5.1a2.3,2.3,0,0,1,.823-1.036,30.265,30.265,0,0,1,16.037-5.427c1.453-.073,2.451.915,3.354,1.957,1.143,1.318,2.341,2.555,4.354,2.066a.763.763,0,0,1,.647.1c3.467,3.077,6.954.844,10.242-.219a8.062,8.062,0,0,1,6.63.271c11.949,6.145,19.877,15.559,23.537,28.567,2.447,8.7.7,16.779-3.171,24.624a39.616,39.616,0,0,0-1.773,4.069" transform="translate(-2416.61 -728.283)" fill="#64b1f1"/>
              <path id="Trazado_1051985" data-name="Trazado 1051985" d="M831.749,3587.42a340.241,340.241,0,0,1-35.682-3.7A378.351,378.351,0,0,1,747.125,3573c-2.141-2.29-1.258-5.2-1.483-7.839a23.7,23.7,0,0,1,.222-5.289,45.661,45.661,0,0,1,1.622-9.162c2.495-7.71,5.959-14.835,12-20.5,4.571-4.287,9.554-6.644,16.111-5.438a136.367,136.367,0,0,1,18.271,4.772c.713.339,1.494.522,2.19.9a84.64,84.64,0,0,1,9.161,3.633c1.451.685,2.823,1.522,4.264,2.226,3.282,1.725,6.436,3.677,9.684,5.461a170.443,170.443,0,0,1,19.685,14.307,6.074,6.074,0,0,0,1.309.817c3.112,2.307,6.2,4.652,9.126,7.193q3.325,2.422,6.586,4.923c.7.533,1.5.991,1.788,1.915.116,1.072-.668,1.577-1.363,2.118-6.427,5.011-13.245,9.462-20.028,13.963-1.427.947-2.987.548-4.518.413" transform="translate(-688.751 -3255.831)" fill="#201f50"/>
              <path id="Trazado_1051986" data-name="Trazado 1051986" d="M2135.274,3679.3a348.282,348.282,0,0,1-48.689,8.245,496.343,496.343,0,0,1-59.387,2.826c-5.2-.079-10.389-.329-15.583-.5-.467-.795.2-1.094.678-1.353,10.1-5.444,18.5-13.135,27.18-20.464,8.809-7.44,17.821-14.583,28.166-19.853,7.081-3.606,14.21-7.036,20.994-7.733a66.7,66.7,0,0,0-18.477,6.117c-2.636,1.3-5.63,1.851-8.308,3.163a1.414,1.414,0,0,1-1.666-.232c-.028-1.516,1.255-1.885,2.234-2.436,6.326-3.562,12.742-6.933,19.808-8.846a5.208,5.208,0,0,0,.607-.276c8.02-2.221,16.107-3.871,24.5-3a26.513,26.513,0,0,1,3.6.479c.662.186,1.348.282,2,.495,1.224.494,2.529.755,3.742,1.283,1.458.544,2.79,1.359,4.221,1.964,8.718,5.158,13.476,12.938,15.1,22.8.412,2.5.529,5.021.736,7.54-.144,1.906-.177,3.816-.132,5.724a5.329,5.329,0,0,1-1.334,4.058" transform="translate(-1858.146 -3357.692)" fill="#201f50"/>
              <path id="Trazado_1051987" data-name="Trazado 1051987" d="M446.52,2310.914c-6.262-1.795-12.451-3.784-18.937-4.81a15.565,15.565,0,0,0-13.166,3.751,40.791,40.791,0,0,0-11.6,16.332c-.684,1.687-1.263,3.416-1.89,5.126-3.156-1.626-6.377-.287-9.561-.175-6.069.213-12.148.784-18.084-1.107-1.827-2.372-2.475-5.206-3.021-8.042-1.878-9.763.228-19.06,3.406-28.229a29.715,29.715,0,0,0,1.843-5.7c-.454-1.017.054-1.879.449-2.754,1.621-3.583,3.186-7.191,4.77-10.791.767-2.7,2.614-4.82,4.016-7.156,7.644-12.74,14.673-25.838,22.488-38.475,4.766-7.706,9.556-15.4,15.341-22.411.835-1.012,1.55-2.5,3.365-1.873a31.4,31.4,0,0,0,4.379,5.026,7.4,7.4,0,0,1,1.917,2.71c2.948,8.284,5.5,16.654,5.38,25.585a15.775,15.775,0,0,1-.09,2c-.349,2.464-1.489,3.265-3.844,2.535-2.563-.794-5.205-1.223-7.8-1.873a10.718,10.718,0,0,0-5.072.081c-2.267.514-2.994,1.633-2.281,3.9,1.161,3.686,2.748,7.22,3.988,10.882a60.871,60.871,0,0,1,1.89,8.475,2.382,2.382,0,0,1-.524,2.291c-1.109.585-1.853-.19-2.558-.79a73.7,73.7,0,0,1-9.976-10.988,46.226,46.226,0,0,1,3.166,4.865c2.361,4.693,5.87,8.518,9.389,12.322,1.915,2.071,4.009,3.973,5.951,6.021.71.749,1.608,1.584,1.137,2.7-.455,1.084-1.658,1.132-2.7,1.232-3.882.375-7.083-1.364-10.109-3.438-4.293-2.942-7.96-6.63-11.713-10.146.63.772,1.425,1.448,2.12,2.219,1.309,1.752,3.268,2.946,4.267,4.965a27.2,27.2,0,0,0,1.463,2.748c1.415,2.29.793,3.984-1.752,4.822-2.825.929-5.757,1.515-8.555,2.526-6.163,2.228-12.319,4.486-17.059,9.327a16.069,16.069,0,0,0-2.387,2.936c-.475.794-1.568,1.669-.96,2.507.574.791,1.83.184,2.719-.025,2.386-.562,4.778-1.132,7.1-1.919,10.53-3.566,21.412-4.888,32.466-5.088,1.158-.021,2.413-.223,3.354.786-.141,1.212-1.159,1.169-1.986,1.355-4.349.983-8.789,1.422-13.174,2.2a114.293,114.293,0,0,0-24.555,7.109,3.584,3.584,0,0,0-2.207,1.533,4.168,4.168,0,0,0,2.877.8,45.643,45.643,0,0,0,11.733-.946c12-2.437,24.026-4.778,35.971-7.5,2.321-.528,4.553-1.364,6.858-1.941,2.367-.593,3.106.023,2.345,2.237a5.615,5.615,0,0,0,.9,5.628c.35,1.739-.107,3.448-.222,5.166-.046.692-.3,1.458-1.273,1.47" transform="translate(-341.383 -2036.434)" fill="#fec53b"/>
              <path id="Trazado_1051988" data-name="Trazado 1051988" d="M3319.961,2396.316a72.668,72.668,0,0,0-1.312-9.9,29.819,29.819,0,0,0-12.547-18.5c-.546-.367-1.05-.8-1.573-1.2a2.14,2.14,0,0,1-.777-1.746c.4-2.518,0-5.1.64-7.592.824-1.337,1.751-.725,2.612-.076a31.182,31.182,0,0,1,2.87,3.106c8.028,7.95,15.928,16.038,24.606,23.3a21.139,21.139,0,0,0,7.344,4.133,4.449,4.449,0,0,0,4.387-.81c6.831-5.482,9.181-16.85,5.077-24.585a18.459,18.459,0,0,0-2.879-3.67c-.615-.675-1.54-1.294-1.017-2.468,1.33-.729,2.27.145,3.2.845a27.583,27.583,0,0,1,4.24,4.373c1.185-9.255-4.987-16.716-14.52-17.543-4.269-.371-8.62-.581-12.527,1.859-2.029.347-3.964-.355-5.941-.552a112.132,112.132,0,0,0-15.057-.9,3.975,3.975,0,0,1-1.734-.316c-1.217-.681-.729-1.614-.071-2.181a90.37,90.37,0,0,0,10.26-10.809.912.912,0,0,1,1.036-.187c1.329,1.008.858,2.239.368,3.42a34.04,34.04,0,0,1-4.308,6.947,11.747,11.747,0,0,0,6.224-2.967,25.241,25.241,0,0,0,7.6-10.563,49.108,49.108,0,0,0,2.717-18.365c-.245-13.921-6.6-25.75-12.463-37.761-1.415-2.9-1.619-2.738-3.562-.164a61.35,61.35,0,0,0-9.2,15.966c-2.084,5.743-3.385,11.624-2.713,17.7a21.065,21.065,0,0,0,10.842,16.737,8.745,8.745,0,0,0,3.661.836c1.129.114,2.19.563,2.117,1.836-.11,1.892.2,3.882-.874,5.635a7.364,7.364,0,0,0-2.222,1.749,68.556,68.556,0,0,1-12.209,11.322c-.255-.032-.04.509-.043.211,0-.091.058-.1.151-.127.5-.131.878-.1.867.56-1.009,1.252-2.18.523-3.314.28a4.839,4.839,0,0,1-3.12-1.912,19.506,19.506,0,0,1-1.378-5.608c-.654-4.111-1.773-8.133-2.287-12.268-.012-.864-.008-1.729-.01-2.592a101.862,101.862,0,0,1,9.564-44c1.655-3.562,3.738-6.915,5.7-10.323a13.914,13.914,0,0,0,1.8-3.8c1.211-2.792,2.559-5.479,5.525-6.861,1.786.706,2.631,2.339,3.663,3.768,6.59,9.127,11.64,19.153,16.929,29.039,5.506,10.293,8.224,21.642,12.332,32.464,2.608,6.874,5.1,13.79,7.673,20.679a7.755,7.755,0,0,0,.808,1.312c.836,3.561,2.59,6.785,3.739,10.234,2.872,8.623,3.45,17.285.751,26.059a11.949,11.949,0,0,0-.266,1.52c.45,2.192-.713,4.008-1.5,5.857-1.336,3.128-2.974,6.093-6.3,7.616a93.4,93.4,0,0,1-12.51,4.751c-4.529.063-8.831-1.488-13.3-1.876-1.683-.146-3.344-.545-5.034-.664a3.988,3.988,0,0,1-2.737-1.214" transform="translate(-3042.122 -2084.764)" fill="#f3a62f"/>
              <path id="Trazado_1051989" data-name="Trazado 1051989" d="M39.983,1366.263l-5.859,13.4c-2.581-1.092-4.527-3.1-6.594-4.851A76.724,76.724,0,0,1,6.077,1346a80.858,80.858,0,0,1-5.85-25.888c-1.479-19.682,4.3-37.035,16.569-52.291,6.086-7.568,13.53-13.662,21.553-19.132a153.636,153.636,0,0,1,41.488-20.214,188.658,188.658,0,0,1,31.886-6.934,24.368,24.368,0,0,1,4.416-.42,3.927,3.927,0,0,1,2.212,4.5,2.966,2.966,0,0,1-2.243.785c-22.308,2.192-43.437,8.626-63.556,18.285a86.851,86.851,0,0,0-27.426,21.066,94.845,94.845,0,0,0-15.169,22.205c-4.672,9.865-6.98,20.184-5.823,31.145a6,6,0,0,1,.056,1.558c-1.087,6.772,2.18,12.106,5.8,17.259,7.191,10.224,16.414,18.364,26.582,25.5a13.45,13.45,0,0,1,3.408,2.837" transform="translate(0 -1128.038)" fill="#83c8f4"/>
              <path id="Trazado_1051990" data-name="Trazado 1051990" d="M1483.311,70.329c-.856-2.592-.531-5.292-.622-7.935-.243-7-.028-13.991,2.02-20.77,2.032-6.726,5.555-12.464,11.635-16.606-2.27-2-4.491-3.93-4.32-7.2a6.362,6.362,0,0,1,1.734-4.085c1.157,5.033,3.049,6.134,8.067,4.913,4.716-1.147,8.975-3.538,13.6-4.95,5.166-1.578,10.326-2.222,15.479-.011a2.993,2.993,0,0,0,2.352-.1,24.665,24.665,0,0,1,5.723-1.535c-1.625-2.032-3.2-3.866-4.62-5.81-1.591-2.176-1.13-3.059,1.6-3.365a13.382,13.382,0,0,1,9.777,2.971,36.076,36.076,0,0,1,5.261,4.881c-1.187-3.41-2.472-6.78-.8-10.723,3.843,6.876,9.744,9.917,16.876,11.118,3.8.64,7.354,1.847,9.43,5.787.278-2.132-.58-3.84-.873-5.662,2.584,1.216,3.7,3.2,3.854,6.786,1.6-1.888,1.851-2.938,2.016-8.751,2.5,1.8,2.922,4.234,2.665,6.9-.209,2.169-1.258,3.636-3.63,3.777.193.856.9,1.043,1.441,1.375,11.293,6.949,16.64,17.4,17.857,30.282.2,2.071.343,4.147.512,6.221,1.516,3.062.985,6.208.384,9.356-.433.742-.953,1.3-1.918.881-1.88-.885-1.965-2.607-2.02-4.341-.819-3.953-.328-7.992-.826-11.986-.92-7.385-3.078-14.195-7.8-20.087-2.076-2.591-4.867-4.316-7.185-6.4a25.2,25.2,0,0,1,3.7,5.385,32.876,32.876,0,0,0,4.572,6.838c1.716,1.879,1.4,2.77-1.034,3.568-1.453,0-1.992-1.074-2.571-2.136a40.665,40.665,0,0,0-11.138-13.449c-8.171-6.147-17.526-8.94-27.562-9.65a63.089,63.089,0,0,0-26.032,3.918,40.237,40.237,0,0,0-23.8,21.8c-.65,1.407-1.105,3-3.066,3.126-2.378-.461-3.248-1.365-3.473-3.608A9.407,9.407,0,0,1,1498.3,30.9c-1.979-.934-2.208-1.536-1.106-2.9-5.963,6.289-9.783,13.612-10.3,22.361-.309,5.25-1.086,10.515-.183,15.786a8.042,8.042,0,0,1,.305,2.394,3.112,3.112,0,0,1-2.21,2.579,1.488,1.488,0,0,1-1.493-.787" transform="translate(-1369.607 -0.004)" fill="#1f1f51"/>
              <path id="Trazado_1051991" data-name="Trazado 1051991" d="M3903.684,1703.944c-3.507.849-7.079.506-10.624.51-1.569,0-2.5.418-2.9,2.007a29.3,29.3,0,0,1-1.205,3.341c-.243.63-.531,1.317-1.379,1.18-.752-.121-.751-.809-.813-1.4-.055-.515-.111-1.032-.135-1.549-.116-2.478-.508-4.691-2.91-6.25-1.41-.914-1.959-2.736-2.317-4.441,0-3.858,0-7.716.008-11.574.015-4.646,3.02-7.908,7.659-8.058,4.225-.137,8.459-.1,12.688-.024,3.218.059,6.515,2.588,6.717,5.752.334,5.232.635,10.51-.261,15.74a7.529,7.529,0,0,1-.443,1.251c-.5,2.169-1.758,3.457-4.079,3.51" transform="translate(-3585.562 -1549.757)" fill="#f4fefe"/>
              <path id="Trazado_1051992" data-name="Trazado 1051992" d="M4173.825,1980.432c1.694-.782,2.779-2.27,4.079-3.509,5.146,2.106,10.4,3.914,15.36,6.5,11.068,5.784,18.66,14.358,20.211,26.956a54.935,54.935,0,0,1-4.779,29.524,65.909,65.909,0,0,1-4.644,9.363c-.325.5-.539,1.064-1.109,1.352a50.571,50.571,0,0,0,3.08-18.535,76.143,76.143,0,0,0-7.575-31.321c-2.787-5.805-7.776-9.856-12.794-13.722a51.707,51.707,0,0,0-11.83-6.611" transform="translate(-3855.702 -1826.245)" fill="#82c8f4"/>
              <path id="Trazado_1051993" data-name="Trazado 1051993" d="M3023.941,757.158c.455-3.248.013-6.514.2-9.767a133.944,133.944,0,0,1,17.309-.926c11.67.154,22.684,2.834,32.7,8.824,10.959,6.556,16.97,16.358,18.317,29.153,1.111,10.551-2.078,19.711-8.074,28.143-.093-2.566,1.14-4.754,2.158-6.948,5.852-12.611,2.968-24.142-4.28-35.1a42.828,42.828,0,0,0-16.25-14.214c-2.06-1.083-3.941-1.781-6.46-.475a18.873,18.873,0,0,1-10.118,1.7c-1.269-.094-.373-1.182-.637-1.874-2.092,1.915-3.862.113-4.558-1.06-2.157-3.642-5.2-2.935-8.18-2.144-4.226,1.12-8.415,2.463-11.962,5.2a.349.349,0,0,1-.213-.309q0-.2.057-.2" transform="translate(-2793.408 -689.561)" fill="#82c7f4"/>
              <path id="Trazado_1051994" data-name="Trazado 1051994" d="M1935.165,3708.957c1.816.025,3.052-1.435,4.693-1.837,4.594-1.125,8.671-3.568,13.114-5.124,4.408-1.542,8.945-1.947,13.435-2.8a.928.928,0,0,1,1.077.4c-.922.82-2.121.434-3.131.636-8.848,1.772-16.841,5.649-24.637,9.973-10.626,5.895-19.741,13.815-28.947,21.64-6.878,5.848-13.778,11.714-21.707,16.19-.8.452-1.946.344-2.422,1.359a101.292,101.292,0,0,1-10.47-.593c2.633.507,4.364-1.272,6.284-2.519,6.328-4.111,12.521-8.417,18.535-12.979.362-.275.721-.522.763-1.021.061-1.094.912-1.6,1.638-2.2,1.8-1.482,3.826-2.653,5.575-4.2a279.32,279.32,0,0,1,22.99-16c.954-.574,1.861-1.59,3.208-.943" transform="translate(-1733.172 -3417.217)" fill="#2a3272"/>
              <path id="Trazado_1051995" data-name="Trazado 1051995" d="M313.089,3908.561c-.14,4.482-.362,8.968.553,13.408-10.806-3.22-21.273-7.4-31.853-11.257a14.189,14.189,0,0,1-4.655-2.558c-1.18-1.044-1.057-1.76.331-2.474,3.22-1.656,6.741-2.194,10.231-2.851.644-.121,1.353.028,1.864-.538a1.1,1.1,0,0,1,.868.037c4.673,3.039,10.2,2.833,15.355,4.048,1.655.39,3.344.674,5.029.944a3.239,3.239,0,0,1,2.276,1.24" transform="translate(-255.268 -3604.801)" fill="#62b1f2"/>
              <path id="Trazado_1051996" data-name="Trazado 1051996" d="M444.4,3854.578c-5.772-1.025-11.533-2.12-17.322-3.042a12.017,12.017,0,0,1-6.206-3.229c-.639-1.4-1.968-2.367-2.4-3.894,1.108-1.009,2.258-.184,3.368-.035a80.066,80.066,0,0,0,20.036-.32c1.566-.184,3.66-1.033,4.241,1.637l-1.72,8.882" transform="translate(-386.583 -3550.818)" fill="#f4a52c"/>
              <path id="Trazado_1051997" data-name="Trazado 1051997" d="M3636.663,4087.619a159.967,159.967,0,0,1,17.482,2.667c1.216.265,2.393.72,3.589,1.087-6.554,2.671-13.421,4.278-20.272,5.938l-1.51.367c.664-3.323.466-6.707.712-10.059" transform="translate(-3358.823 -3776.068)" fill="#61b1f3"/>
              <path id="Trazado_1051998" data-name="Trazado 1051998" d="M1475.89,922.683l1.315.462c1.223.351,1.7,1.4,2.147,2.412,3.8,8.678,6.458,17.649,6.8,27.194a3.363,3.363,0,0,1-.24,1.959c-2.043.854-2.62-.749-3.4-2.021-2.335-7.75-4.63-15.515-7.24-23.181a8.213,8.213,0,0,1-.676-3.469c-.1-1.322.879-2.231,1.293-3.356" transform="translate(-1362.186 -852.358)" fill="#385fb2"/>
              <path id="Trazado_1051999" data-name="Trazado 1051999" d="M4085.88,3911.259c4.164-3.585,6-8.521,7.8-13.473a30.952,30.952,0,0,1,8.465,2.62c2.691,1.375,2.726,2.8.035,4.431a56.884,56.884,0,0,1-10.768,4.778,27.313,27.313,0,0,1-5.535,1.645" transform="translate(-3774.46 -3600.703)" fill="#62b1f3"/>
              <path id="Trazado_1052000" data-name="Trazado 1052000" d="M1469.072,966.712c1.829,3.419,2.759,7.176,3.948,10.824,1.721,5.278,3.225,10.627,4.821,15.945-2.187.157-2.971-.6-3.032-2.922a21.249,21.249,0,0,0-2.009-4.443,97.6,97.6,0,0,1-4.028-16.169,4.2,4.2,0,0,1,.3-3.234" transform="translate(-1356.661 -893.031)" fill="#f4d23f"/>
              <path id="Trazado_1052001" data-name="Trazado 1052001" d="M1325.209,1586.162c-1.71,2.221-3.687,4.246-4.975,6.777a3.294,3.294,0,0,1-1.681,2.532c-2.484.25-3.154,2.533-4.292,4.107a36.46,36.46,0,0,0-6.049,13.493,3,3,0,0,1-1.078,2.129c-3.693,1.8-4.435,1.626-6.8-1.756-2.72-3.889-5.093-8.044-8.556-10.958a44.122,44.122,0,0,1,4.263,19.48,12.639,12.639,0,0,1-.532,3.731,42.65,42.65,0,0,1-14.805,27.25,6.516,6.516,0,0,1-2.911,1.566c-4.5-1.41-8.832-3.041-10.555-8.088a116.824,116.824,0,0,1,.055-14.034,7.226,7.226,0,0,0-.1-2,8.4,8.4,0,0,1-.051-1.945c.429-2.824.143-5.443-2.149-7.492a6.623,6.623,0,0,0-4.72-1.611c-12.022,0-24.038.461-36.059.589-4.178.044-8.462-.211-12.635.683a3.639,3.639,0,0,0-1.634.614,16.706,16.706,0,0,0-3.585,4.345,7.19,7.19,0,0,0-.644,3.675c0,5.482.023,10.965-.007,16.448-.016,2.763-.808,3.347-3.566,2.979-3.755-.5-7.532-1-10.952,1.324a7.663,7.663,0,0,0-2.9,2.549c-.558.8-1.131,1.526-2.262,1.339a39.756,39.756,0,0,1-12.691-11.376c-6.054-8.755-9.359-18.824-12.587-27.466.681,3.055,2.817,7.033,3.772,11.4a83.024,83.024,0,0,1,1.653,12.8c.389,6.45.843,12.9,2.411,19.21a30.072,30.072,0,0,0,4.3,9.736c.488.719,1.307,1.467.851,2.388-.5,1-1.662.964-2.59.871-3.46-.347-6.969.376-10.4-.485a4.854,4.854,0,0,1-1.04-1.127c-1.177-2.726-.931-5.659-1.243-8.514-.417-3.823-1.074-7.614-1.554-11.428a5.055,5.055,0,0,0-.22-2.943c.027-2.372-1.06-4.6-.934-6.982a8.658,8.658,0,0,0,.379-4.177c-.61-7.246-.867-14.538-2.39-21.678a109.891,109.891,0,0,0-12.145-32.429c-.27-.467-.484-.931-1.127-.883-.677-.345-1.5-.367-2.089-.93.091-1.317,1.187-1.823,2.052-2.477,6.374-4.819,13.051-9.118,20.645-11.8,1.608-.568,1.883-1.4,1.327-3.041-1.389-4.092-.334-7.558,2.794-10,1.012-.791,2.091-1.464,3.475-.956.183.549.17,1.088.827,1.516a37.243,37.243,0,0,1,6.369,5.141,17.386,17.386,0,0,1-4.254-4.793,6.53,6.53,0,0,0-2.818-2.7c-1.3-2.367-.884-4.763-.01-7.106,1.539-4.124,4.654-6.817,8.381-8.9,5.084-2.837,10.687-3.557,16.359-3.779,2.65-.1,5.353-.424,7.981.373a5.546,5.546,0,0,1,2.263,5.849,1.808,1.808,0,0,1-.421.636c-1.268.856-2.718.6-4.111.629-4.3.077-8.639-.368-12.824,1.034-2.408.807-4.85,1.608-5.833,4.341-.694,2.025.037,3.862.76,5.7.456,1.156,1.308,2.108,1.719,3.289a6.435,6.435,0,0,0,2.7,4.667c7.694,6.216,15.113,12.781,23.341,18.319,1.218.819,2.578,1.678,2.051,3.561a9.245,9.245,0,0,1-1.105,1.615,3.453,3.453,0,0,0,.388,4.421c.6.713,1.478,1.228,1.613,2.273a1.37,1.37,0,0,1-1.852,1.373c-2.519-.794-5.169-.411-7.7-1.092a27.538,27.538,0,0,1-7.27-3.275,5.353,5.353,0,0,0-3.091-1.106,60.141,60.141,0,0,1-13.927-8.272c3.925,3,7.076,6.168,10.6,8.908a52.381,52.381,0,0,0,23.939,10.137,4.884,4.884,0,0,1,2.329.655c1.385,1.848,1.486,4.027,1.326,6.161a17.4,17.4,0,0,1-5.324,11.684,3.47,3.47,0,0,0-1.3,1.955,18,18,0,0,0,7.415-14.089c.09-1.6-.374-3.289.687-4.757a3.692,3.692,0,0,1,2.97-.608,99.477,99.477,0,0,0,12.67.738c.943-.025,1.967-.181,2.677.721.8,1.694.391,3.5.447,5.265a19.354,19.354,0,0,0,4.371,12.122,7.508,7.508,0,0,0,1.064,1.135.678.678,0,0,0,.739.091c.218-.831-.538-1.223-.951-1.738a19.434,19.434,0,0,1-4.107-15.868,3.26,3.26,0,0,1,.964-2.187c7.432.313,13.784-2.868,20.1-6.193a71.874,71.874,0,0,0,18.473-13.788,24.584,24.584,0,0,0,4.482-5.929,20.731,20.731,0,0,0-5.59,2.2c-4.1,2.268-8.008,4.826-11.886,7.44a7.945,7.945,0,0,1-2.947,1.521c-1.5,0-2.629.929-3.807,1.616a55.914,55.914,0,0,1-9.316,3.932,2.545,2.545,0,0,1-3.333-.856,3.121,3.121,0,0,1-.391-1.245c-.176-1.6-.875-2.685-2.665-2.437a2.642,2.642,0,0,0-2.451,3.067,7.464,7.464,0,0,1-.007,1.536,3.608,3.608,0,0,1-2.978,3.619,6.269,6.269,0,0,0-1.628.693c-5.382,3.259-10.854,2.6-16.386.451a8.58,8.58,0,0,1-2.628-1.6,2.679,2.679,0,0,1-.636-3.219,27.716,27.716,0,0,0,1.018-3.806,2.671,2.671,0,0,1,2.426-1.848c2.537.567,4.376,2.37,6.453,3.734,2.462,1.616,2.762,1.689,5.08-.009,2.441-1.788,4.791-3.689,7.074-5.673a9.971,9.971,0,0,1,.987-.779c1.072-.835,1.976-1.912,3.338-2.333,2.185-.726,3.724-2.416,5.42-3.808,4.521-3.71,9.746-6.448,14.2-10.191,2.954-2.485,6.4-4.611,8.219-8.275.644-1,1.445-1.875,2.129-2.841,3.3-4.668,1.723-9.778-3.671-11.753-3.181-1.165-6.558-.969-9.857-1.282-1.394-.132-2.81.01-4.214-.049a3.111,3.111,0,0,1-2.626-.919c-.684-1.287-.189-2.635-.213-3.957a1.306,1.306,0,0,1,.68-.984c9.442-.627,18.685-.269,26.808,5.5a6.8,6.8,0,0,1,2.54,2.728c2.848,5.532,2.314,10.734-1.653,15.511a80.949,80.949,0,0,1-18.386,16.024c-2.459,1.6-4.907,3.216-7.385,4.786,6.6-4.124,12.985-8.576,19.315-13.1a91.636,91.636,0,0,0,8.873-7.424c.79-.732,1.476-1.749,2.816-1.437,4.682-.156,7.565,3.379,6.461,8.01-.314,1.316-.438,2.24,1.279,2.626,9.211,2.074,16.9,7.1,24.306,12.663a49.889,49.889,0,0,1,8.656,8.606" transform="translate(-1051.616 -1414.155)" fill="#fec53d"/>
              <path id="Trazado_1052002" data-name="Trazado 1052002" d="M1885.967,643.533a61.5,61.5,0,0,1-4.642,16.668c-4.477,7.329-10.709,12.439-19.085,14.6-11.34,2.921-22.729-2.4-28.946-11.532a7.9,7.9,0,0,0-2.692-3.288c-3.14-4-4.532-8.72-5.49-13.6-.141-.719-.259-1.444-.439-2.157-.183-1.523-.741-2.976-.867-4.511-.15-2.533-.96-4.948-1.341-7.438.338-3.023-.735-5.86-1.2-8.771-.914-5.666-1.687-11.321-.731-17.061a11.1,11.1,0,0,1,.319-1.527c.659-2.091,1.739-2.614,3.7-1.667a35.553,35.553,0,0,0,4.488,1.966,9.194,9.194,0,0,0,10.547-3.206,26.136,26.136,0,0,0,3.631-6.87c1.051-2.654,1.792-3.106,4.6-2.453a14.7,14.7,0,0,0,13.851-3.553c.708-.63,1.45-1.572,2.481-1.176,1.2.46,1.244,1.746,1.329,2.858a7.634,7.634,0,0,1-1.15,4.685,11.081,11.081,0,0,1-5,4.287c-.825.378-2.241.276-2.285,1.429-.05,1.286,1.136,2,2.188,2.59a8.959,8.959,0,0,0,6.932.473,18.4,18.4,0,0,0,11.242-7.852,12.145,12.145,0,0,1,2-2.665c.882-.778,1.593-.705,1.994.5a1.446,1.446,0,0,1,.11.431c.036,4.415,2.337,7.164,6.3,8.8,1.182.487,1.584,1.653,1.792,2.9.679,4.085.074,8.145-.3,12.189-.136,1.469-.126,2.96-.373,4.424-.448,3.933-1.055,7.849-1.151,11.815-.545,2.915-.121,6.035-1.819,8.71" transform="translate(-1681.367 -543.055)" fill="#febd84"/>
              <path id="Trazado_1052003" data-name="Trazado 1052003" d="M1661.958,348a45.305,45.305,0,0,1,1.094-8.674c1.208-9.266,3.684-18.3,5.012-27.545-.724,4.9-1.687,9.756-2.75,14.592-.114.521.139,1.52-1.031,1.157-.028-.009-.04-.117-.034-.177a1.107,1.107,0,0,1,.064-.213c.353-5.483,1.125-10.951.5-16.469-.107-.941-.15-1.752-1.244-2.074-4.963-1.462-6.9-5.025-6.871-9.949a6.121,6.121,0,0,0-.189-.914c-1.023,1.548-1.836,2.913-2.779,4.181a19.191,19.191,0,0,1-14.043,8.1,7.72,7.72,0,0,1-7.776-3.758c-.756-1.193-.882-1.9.911-2.137a9.146,9.146,0,0,0,5.922-3.26c2.056-2.427,2.429-5.141,1.393-8.3-1.045.906-1.939,1.773-2.925,2.519a15.13,15.13,0,0,1-14.511,2.6c-1.432-.467-1.959-.216-2.37,1.183a23.29,23.29,0,0,1-3.662,7.589c-3.414,4.514-7.482,5.724-12.756,3.75a25.581,25.581,0,0,1-3.217-1.527c-2.665-1.449-2.766-1.433-3.29,1.7-1.1,6.571-.109,13.037,1.033,19.5a25.957,25.957,0,0,1,.7,6.626c-1.475.1-1.534-1.194-1.867-2.052-2.381-6.127-4.073-12.475-5.872-18.786a18.377,18.377,0,0,1-.643-2.356c2.457,10.568,6.544,20.618,9.756,30.946a12.38,12.38,0,0,1,.772,4.412,6.324,6.324,0,0,1-2.823,4.7,1.863,1.863,0,0,1-2.244.224,5.145,5.145,0,0,1-1.241-2.56c-3.936-12.427-7.523-24.955-10.934-37.534-.423-1.559-.708-3.2-2.143-4.258.713-3.544-.634-6.246-3.222-8.636-1.565-1.445-1.367-3.477.208-5.869a5.172,5.172,0,0,1,3.649-2.612,8.217,8.217,0,0,1,2.749,1.387c1.917,1.056,2.2,1,3.091-1.106a32.5,32.5,0,0,1,10.688-13.633,46.659,46.659,0,0,1,23.214-10.127,54.155,54.155,0,0,1,28.08,2.822,44.167,44.167,0,0,1,11.909,7.322,60.133,60.133,0,0,1,8.224,10.154c.751,1.092,1.28,2.049,2.564.526a1.612,1.612,0,0,1,2.389-.212,4.485,4.485,0,0,1,.9,3.124c.048,1.4-.037,2.813.05,4.215.191,3.117,1.238,5.759,4.131,7.387.831.468,1.82,1.009,1.406,2.2s-1.544,1.236-2.6,1.249a4.863,4.863,0,0,1-2.545-.679c-1.395-.818-1.859-.108-2.011,1.173-2.378,12.682-4.58,25.391-6.682,38.117-.171,1.033-.052,2.079-.207,3.105-.2,1.3-.12,2.7-1.232,3.7-2.232-.963-3.427-2.93-4.686-4.836" transform="translate(-1457.357 -247.524)" fill="#201f51"/>
              <path id="Trazado_1052004" data-name="Trazado 1052004" d="M2776.367,793.154c1.409,0,2.431,1.025,3.7,1.4a2,2,0,0,1,.922,2.389q-2.86,15.069-5.59,30.163a60.053,60.053,0,0,0-.889,6.155,3.456,3.456,0,0,1-2.957,3.541,17.92,17.92,0,0,0-2.277.827c-1.136-1.264-.892-2.788-.674-4.234,1.914-12.736,4.151-25.415,6.853-38.01a4.6,4.6,0,0,1,.911-2.229" transform="translate(-2557.414 -732.701)" fill="#3659ac"/>
              <path id="Trazado_1052005" data-name="Trazado 1052005" d="M4197.739,2745.374c1.987-2.163.468-4.063.5-5.857.028-1.36-.973-3.2.191-3.966,1.284-.842,3.088-.114,4.589.621,5.178,2.533,5.346,3.377,1.355,7.369a15.04,15.04,0,0,1-5.912,4.107c-1.475.488-2.694,1.782-3.994,2.76a2.5,2.5,0,0,1-3.259.03c-2.076-1.417-3.628-3.248-3.4-5.811a9.261,9.261,0,0,1,4.986-7.683,1.51,1.51,0,0,1,.207-.082c2.938-1.06,3.752-2.168,3.694,2.393-.023,1.882.617,3.772,1.038,6.119" transform="translate(-3868.605 -2526.703)" fill="#93cdf8"/>
              <path id="Trazado_1052006" data-name="Trazado 1052006" d="M1993.058,1539.666c1.828,1.835,3.546,3.8,5.5,5.483,10.4,8.963,25.157,8.557,35.42-.983,2.437-2.265,4.648-4.773,6.963-7.17a.386.386,0,0,0,0,.369q-.1.471-.2.945c-2.453,9.729-13.426,18.55-23.427,18.709-2.029.032-4.163.8-6.109-.466-6.532-1.631-11.234-5.786-15.156-11.011-.844-1.124-1.622-2.3-2.445-3.436a2.3,2.3,0,0,1-.555-2.439" transform="translate(-1840.986 -1419.849)" fill="#1a1749"/>
              <path id="Trazado_1052007" data-name="Trazado 1052007" d="M2755.547,787.513a4.943,4.943,0,0,1-.136,2.829c-2.522,12.122-4.8,24.289-6.576,36.544-.245,1.682-.257,3.4-.378,5.1-.808.477-1.595,1.079-2.577.39.8-11.972,3.583-23.637,5.494-35.437.452-2.787.955-5.566,1.454-8.345.1-.556-.015-1.231.669-1.545l2.049.465" transform="translate(-2536.593 -727.061)" fill="#f9d444"/>
              <path id="Trazado_1052008" data-name="Trazado 1052008" d="M2928.617,885.736q.079.256.157.513c-.111,1.741,1.731,2.95,1.3,4.777-.467,3.616-1.839,7.006-2.635,10.543-.9,3.982-1.976,7.924-2.658,11.953a3.966,3.966,0,0,1-.942,2.21,6.255,6.255,0,0,1-2.15,1.373c-1.083-.768-.917-1.941-.963-3.032-.252-6.048,1.051-11.914,2.122-17.8a50.072,50.072,0,0,1,2.038-8.382c.41-1.114.768-2.544,2.541-2.191a1.021,1.021,0,0,0,1.188.04" transform="translate(-2698.085 -818.139)" fill="#395cad"/>
              <path id="Trazado_1052009" data-name="Trazado 1052009" d="M2653.567,1664.166c-4.115,3.5-8.017,7.244-12.449,10.387-6.424,4.556-13.122,8.669-19.834,12.767-.228.139-.492.38-.885.009.961-1.251,2.434-1.859,3.677-2.671a129.637,129.637,0,0,0,21.338-17.046c4.693-4.726,6.917-9.9,4.715-16.476a6.086,6.086,0,0,1-.142-1.325,13.072,13.072,0,0,1,3.78,11.294,7.175,7.175,0,0,0-.2,3.063" transform="translate(-2420.676 -1524.064)" fill="#eea12e"/>
              <path id="Trazado_1052010" data-name="Trazado 1052010" d="M3169.157,1482.31c-3.786-.01-4.675-.566-5.274-3.02-.448-1.836,1.254-5.256,2.952-6.247.751-.438,1.071.249,1.615.307a6.148,6.148,0,0,1,4.545,3.2c1.876,2.973,1.081,4.8-2.31,5.545a13.926,13.926,0,0,1-1.529.21" transform="translate(-2922.669 -1360.636)" fill="#92cefa"/>
              <path id="Trazado_1052011" data-name="Trazado 1052011" d="M2891.482,836.26c-1.3.5-1.51,1.753-1.863,2.842a78.276,78.276,0,0,0-3.876,28.568l-3.96,2.777c1.144-5.9,2.245-11.324,3.237-16.765,1.275-7,2.569-13.987,4.165-20.918l.424-.636c-.242,1.769.718,3,1.873,4.133" transform="translate(-2662.138 -768.704)" fill="#222b70"/>
              <path id="Trazado_1052012" data-name="Trazado 1052012" d="M3809.906,2408.77c-1.207.06-2.211-.158-2.722-1.437a4.575,4.575,0,0,1,.663-4.8c2.082-2.587,7.24-2.013,8.838.886a1.568,1.568,0,0,1-.243,2.03,9.757,9.757,0,0,1-6.536,3.319" transform="translate(-3516.644 -2217.894)" fill="#95d0fb"/>
              <path id="Trazado_1052013" data-name="Trazado 1052013" d="M2961.35,981c-.3-3.019.805-5.818,1.435-8.678a128.276,128.276,0,0,1,3.589-13.69,5.683,5.683,0,0,1,1.211-2.338c.8,1.9.2,3.816.033,5.71a56.4,56.4,0,0,1-3.889,16.6c-.471,1.152-1.044,2.133-2.379,2.394" transform="translate(-2735.595 -883.41)" fill="#f1d043"/>
              <path id="Trazado_1052014" data-name="Trazado 1052014" d="M3010.485,1323.559c1.982-1.984,1.736-4.436,1.638-6.847-.043-1.066.735-1.34,1.5-1.659,2.8-1.172,5.623-2.311,8.4-3.544,1.315-.584,1.813-.251,1.663,1.138-.2,1.889-.428,3.776-.659,5.792-.853-.3-.885-.9-1.024-1.43-.754-2.869-.753-2.871-3.421-1.9-.7.254-1.375.566-2.084.773-1.863.545-2.922,1.568-2.583,3.692.385,2.416-1.765,2.966-3.427,3.986" transform="translate(-2781.031 -1211.294)" fill="#cff2fa"/>
              <path id="Trazado_1052015" data-name="Trazado 1052015" d="M4202.164,2252.725c-1.687.077-2.345-.877-2.265-1.93a2.651,2.651,0,0,1,2.784-2.382c1.291-.01,2.778.962,2.659,2.209-.167,1.742-2.16,1.653-3.179,2.1" transform="translate(-3879.784 -2077.043)" fill="#98d0fa"/>
              <path id="Trazado_1052016" data-name="Trazado 1052016" d="M1707.127,3646.632c-6.86-5.31-13.667-10.691-21.034-15.3-2.449-1.886-2.4-2.481.525-3.649a48.4,48.4,0,0,0,8.556-4.273c3.876-2.521,8.407-2.116,12.719-2.639a2.819,2.819,0,0,1,2.277,1.231,8.272,8.272,0,0,0,4.217,3.708c4.127,1.153,8.141,2.7,12.4,3.343a46.545,46.545,0,0,0,21.872-2.2c1.569-.52,3.175-.628,4.727-1.077.886-.132,1.913-.365,2.405.581.471.9-.213,1.722-.777,2.394a39.564,39.564,0,0,1-10.591,9.112c-7.057,4.028-14.365,7.49-22.652,8.185a9.611,9.611,0,0,1-2.661,0c-3.138-.614-6.339-.779-9.48-1.312-1.791-.3-2.579.055-2.507,1.9" transform="translate(-1555.957 -3344.787)" fill="#f3a630"/>
              <path id="Trazado_1052017" data-name="Trazado 1052017" d="M1966.666,3652.986a1.163,1.163,0,0,1-.057-.215c-.074-.961-1.909-1.363-1.129-2.324.7-.862,2.086-.395,3.177-.243,3.8.527,7.594,1.5,11.388,1.495a32.913,32.913,0,0,0,12.493-2.78c5.541-2.308,11.027-4.778,15.677-8.7a34.426,34.426,0,0,0,6.855-7.167c-.693-.654-1.375-.3-2-.354-2.014.222-4.028.4-6.029.782a4.324,4.324,0,0,1-3.572-.561c-.616-1.153.42-1.189,1.026-1.415a6.8,6.8,0,0,1,2.416-.2c3.989-.009,7.98-.084,11.967.021a10.725,10.725,0,0,0,8.609-3.252,3.1,3.1,0,0,1,2.346-.378,29.534,29.534,0,0,1,8.456,2.614,2.384,2.384,0,0,1,1.662,1.917,101.565,101.565,0,0,0-20.224,9.219c-.763.45-1.493.955-2.239,1.435a152.3,152.3,0,0,0-16.616,10.824c-3.083,2.2-5.995,4.638-9.26,6.58a38.48,38.48,0,0,1-15.889-.443q-3.664-2.8-7.329-5.6c-.566-.431-1.152-.835-1.729-1.252" transform="translate(-1815.496 -3351.141)" fill="#ed992f"/>
              <path id="Trazado_1052018" data-name="Trazado 1052018" d="M1383.566,2667.929h12.758c-6.4-7.929-7.358-17.146-7.878-26.414a103.859,103.859,0,0,0-4.9-27.677,14.376,14.376,0,0,1-.7-3.431c1.888,5.367,4.932,10.2,6.848,15.543,3.471,9.679,9.105,17.769,17.742,23.574a4.427,4.427,0,0,1,1.586,1.519.988.988,0,0,1,.036,1.224c-1.1,1.63-2.2,3.26-3.244,4.932a1.336,1.336,0,0,1-1.3.65c-1.325-.692-1.9-2.045-2.726-3.164a91.057,91.057,0,0,1-6.952-10.612,7.427,7.427,0,0,0-1.871-2.181,34.2,34.2,0,0,0,4.4,14.01c1.369,2.379,3.02,4.583,4.273,7.031-.207,2.616-2.3,3.994-3.873,5.645-1.1,1.157-2.379,2.179-3.542,3.3a2.791,2.791,0,0,1-1.8.8,1.525,1.525,0,0,1-1.085-.711c-.381-.6.025-1.658-.863-1.889-.825-.214-1.281.61-1.765,1.127-3.239,3.465-5.834,7.226-5.848,12.261,0,1.2-.044,2.586-1.577,3.1l-1.869-.647c.958-2.186.341-4.592.958-6.825-.656-2.348.73-4.138,1.688-6.025.711-1.4,1.987-2.375,2.943-3.55-.2-.842-1.778-.33-1.432-1.6" transform="translate(-1274.273 -2411.446)" fill="#f3a42f"/>
              <path id="Trazado_1052019" data-name="Trazado 1052019" d="M1528.757,3413.344l1.342-.855a1.925,1.925,0,0,1,.51,1.84c-.37,4.422.875,8.535,2.5,12.544,1.7,4.208,3.935,5.2,8.284,3.859a39.482,39.482,0,0,0,6.6-3.2c2.024-1.064,3.894-1.688,6.31-.627,2.023.889,4.37-.214,6.584-.27.735-.018,1.469-.214,2.214-.182,1.634.069,2.541.751,2.115,2.542a1.526,1.526,0,0,1-.692,1.244c-1.8-2.437-4.138-.626-6.181-.647a18.194,18.194,0,0,0-10.905,3.813c-1.647,1.178-3.765,1.7-5.679,2.5-2.583,1.075-2.587,1.066-1.005,3.034l-9.767-5.539c-3.9-5.559-4.282-11.865-3.839-18.327.06-.877.369-1.812,1.61-1.728" transform="translate(-1410.615 -3152.395)" fill="#f69b6c"/>
              <path id="Trazado_1052020" data-name="Trazado 1052020" d="M1403.922,3394.37c1.4-2.117.639-4.63,1.271-6.913,1.178-4.255,4.036-7.326,6.9-10.421a1.271,1.271,0,0,1,1.82-.094,2.069,2.069,0,0,1,.256,2.825,6.562,6.562,0,0,1-.835,2.273,18.093,18.093,0,0,0-.311,12.808c.357,1.074,1.031,2.2.265,3.391l-9.364-3.87" transform="translate(-1296.917 -3119.244)" fill="#fdc33d"/>
              <path id="Trazado_1052021" data-name="Trazado 1052021" d="M1500.276,3436.589c-1.384-4.144-2.878-8.251-1.84-12.771a10.72,10.72,0,0,1,2.72-5.7l.892.426c-.95.526-.859,1.44-.9,2.327-.241,5.884.364,11.6,3.226,16.9.108.2-.061.551-.1.832l-4-2.008" transform="translate(-1383.907 -3157.593)" fill="#ea744b"/>
              <path id="Trazado_1052022" data-name="Trazado 1052022" d="M2102.214,4045.331c1.437-.951,2.854.084,4.286.056,3.008-.058,6.019-.013,9.028-.015a4.92,4.92,0,0,1,2.576.4c-2.258,2.3-5.076,3.885-7.536,5.925a88.348,88.348,0,0,1-8.354-6.369" transform="translate(-1941.986 -3736.63)" fill="#e17f25"/>
              <path id="Trazado_1052023" data-name="Trazado 1052023" d="M2523.459,3104.356c-3.661-2.462-7.825-3.405-12.1-4.006a2.565,2.565,0,0,1-2.556.094,72.2,72.2,0,0,1-12.326-5.15,7.166,7.166,0,0,1-3.751-3.937c-.4-1.242-.646-2.507.862-3.275a57.17,57.17,0,0,0,10.669,2.854,75.949,75.949,0,0,0,16.389.387,5.419,5.419,0,0,0,3.572-1.483.693.693,0,0,0-.871-.246c-3.5,2.643-7.6,2.052-11.516,1.955a58.112,58.112,0,0,1-12.977-1.669c-1.868-.477-3.469-1.7-5.445-1.818-2.114-.155-3.3-1.579-4.172-3.25a3.594,3.594,0,0,1,.254-4.183c1.082-1.313,2.477-1.083,3.874-.62a12.007,12.007,0,0,0,6.415,1.484c6.755.049,13.486-.4,20-2.414A11.758,11.758,0,0,0,2525,3076.3c-2.818.969-5.213,1.927-7.665,2.707-6.931,2.2-13.971,3.261-21.244,1.985a13.722,13.722,0,0,1-2.905-1.031c-1.958-.459-2.6-1.853-2.473-3.668a4.529,4.529,0,0,1,3.965-3.945c2.579-.262,5.175-.416,7.764-.565a60.251,60.251,0,0,0,9.644-1.6,2.679,2.679,0,0,0,2.432-3.1c-.085-2.671-.046-5.347-.006-8.021.015-1.027-.066-2.11.887-2.859a4.925,4.925,0,0,0,3.189,3.311c2.331,1.019,3.959,3.346,6.688,3.666a3.829,3.829,0,0,1,2.983,1.2,31.728,31.728,0,0,1,7.578,8.305,24.039,24.039,0,0,0,8.262,7.8c4.052,4.427,4.9,9.692,3.864,15.368-.343,1.879-1.34,3.7.433,5.368-8.516-.58-16.751,1.074-24.935,3.133" transform="translate(-2299.002 -2823.27)" fill="#fdbe87"/>
              <path id="Trazado_1052024" data-name="Trazado 1052024" d="M2986.981,2815.572c-4.859-1.723-7.124-6.077-9.954-9.846a31.125,31.125,0,0,0-8.3-7.678c9.8-7.031,15.022-16.778,16.929-28.495,1.44-.9,2.223.07,2.878,1.1a10.049,10.049,0,0,1,1.112,3.817c1.192,6.844.876,13.752.9,20.645.005,1.187-.073,2.379.047,3.56.136,1.342.416,2.654,1.82,3.321,1.053,1.269.827,2.778.637,4.2-.271,2.032-.291,4.086-.652,6.11a2.5,2.5,0,0,0,.625,2.633,15.3,15.3,0,0,0,1.255,1.3c4.913,5.382,4.864,11.972,4.481,18.619a2.228,2.228,0,0,1-1.6,2.19,2.958,2.958,0,0,1-1.707-.455c-.626-.689-.456-1.53-.438-2.338a51.985,51.985,0,0,0-.042-7.358c-.624-5.157-2.652-9.446-8-11.33" transform="translate(-2742.458 -2558.132)" fill="#ec962f"/>
              <path id="Trazado_1052025" data-name="Trazado 1052025" d="M3285.554,3369.735l-.867-.7c1.63-1.546,3.253-.842,4.876.014l2.666,1.112c3.728,2.94,4.887,7.1,5.489,11.531a2.224,2.224,0,0,1-.517,1.869c.209,3.282-.4,6.525-.46,9.8l-4.04-1.861c-.343-5.412-.812-10.8-2.939-15.883-.952-2.277-2.083-4.438-4.208-5.882" transform="translate(-3034.333 -3111.412)" fill="#fde366"/>
              <path id="Trazado_1052026" data-name="Trazado 1052026" d="M3208.176,3376.775c3.309-.5,5.019,1.643,6.472,4.04,3.24,5.341,2.779,11.153,2,16.986a11.57,11.57,0,0,1-3.606-.512,1.432,1.432,0,0,0-1.207-.444c-1.232-.022-1.523-.5-1.054-1.692,2.592-6.6,1.779-12.75-2.609-18.377" transform="translate(-2963.654 -3119.334)" fill="#fec33f"/>
              <path id="Trazado_1052027" data-name="Trazado 1052027" d="M3296.056,3389.241c3.467,1.531,4.572,4.848,5.809,7.957,1.541,3.872,1.517,8.081,2.2,12.14a1.711,1.711,0,0,1-.86,1.668l-3.661-1.166c1.2-1.941,1.079-4.111.958-6.234-.293-5.144-.462-10.352-4.444-14.365" transform="translate(-3044.836 -3130.918)" fill="#f8be3c"/>
              <path id="Trazado_1052028" data-name="Trazado 1052028" d="M175.719,888.361c2.555-.662,3.284-3.081,4.676-4.86.485,1.938.983,3.872,1.451,5.813a28.329,28.329,0,0,0,4.568,9.812.651.651,0,0,1-.109.867c-7.041-.04-14.1-.2-20.846,2.34a19.265,19.265,0,0,0-10.279,8.071,10.319,10.319,0,0,0-.933,8.768c.174.521-.081.819-.528,1.017-5.03.561-7.816,5.824-5.673,10.714,1.119,2.553,1.121,2.559-1.539,3.521a77.715,77.715,0,0,0-23.154,13.79,3.38,3.38,0,0,1-2.657,2.251c-2.878,2.208-4.777,5.255-6.838,8.138-8.614,12.052-15.932,24.908-23.293,37.737-4.654,8.11-9.406,16.165-14.114,24.245-2.817-.9-4.958-2.9-7.241-4.607a110.413,110.413,0,0,1-14.15-12.186c-5.786-6.1-11.2-12.5-14.482-20.381a9.7,9.7,0,0,1-.827-5.39c.374-2.348-.191-4.731-.251-7.087A59.625,59.625,0,0,1,43.21,947.8c3.966-10.325,9.981-19.293,17.23-27.608a92.478,92.478,0,0,1,27.513-21.573,168.037,168.037,0,0,1,28.164-11.1c7.24-2.211,14.479-4.441,21.986-5.565,5.486-.822,10.934-1.981,16.514-2.071.877,1.112,1.3,2.7,3.032,2.921A5.306,5.306,0,0,0,159.9,884.9c.977-.345,1.831.289,2.969.542-3.729-9.291-4.828-19.094-8.41-28.177a13.839,13.839,0,0,1-1.129-6.447c-.059-.729-.662-1.36-.389-2.149.482-1.33,1.322-2.049,2.818-1.654,1.466.968,1.612,2.608,1.986,4.088,2.47,9.792,5.062,19.551,7.892,29.246.062.214.106.433.168.647,1.651,5.724,1.651,5.724,7.545,7a6.492,6.492,0,0,1,2.367.362" transform="translate(-36.469 -782.361)" fill="#63b2f2"/>
              <path id="Trazado_1052029" data-name="Trazado 1052029" d="M914.958,2795.7c.686.762.314,1.713.462,2.571a3.384,3.384,0,0,0-1.692,2.442c-1.656,5.979-4.053,11.74-5.3,17.842a4.188,4.188,0,0,1-.856,1.787c-1.422,1.085-3.026.8-4.616.623a13.167,13.167,0,0,1-4.586-2.632c-5.018-3.827-9.535-8.243-14.423-12.223a23.364,23.364,0,0,1-3.843-4.592l-4.04-4.456c.6-1.6,1.213-.317,1.644.069,2.647,2.367,4.974,5.127,8,7.03,3.856,2.426,6.978,5.745,10.628,8.407a4.109,4.109,0,0,0,6.315-2.145c1.036-3.249,1.2-6.655,1.75-9.35-.172,1.291-1.449,1.979-3.182,2.025a9.611,9.611,0,0,1-6.144-2.277c-4.775-3.644-8.3-8.411-11.79-13.2a9.226,9.226,0,0,0-1.389-1.725c-1.855-2.125-2.858-4.744-4.165-7.219,4.631,4.551,8.276,10.032,13.55,13.925,3.151.4,4.781-1.949,6.6-3.8.768-.779.053-1.842-.363-2.7-1.4-2.874-2.617-5.827-3.957-8.727-.4-.867-.9-1.864-.025-2.681.767-.714,1.7-.242,2.527.051,2.033.717,3.981,1.647,5.973,2.468,2.1.864,4.021.962,5.737-.81a1.892,1.892,0,0,1,2.013-.644c1.121.645,1.21,1.788,1.39,2.886.877,5.335,2.229,10.575,3.2,15.892a1.65,1.65,0,0,0,.587,1.164" transform="translate(-809.288 -2562.862)" fill="#e9902b"/>
              <path id="Trazado_1052030" data-name="Trazado 1052030" d="M563.164,3131.2c4.528,4,9.022,8.046,13.6,12a54.52,54.52,0,0,0,8.749,6.695,4.233,4.233,0,0,1-5.353.083,108.438,108.438,0,0,0-36.306,5.26c-2.794.942-5.732,1.459-8.608,2.153-.725.175-1.547.358-2.059-.349-.551-.761.129-1.421.472-2.023a26.5,26.5,0,0,1,11.672-10.557c5.886-2.96,12.128-4.781,18.427-6.476,1.6-.43,1.84-1.15,1.364-2.566-.5-1.484-1.718-2.621-1.954-4.217" transform="translate(-492.352 -2892.543)" fill="#f3a52f"/>
              <path id="Trazado_1052031" data-name="Trazado 1052031" d="M1020.494,2222.24c-.146.029-.361.008-.426.1-2.9,3.952-6.285,2.4-9.68.873-1.422-.639-2.856-1.257-4.312-1.811-.433-.164-1-.62-1.426-.073-.378.488.053.987.265,1.443,1.5,3.225,2.937,6.48,4.545,9.649.834,1.644.781,2.846-.711,4.073a37.271,37.271,0,0,0-3.658,2.846,1.9,1.9,0,0,1-2.9-.559c.663-.714.336-1.494.227-2.306-.883-6.612-3.6-12.646-5.845-18.832-1.152-3.17-.072-4.613,3.178-5.278,4.465-.914,8.477.822,12.581,1.859,2.74.693,3.094.6,3.275-2.36.421-6.864-1.342-13.372-3.069-19.891-.322-1.214-.866-2.376-1.122-3.6-.689-3.3-2.723-5.674-5.144-7.822a4.245,4.245,0,0,1-1.841-3.4,5.426,5.426,0,0,1,2.656-2.251c.676-.151,1.323-.2,1.78.474.773.125,1.063.74,1.356,1.345,3.266,6.766,6.243,13.64,7.923,21a7.172,7.172,0,0,1,.235,1.987c-.329,2.037.331,3.983.753,5.9,1.049,4.763,1.032,9.658,2.011,14.421a2.055,2.055,0,0,1-.649,2.217" transform="translate(-920.2 -2009.043)" fill="#f3a62f"/>
              <path id="Trazado_1052032" data-name="Trazado 1052032" d="M624.713,3355.922l5.354-.082c1.665-.08,3.362.323,4.99-.325.689-.837,1.619-.516,2.491-.543,2.718-.083,5.514.558,8.1-.832l.557.836c.876.95,2.168.042,3.409.9A18.115,18.115,0,0,0,643,3366.148c-3.319-2.078-1.258-4.659-.562-7.372-3.237.892-6.283,1.867-9.392,2.565-13.5,3.031-27.03,5.973-40.683,8.245a23.21,23.21,0,0,1-9.517-.278c-.636-.162-1.5-.159-1.626-.917-.141-.844.673-1.327,1.3-1.619,2.152-1,4.324-1.966,6.546-2.789a127.307,127.307,0,0,1,25.864-6.315,82.468,82.468,0,0,0,9.775-1.746" transform="translate(-536.91 -3098.493)" fill="#fadf61"/>
              <path id="Trazado_1052033" data-name="Trazado 1052033" d="M732.059,2298.187c.135,2.763-1.438,4.846-3.014,6.778-7.551,9.257-14.511,18.961-21.781,28.429a59.7,59.7,0,0,1-5.116,5.286c-.25.253-.546.607-.952.4-.5-.255-.42-.78-.258-1.172a20.981,20.981,0,0,1,1.255-2.611c4.848-8.252,9.619-16.552,14.618-24.711,2.94-4.8,6-9.56,10.029-13.575a6.092,6.092,0,0,1,.97-.918c.978-.611,1.95-1.726,3.176-1.1,1.2.611,1.092,2,1.072,3.2" transform="translate(-647.398 -2119.901)" fill="#fce265"/>
              <path id="Trazado_1052034" data-name="Trazado 1052034" d="M841.218,2926.167c2.446,1,3.295,3.5,4.827,5.318a57.42,57.42,0,0,0,9.2,9.326,8.511,8.511,0,0,0,5.151,1.864c2.26.008,2.982-.812,2.8-3.149a2.243,2.243,0,0,1,.028-.657c.027-.12.17-.212.393-.472,1.136,2.58.521,5.111.207,7.591-.2,1.609-.762,3.171-1.073,4.772-.362,1.863-1.064,3.331-3.307,3.068-1.361-.158-.8,1.088-1.237,1.63-3.693-2.1-6.545-5.167-9.847-7.647a91.588,91.588,0,0,1-11.351-10c-.405-.425-.814-1.235-1.621-.479-.918-.864-1.85-1.712-2.745-2.6-.345-.341-.919-.738-.407-1.291s1.05-.268,1.529.2c2.325,2.288,4.678,4.542,7.1,6.732a33.387,33.387,0,0,0,10.4,6.69,11.308,11.308,0,0,0,5.038.417c.522-.036,1.309-.074,1.485-.74.166-.63-.4-1.071-.812-1.492-3.2-3.3-6.646-6.369-9.521-9.98-2.3-2.887-4.849-5.6-6.231-9.114" transform="translate(-768.615 -2703.139)" fill="#f3a52f"/>
              <path id="Trazado_1052035" data-name="Trazado 1052035" d="M3398.313,2466.806c.789-1.809.26-3.8.776-5.66.192-.7-.451-1.022-1.132-1.035-6.556-.127-9.984-4.594-12.9-9.543-4.095-6.964-3.365-14.38-1.561-21.815,2.112-8.7,6.852-16.017,12.19-23.023,1-1.316,1.657-1.383,2.452.118,5.347,10.1,10.724,20.266,12.8,31.613,1.957,10.725,1.771,21.468-3.885,31.3-2.743,4.767-6.441,8.717-12.15,10.036-.533.124-1.26.555-1.663-.045-.521-.774.331-1.173.746-1.63a28.734,28.734,0,0,0,4.383-6.939,2.44,2.44,0,0,0-.149-2.531.553.553,0,0,1,.094-.841" transform="translate(-3124.283 -2221.448)" fill="#fec53d"/>
              <path id="Trazado_1052036" data-name="Trazado 1052036" d="M3388.61,3404.455c-.264-4.984-2.231-9.336-4.972-13.4,1.055.091,2.106.9,3.164.013a.858.858,0,0,1,1.287-.073,125.509,125.509,0,0,1,23.66,1.857,2.264,2.264,0,0,1,1.7.328,40.382,40.382,0,0,0,7.361,3.078,28.8,28.8,0,0,1,9.047,5.5c.658.561,1.447,1.11,1.159,2.2,1.357,1.559,3.036,2.939,4.018,4.707,3.918,7.059,3.6,14.177-.291,21.182a18.95,18.95,0,0,1-3.538,4.534c-2.532,2.415-4.127,2.728-7.406,1.288a31.274,31.274,0,0,1-8.476-5.651q-11.24-10.258-21.973-21.053c-1.041-1.048-1.935-2.239-2.932-3.332-.493-.54-.968-1.157-1.811-1.178" transform="translate(-3125.742 -3132.302)" fill="#fec53c"/>
              <path id="Trazado_1052037" data-name="Trazado 1052037" d="M3771.743,3400.952c-3.722-4.059-8.429-6.467-13.587-8.13a16.029,16.029,0,0,1-5.681-2.977c.69-1.727,2.377-1.662,3.751-1.89,7.189-1.194,13.913-.3,19.552,4.832,2.935,2.673,4.768,5.83,4.442,9.989-.13,1.66-.021,3.34-.021,5.537-3.064-2.814-4.6-6.462-8.455-7.361" transform="translate(-3466.467 -3129.296)" fill="#ea8320"/>
              <path id="Trazado_1052038" data-name="Trazado 1052038" d="M3294.918,2347.97c.94-.488,1.056-1.608,1.752-2.284.661.636.015,1.057-.261,1.527-5.1,8.636-9.568,17.532-12.388,27.232a87.753,87.753,0,0,0-3.923,22.216c-.063,2.353-.426,4.712-.394,7.085-.247.315-.166.7-.225,1.052-.219,1.332-.7.764-1.181.149-.964-3.029.045-6.033.264-9.019.238-3.24.42-6.5.611-9.732a53.047,53.047,0,0,1,3.349-16.892c2.013-2.427,2.4-5.618,3.863-8.3a52.532,52.532,0,0,1,3.018-5.631c1.817-1.4,2.459-3.621,3.775-5.37.482-.641.743-1.45,1.443-1.926.1-.036.2-.07.3-.1" transform="translate(-3028.053 -2166.903)" fill="#df7b1c"/>
              <path id="Trazado_1052039" data-name="Trazado 1052039" d="M3271.4,3154.77c-1.627.413-3.25-.251-4.876-.015-1.368-.11-1.625-.828-1.45-2.127a73.192,73.192,0,0,0,.967-11.5c-1.179-1.244-.63-2.562-.171-3.878.489-.716.928-1.582,2-.751q1.766,9.133,3.531,18.266" transform="translate(-3016.169 -2897.131)" fill="#62addc"/>
              <path id="Trazado_1052040" data-name="Trazado 1052040" d="M3409.251,3230.688l-1.288.073c-.434-.061-1.034.033-1.269-.216-.427-.453.175-.791.469-1.013a117.225,117.225,0,0,0,13-12.1c.224-.23.485-.34.774-.083q-.046.422-.093.843a79.565,79.565,0,0,1-11.589,12.492" transform="translate(-3146.904 -2971.995)" fill="#de7b1c"/>
              <path id="Trazado_1052041" data-name="Trazado 1052041" d="M3280.121,3109.972c-.751-.32-1,.274-1.323.729-.595-.766-.881-1.473.355-1.9.942-.024.214-1.178.92-1.362q.025,1.265.047,2.529" transform="translate(-3028.423 -2870.599)" fill="#ec962f"/>
              <path id="Trazado_1052042" data-name="Trazado 1052042" d="M1510.92,898.224q3.306,11.522,6.607,23.045a92.268,92.268,0,0,0,4.487,13.1,12.965,12.965,0,0,1-4.522-2.066,78.967,78.967,0,0,0-2.49-16.672,64.688,64.688,0,0,0-5.926-15.084,4.986,4.986,0,0,0,1.844-2.326" transform="translate(-1394.057 -829.763)" fill="#242d72"/>
              <path id="Trazado_1052043" data-name="Trazado 1052043" d="M2078.474,2757.16c-.035,4.011-.148,8.024-.066,12.034a2.233,2.233,0,0,1-2,2.607,65.278,65.278,0,0,1-16.767,2.085c-1.328-.005-2.67-.051-3.792.942-2,1.77-1.779,4.135.608,5.939.179.042.249.109.214.2s-.085.154-.135.154c-1.5-.071-3.191-.274-3.866,1.415-.718,1.8.158,3.321,1.576,4.5.738.614,1.528,1.163,2.295,1.741q.462.14.075.429c-.769,2.591-.206,4.07,2.3,5.763a44,44,0,0,0,8.614,3.985c2.255.9,4.6,1.572,6.9,2.346-1.235,3.129-3.965,3.772-6.839,3.879-4.949.184-9.906.171-14.858.261-.954.017-1.906.13-2.858.2-.681,1.035-1.761.991-2.8,1-6.912.031-13.825.075-20.736-.024-2.128-.031-4.219-.655-6.342-.9a6.387,6.387,0,0,1-4.017-3.648q0-.706.007-1.41c.682-.929,1.735-1.044,2.746-1.289a36.368,36.368,0,0,0,6.2-1.755,3.206,3.206,0,0,0,2.3-2.958,4.457,4.457,0,0,1,.925-2.473,3.089,3.089,0,0,0,.584-2.725,2.383,2.383,0,0,1,1.583-3.021c1.506-.695,2.4-1.7,1.88-3.51a1.9,1.9,0,0,1,1.087-2.216c1.4-.891,2.435-2.074,2.118-3.831-.354-1.96-1.945-2.729-3.675-3.112-3.554-.785-7.191-1.067-10.773-1.683-1.718-.3-3.6-.213-4.938-1.688a3.842,3.842,0,0,1-.281-1.958c.028-2.177.656-2.694,2.728-2.139a32.127,32.127,0,0,0,5.365,1.263,10.026,10.026,0,0,1,1.5.092,7.173,7.173,0,0,0,4.955-.159,10.515,10.515,0,0,0,2.931-1,2.191,2.191,0,0,0,1.251-2.179c-.1-1.016-.986-1.238-1.774-1.4-4.64-.967-9.247-2.082-13.875-3.1-3.025-.664-3.124-.781-3.094-3.776.056-5.774-.154-11.55.111-17.325,2.841-4.157,6.742-5.731,11.794-5.852q16.39-.392,32.779-.355a25.975,25.975,0,0,1,3.117.071c1.743.331,2.064,1.282,1.042,2.656a26.654,26.654,0,0,1-5.533,6c-3.015,2.189-5,5.4-7.508,8.11a120.593,120.593,0,0,0-7.694,9.447c-.833.481-1.684.936-2.556,1.345a7.541,7.541,0,0,0-3.929,7.778,7.879,7.879,0,0,0,7.551,6.354c.3,0,.594,0,.889-.017,3.567-.5,6.244-2.072,7.067-5.873a11.4,11.4,0,0,0,.4-3.891,3.448,3.448,0,0,1,1.61-2.535c7.289-6.161,14.164-12.764,20.949-19.47.8-.795,1.236-2.043,2.518-2.332q.064,8.51.128,17.02" transform="translate(-1862.078 -2524.221)" fill="#263173"/>
              <path id="Trazado_1052044" data-name="Trazado 1052044" d="M1596.909,2765.817c-.027,6.162-.028,12.325-.106,18.487-.015,1.136.593,1.326,1.457,1.507,5.228,1.1,10.455,2.21,15.671,3.369.93.207,2.244-.034,2.456,1.412a3.35,3.35,0,0,1-1.5,3.677,7.041,7.041,0,0,1-3.786,1.139,15.557,15.557,0,0,1-4.975,0l-1.3-.129c-.071-.3.133-.443.335-.586-3.029,0-5.718-1.393-8.583-2.053-2.594-.6-5.28-1.061-7.786.47-.491.3-1.261.515-1.171,1.185.092.687.859.693,1.449.766,2.42.684,4.936.989,7.3,1.886a3.748,3.748,0,0,1,.816.659c4.7.734,9.4,1.46,14.1,2.209a16.445,16.445,0,0,1,2.609.576c1.714.572,3.089,1.54,3.267,3.535a4.264,4.264,0,0,1-2.356,4.44c-.965.511-1.328.8-.744,2.021.732,1.528-.466,3.195-2.609,4-1.072.4-2.344.539-.958,2.042a1.29,1.29,0,0,1,.175.637c.108.671.269,1.551-.262,1.913-2.407,1.64-.572,5.893-4.478,6.743-3.039.662-6.018,1.631-9.118,2.06.348-1.051.232-1.75-1.137-1.616-1.99.195-4,.259-5.969.557-1.689.254-3.293.815-4.738-.739-.56-.6-1.414-.132-2.085.2-2.655,1.319-5.291,2.676-7.96,3.965a12.226,12.226,0,0,1-3.648.929c-3.326.475-5.257-1.374-6.347-4.1-1.983-4.964-3.853-10-2.547-15.531,1.708-2.324,4.3-3.778,5.989-6.137a12.069,12.069,0,0,0,1.588-2.367,1.44,1.44,0,0,1,.391-.474c1.453-1.11,2.2-2.771,3.184-4.225,2.607-3.858,5.209-7.717,8.019-11.432,3.479-3.076,7.642-2.4,11.648-1.891,3.169.4,3.144.634,3.139-2.671-.007-5.712-.029-11.425-.026-17.136,0-1.171-.14-2.411.979-3.258.939,1.427.4,2.708-.387,3.966" transform="translate(-1442.901 -2551.348)" fill="#fdbe86"/>
              <path id="Trazado_1052045" data-name="Trazado 1052045" d="M1965.884,1532.857l.109-.867c.6,1.094,1.928,1.679,2.127,3.052,3.916,6.5,8.416,12.4,15.8,15.32.829.327,1.67.623,2.506.933.3.584.494,1.218,1.221,1.494a24.907,24.907,0,0,1,2.327,1.3c6.4,3.262,10.494,2.551,15.69-2.4,3.244-3.094,5.293-6.927,7.387-10.768a11.521,11.521,0,0,1,1.347-2.3c.643-.719,1.327-.97,2.005-.012a8.829,8.829,0,0,1,.4,3.936,58.755,58.755,0,0,0,1,11.885c.1,2.3,2.4,3.169,3.266,4.971.979,1.979.358,3.64-.932,5.252a28.479,28.479,0,0,0-2.88,3.883c-2.284,1.861-4.5,3.807-6.923,5.5a39.817,39.817,0,0,1-7.66,2.188,4.576,4.576,0,0,1-3.037-.1c-1.215-2.03.225-3.733,1.4-4.607,2.245-1.673,1.121-3.725,1.277-5.6.075-.912-1.125-.789-1.786-.889-6.177-.936-11.519-3.735-16.53-7.3-5.921-4.209-10.148-9.912-14.048-15.9-.869-1.126-1.178-2.6-2.221-3.616a7.63,7.63,0,0,0-1.842-5.356" transform="translate(-1816.047 -1415.224)" fill="#f39a6d"/>
              <path id="Trazado_1052046" data-name="Trazado 1052046" d="M2381.957,2752.851c2.107-4.138,5.563-7.227,8.415-10.783,1.521-1.9,3.211-3.655,4.716-5.563.732-.928,1.815-1.233,2.654-1.911,2.084-1.684,3.536-3.948,5.171-6.037.366-.469-.089-.6-.454-.7.167-1.086,1.075-1.154,1.848-1.2a32.654,32.654,0,0,1,6.636.085c3.466.5,5.249,2.439,5.677,6q.028.948.056,1.9a5.406,5.406,0,0,1-1.951,2.793c-1.856,1.589-3.513,3.412-5.241,5.15-5.228,5.256-10.821,10.113-16.407,14.978a2.041,2.041,0,0,0-.887,1.215c-.976.047-1.172-.839-1.5-1.408-1.524-2.629-3.915-3.617-6.779-3.809-.719-.049-1.5.083-1.953-.71" transform="translate(-2200.408 -2518.722)" fill="#2d408a"/>
              <path id="Trazado_1052047" data-name="Trazado 1052047" d="M2622.149,1625.536c-1.268-2.863-.9-5.959-1.2-8.948-.259-2.648-.1-5.338-.122-8.009a.273.273,0,0,1,.078-.437c5.121-.042,10.248-.088,15.3.906a9.572,9.572,0,0,1,5.785,3.531,7.869,7.869,0,0,1-.122,9.534c-.822,1.139-1.79,2.173-2.692,3.254-1.136.949-1.675,2.651-3.482,2.758a41.473,41.473,0,0,1-10.932-1.133,3.843,3.843,0,0,1-2.621-1.456" transform="translate(-2421.006 -1485.557)" fill="#e6791c"/>
              <path id="Trazado_1052048" data-name="Trazado 1052048" d="M3141.491,2495.99c-.538.553-.388,1.235-.356,1.9q-.253,1.95-.506,3.9c-.544.62-1.054.741-1.546-.071a6.892,6.892,0,0,1-1.145-3.75c.054-5.179.134-10.363-.018-15.539a56.855,56.855,0,0,0-1.343-10.723c-.3-1.364-.9-2.548-2.617-2.5,1.209-6.079-.133-11.9-1.71-17.719-.7-2.576-2.271-4.789-2.982-7.419a62.792,62.792,0,0,1,5.943,5.512,57.654,57.654,0,0,1,5.282,7.674c1.254,2.107,2.667,2.6,4.719,1.3.26-.165.51-.306.8-.068.478.454,0,.906,0,1.358a4.968,4.968,0,0,1-.417,2.157c-1.884,4.425-2.419,9.12-2.73,13.862-.44,6.71-.912,13.418-1.369,20.127" transform="translate(-2890.76 -2257.784)" fill="#f3a52f"/>
              <path id="Trazado_1052049" data-name="Trazado 1052049" d="M2476.231,2036.992c4.685-2.988,9.208-6.225,14.073-8.939a33.956,33.956,0,0,1,7.629-3.013c-.423,2.823-2.28,4.634-3.9,6.367a73.727,73.727,0,0,1-33.546,20.888,29.748,29.748,0,0,1-3.914.753,2.232,2.232,0,0,1-2.554-.875c-1.028-1.522-.028-2.678.694-3.887,4.325-3.8,9.759-5.569,14.832-7.983,1.75-.832,3.362-1.876,5.059-2.782.527-.281.979-.671,1.629-.527" transform="translate(-2266.569 -1870.695)" fill="#f4a52e"/>
              <path id="Trazado_1052050" data-name="Trazado 1052050" d="M1679.471,1625.746c.267-1.886,1.576-2.97,3.085-3.815a19.989,19.989,0,0,1,9.146-2.409c3.773-.139,7.555-.03,11.333-.028a2.248,2.248,0,0,1,1.083,1.834,23,23,0,0,1-1.079,12.151,2.231,2.231,0,0,1-.805,1.032c-2.01.886-4.049.407-6.1.158a37.821,37.821,0,0,1-10.874-2.924c-2.717-1.208-4.915-2.981-5.79-6" transform="translate(-1551.464 -1496.021)" fill="#e6791c"/>
              <path id="Trazado_1052051" data-name="Trazado 1052051" d="M2081.142,2710.678c-1.618-4.056-3.35-5.278-7.77-5.23-2.13.023-4.3-.379-6.391.347-8.982.039-17.968-.053-26.946.176-4.149.106-8.306.147-12.451.371-3.061.165-5.388,1.877-7.41,4.069-.307.333-.315,1.379-1.236.717-.392-1.374.146-2.655.387-3.966.825-1.292,1.5-2.7,2.879-3.55a5.325,5.325,0,0,1,2.822-.457c15.824-.39,31.651-.59,47.481-.474a23.808,23.808,0,0,1,6.573.548c2.745,1.914,2.127,4.758,2.06,7.45" transform="translate(-1864.93 -2496.656)" fill="#487bc9"/>
              <path id="Trazado_1052052" data-name="Trazado 1052052" d="M1172.181,2197.256c-1.616-6.175-3.191-12.352-6.306-18.018a60.006,60.006,0,0,1-2.577-6.156c1.247-1.79,1.514.092,1.833.609a85.474,85.474,0,0,1,7.066,14.634,101.41,101.41,0,0,1,6.832,28.9c.3,4.287.91,8.552.8,12.864-.02.8.219,1.653-.412,2.348-1-.261-1.04-1.116-1.228-1.912q-2.273-9.612-3.6-19.4c-.544-3.948-1.353-7.844-2.27-11.717a3.524,3.524,0,0,1-.138-2.149" transform="translate(-1074.633 -2006.755)" fill="#fce267"/>
              <path id="Trazado_1052053" data-name="Trazado 1052053" d="M2258.708,1558.347q-.029.22-.078.437c-1.171.243-1.274,1.358-1.7,2.164-2.342,4.454-4.721,8.821-8.483,12.356-6.462,6.071-12.1,4.855-19.152.05-.609-.415-.99-.948-.113-1.522a21.82,21.82,0,0,0,13.325-1.307c6.539-2.7,11.092-7.568,14.508-13.622.508-.9,1.034-1.788,1.551-2.682q.07,2.063.14,4.126" transform="translate(-2058.803 -1435.761)" fill="#ec845e"/>
              <path id="Trazado_1052054" data-name="Trazado 1052054" d="M1298.288,3097.419c.045,1.244-.635,1.693-1.786,1.637-2.933-.142-5.88.159-8.8-.264a88.377,88.377,0,0,1,3.424-12.853c.881-2.825,1.765-5.65,2.7-8.458.385-1.154.957-1.958,1.862-.3l2.6,20.24" transform="translate(-1189.552 -2841.772)" fill="#5fb0f0"/>
              <path id="Trazado_1052055" data-name="Trazado 1052055" d="M1897.9,1870.739c3.99.158,7.618-1.488,11.413-2.3-1.156,1.927-3.114,2.913-4.863,4.145l-3.061,2.125c-5.933,1.088-11.625-.094-17.285-1.765-7.4-2.184-13.728-6.248-19.724-10.941a17.979,17.979,0,0,1-4.853-5.1.956.956,0,0,1-.287,1.542c-.686.38-1.363-.165-1.653-.769-.757-1.575-2.5-3-.988-5.032a6.017,6.017,0,0,1,3.3-1.2,1.849,1.849,0,0,1,1.545.7c.4.658.048,1.546.667,2.139a27.351,27.351,0,0,0,11.339,10.348c6.777,3.334,13.834,5.661,21.532,5.422,1.007-.031,2.1-.184,2.919.694" transform="translate(-1714.535 -1710.328)" fill="#66a3e6"/>
              <path id="Trazado_1052056" data-name="Trazado 1052056" d="M2120.362,2682.01a.813.813,0,0,1-.946.7c-12.511-.76-25.036-.281-37.55-.213-3.753.021-7.535.253-11.3.3a29.226,29.226,0,0,1-7.075-.41c1.8-1.8,4.156-1.811,6.438-1.857,9.2-.186,18.4-.29,27.606-.456,5.862-.107,11.723-.29,17.584-.4a5.77,5.77,0,0,1,5.248,2.329" transform="translate(-1906.21 -2475.438)" fill="#62a7e8"/>
              <path id="Trazado_1052057" data-name="Trazado 1052057" d="M2062.757,2161.9a5.423,5.423,0,0,1-.951,3.955c-.83,1.026-.057,1.909.389,2.8a9.643,9.643,0,0,1,1.937,4.436c.37.953-.252,1.832-.2,2.762.394,5.806-.411,11.29-4.4,15.868a28.9,28.9,0,0,1-2.889,2.766c-.585.509-1.188,1.161-2.056.219-1.035-1.125.177-1.451.655-1.864a17.078,17.078,0,0,0,6.188-15.883c-.106-.862-.353-1.707-.535-2.559-.714-.493-.653-1.362-1-2.035a26.7,26.7,0,0,0-2.238-5.539c-.612-.514-1.264-.988-1.829-1.549-2.043-2.027-1.612-4.827,1.032-6.894a3.951,3.951,0,0,1,5.9,3.514" transform="translate(-1897.61 -1993.391)" fill="#1a1949"/>
              <path id="Trazado_1052058" data-name="Trazado 1052058" d="M2136.85,2099.733c-2.584,2.8-5.754,4.887-8.763,7.169-1.115.847-2.068.4-3.046-.266-2.323-1.592-4.661-3.161-6.993-4.739-2.016-.448-3.515-1.766-5.015-3.049-.572-.489-1.33-1.051-.691-2,.113-.07.359-.2.354-.21-.271-.606-1.391-.957-.789-1.792.646-.893,1.527-.221,2.21.1a47.544,47.544,0,0,0,21.091,4.368c.572-.01,1.207-.143,1.642.427" transform="translate(-1950.779 -1934.765)" fill="#5fa4ec"/>
              <path id="Trazado_1052059" data-name="Trazado 1052059" d="M1687.01,2123.287a3.8,3.8,0,0,1,.353,2.093,45.055,45.055,0,0,1-19.624-5.811c-6.507-3.5-12.018-8.349-17.11-13.671-.185-.194-.318-.436-.8-1.108l14.787,8.536c1.841.045,2.975,1.523,4.494,2.226,5.9,2.729,11.705,5.682,17.9,7.735" transform="translate(-1524.083 -1944.366)" fill="#f0a12f"/>
              <path id="Trazado_1052060" data-name="Trazado 1052060" d="M1695.791,1713.843l-3.536,1.273a7.444,7.444,0,0,1-4.334,1.781,11.892,11.892,0,0,1-6.864-5.472c-2.037-2.8-3.593-5.758-3.024-9.4,5.713,7.477,14.059,7.988,22.415,8.474.513,1.858-.9,2.524-2.064,3.344-.862.316-1.727-.182-2.594,0" transform="translate(-1550.026 -1572.302)" fill="#d05c14"/>
              <path id="Trazado_1052061" data-name="Trazado 1052061" d="M2420.954,2199.232a8.037,8.037,0,0,0-1.159,3.55c-1.959,7.691-.365,14.4,5.589,19.842-1.478,1.777-2.563,1.492-3.922-.184a21.77,21.77,0,0,1-4.9-15.347c.04-.815.048-1.633.071-2.45.034-1.568-.36-3.19.574-4.647a10.7,10.7,0,0,1,1.748-3.7,3.412,3.412,0,0,0,.647-2.855c-.617-2.635-.093-4.257,1.587-4.914,3.247-1.269,5.019.181,4.881,4a2.013,2.013,0,0,1-1.051,2.054,19.931,19.931,0,0,0-4.067,4.656" transform="translate(-2232.347 -2021.304)" fill="#1e1b4b"/>
              <path id="Trazado_1052062" data-name="Trazado 1052062" d="M1806.753,1875.067c1.517-.4,2.91-1.218,4.514-1.319-.39,2.2,1.253,3.422,2.24,4.973.076-1.426-1.3-2.373-1.148-4.422,3.513,5.477,8.257,8.89,13.112,12.133,8.534,5.7,17.858,8.922,28.246,8.6a3.458,3.458,0,0,1,2.171.281l-.779.586c-8.517.116-16.821-.885-24.591-4.834.526,1.337,2.16,1.192,2.781,2.373-1.068.509-1.943-.406-2.893-.168a2.638,2.638,0,0,1-2.616-.86c-6.31-5.17-13.042-9.786-19.415-14.869-.793-.632-1.725-1.232-1.621-2.477" transform="translate(-1669.038 -1730.934)" fill="#4886d6"/>
              <path id="Trazado_1052063" data-name="Trazado 1052063" d="M1725.18,1830.333c7.577,6.468,15.723,12.2,23.653,18.206l5.9,4.794a2.378,2.378,0,0,0-2.123,1.379c-1.166-2.514-3.021-3.87-5.9-3.515a2.75,2.75,0,0,0-1.3-2.1c-8.65-5.773-16.437-12.66-24.535-19.145-1.467-1.175-2.718-2.506-2.387-4.629l6.684,5.011" transform="translate(-1587.465 -1686.2)" fill="#f9dd5a"/>
              <path id="Trazado_1052064" data-name="Trazado 1052064" d="M2182.057,2258.432a1.343,1.343,0,0,1,.3,1.77c-.742,1.662-1.451,3.339-2.173,5.01-3.715,2.69-8.08,2.507-12.285,2.436-2.4-.04-5.064.139-7.187-1.583l-1.326-4.5c6.307,2.993,12.612,4.229,19.075.323,1.506-.91,3.565-1.076,3.6-3.457" transform="translate(-1994.8 -2086.298)" fill="#fce265"/>
              <path id="Trazado_1052065" data-name="Trazado 1052065" d="M1275.6,2499.416c2.057,8.412,3.5,16.948,5.2,25.433.652,3.253,1.353,6.5,2.033,9.744l.885,7.156c-.407,1.044-.646.134-.721-.116a52.159,52.159,0,0,1-1.488-5.313c-.778-4.058-1.968-8.032-2.453-12.153a3.034,3.034,0,0,0-.713-2.056,161.434,161.434,0,0,0-2.777-20.161c-.192-.859-.626-1.7.031-2.534" transform="translate(-1178.051 -2308.915)" fill="#d8741e"/>
              <path id="Trazado_1052066" data-name="Trazado 1052066" d="M1866.221,2222.481c-.345.708-.83.329-1.309.187-7.577-2.244-14.365-6.125-21.085-10.147,1.064-.862,1.874.072,2.589.526,3.9,2.476,7.946,4.347,12.722,3.985.854-.065,1.544.49,2.319.728.8.244,1.628.416,1.882-.758,2.174,1.188,2.455,3.372,2.881,5.48" transform="translate(-1703.295 -2043.561)" fill="#fde061"/>
              <path id="Trazado_1052067" data-name="Trazado 1052067" d="M2176.774,2348.226a10.563,10.563,0,0,1,3.946.429c5.31.965,10.414-.129,15.527-1.284q-.549,2.215-1.1,4.427c-.206-.9-.874-.534-1.417-.519a82.476,82.476,0,0,1-14.055-.807,2.576,2.576,0,0,0-2.5.452,5.842,5.842,0,0,1-.407-2.7" transform="translate(-2010.863 -2168.458)" fill="#f3a833"/>
              <path id="Trazado_1052068" data-name="Trazado 1052068" d="M3346.751,2389.113c-.434-.454.078-.906,0-1.358,1.189-4.115,2.313-8.248,4.419-12.032a38.942,38.942,0,0,1,5.513-7.5c.5-.539,1.051-1.263,1.681-.1v-.008c-1.941,2.341-3.092,5.192-4.916,7.608l-6.7,13.393" transform="translate(-3091.504 -2187.052)" fill="#fce164"/>
              <path id="Trazado_1052069" data-name="Trazado 1052069" d="M2491.66,1856.8l4.86-4.143,5.969-4.955c2.243-2.871,5.753-4.229,8.19-6.868,1.37-.993,2.608-2.151,3.946-3.186a3.224,3.224,0,0,1,2.18-.907l3.122-2.387c-.389,1.456-1.566,2.3-2.548,3.3-4.7,4.792-10.4,8.272-15.829,12.118-2.416,1.713-4.692,3.621-7.044,5.426-.869.667-1.64,1.526-2.847,1.6" transform="translate(-2301.75 -1694.543)" fill="#f6e083"/>
              <path id="Trazado_1052070" data-name="Trazado 1052070" d="M2474.563,2189.263a6.678,6.678,0,0,1,3.423-5.041,7.972,7.972,0,0,0,1.694-1.669c.76.883,1.621.7,2.616.4a54.234,54.234,0,0,0,11.389-5c.6-.353,1.142-1.107,1.933-.316-5.88,3.841-12.454,6.388-18.493,9.93-.883.518-1.709,1.131-2.562,1.7" transform="translate(-2285.955 -2011.335)" fill="#fbdc5f"/>
              <path id="Trazado_1052071" data-name="Trazado 1052071" d="M1922.526,1631.846c.853-.964,2.113-1.6,2.418-3.005,2.221-3.815,1.742-7.973,1.512-12.092-.049-.881-.238-1.756-.362-2.633q.053-.243.107-.485c2.207-.057,1.638,2.2,2.633,3.155,1.083,6.6-.665,12.257-5.645,16.824a2.582,2.582,0,0,1-1.932.945c-.6-.653-.277-1.178.234-1.676.125-.564.592-.786,1.035-1.032" transform="translate(-1774.523 -1490.641)" fill="#fcd8ac"/>
              <path id="Trazado_1052072" data-name="Trazado 1052072" d="M1532.162,1789.915l.528-1.017c.471-.1.884-1.033,1.427-.077a48.236,48.236,0,0,0,7.04,9.254c-2.845-2.426-6.039-4.32-8.935-6.621-.622-.5-.863-.994-.06-1.54" transform="translate(-1414.911 -1652.087)" fill="#ec9d2b"/>
              <path id="Trazado_1052073" data-name="Trazado 1052073" d="M1682.963,3089.275c-.059,2.1-1.934,3.131-2.86,4.722-2.109,3.627-4.582,7.044-6.941,10.523-.307.454-.476,1.416-1.431.769-.111-2.3,1.143-3.85,2.86-5.139l4.462-6.735c1.414-1.276,2.254-3.092,3.91-4.139" transform="translate(-1544.308 -2853.815)" fill="#fcdaae"/>
              <path id="Trazado_1052074" data-name="Trazado 1052074" d="M2112.607,1396.7c4.538,0,9.075-.007,13.613.009.572,0,1.3-.251,1.673.294.43.63-.288,1.078-.573,1.541-2.481,4.024-5.489,7.531-10.383,8.5-7.069,1.4-14.42-.233-18.554-6.545a11.782,11.782,0,0,1-.837-1.567c-.674-1.482-.559-2.306,1.45-2.257,4.536.109,9.074.034,13.612.034Z" transform="translate(-1937.331 -1290.2)" fill="#f48c61"/>
              <path id="Trazado_1052075" data-name="Trazado 1052075" d="M1905.677,898.9a22.08,22.08,0,0,1,8.344,1.742c1.061.451,2.131,1.053,1.756,2.447-.4,1.473-1.579,1.585-2.875,1.295a29.918,29.918,0,0,0-7.953-.92,21.075,21.075,0,0,0-8.32,2.306c-1.186.579-2.464,1.056-3.317-.434s.291-2.4,1.32-3.115a18.859,18.859,0,0,1,11.046-3.321" transform="translate(-1748.728 -830.391)" fill="#1a1850"/>
              <path id="Trazado_1052076" data-name="Trazado 1052076" d="M2428.121,902.553a4.841,4.841,0,0,1-2.333-.687,20.654,20.654,0,0,0-13.5-1.385c-1.291.269-3.047,1.109-3.643-.836s1.175-2.506,2.555-3a18.179,18.179,0,0,1,17.394,2.309,2.227,2.227,0,0,1,1.128,2.651c-.244.774-.9.909-1.6.946" transform="translate(-2224.951 -827.171)" fill="#19184e"/>
              <path id="Trazado_1052077" data-name="Trazado 1052077" d="M1743.387,864.111c-2.807-5.5-4.622-11.378-6.493-17.225-1.511-4.724-2.835-9.507-4.2-14.276-.176-.614-.943-1.6.124-1.871,1.119-.284,1.018.929,1.245,1.672,2.246,7.359,3.949,14.888,6.9,22.026a4.5,4.5,0,0,0,1.048,1.922l1.373,7.752" transform="translate(-1600.233 -767.382)" fill="#3f5099"/>
              <path id="Trazado_1052078" data-name="Trazado 1052078" d="M2700,831.492c1.337-3,1.546-6.274,2.262-9.422.476-2.094.688-4.247,1.109-6.356.132-.66.145-1.533,1.34-1.807-.544,3.193-1.006,6.285-1.607,9.35-1.3,6.625-2.671,13.237-4.026,19.852a2.046,2.046,0,0,1-.34.568c.181-4.086.692-8.138,1.262-12.185" transform="translate(-2493.044 -751.873)" fill="#424986"/>
              <path id="Trazado_1052079" data-name="Trazado 1052079" d="M2236.561,1273.017l1.342-1.167c.546,2.25-.561,4.117-2.953,5.133-3.215,1.365-7.643-.229-9.585-3.461.8-.531,1.356.394,2.068.348,3.119.544,6.283,1.557,9.127-.853" transform="translate(-2055.752 -1174.912)" fill="#24173e"/>
              <path id="Trazado_1052080" data-name="Trazado 1052080" d="M2409.222,1049.174c-2.223-1.146-2.3-1.83-.382-3.152,3.41-2.351,6.929-3.248,10.75-.929.674.409,1.205.712.238,1.35-.957.827-1.843-.08-2.708-.215a7.885,7.885,0,0,0-7.9,2.946" transform="translate(-2223.979 -964.189)" fill="#e99570"/>
              <path id="Trazado_1052081" data-name="Trazado 1052081" d="M1990.374,1071.549c-1.1.057-1.733.357-.706,1.652-4.222-1.913-8.108-2.062-11.527,2.033.793-4.9,7.444-6.663,12.233-3.685" transform="translate(-1827.37 -988.531)" fill="#261c3c"/>
              <path id="Trazado_1052082" data-name="Trazado 1052082" d="M2429.1,1067.821c-.43-1.224.516-1.735,1.254-2.28,3.005-2.219,6.156-1.932,9.352-.45.63.528,1.52.825,1.777,2.073a17.418,17.418,0,0,0-5.57-1.586c-2.617-.094-4.54,1.522-6.813,2.243" transform="translate(-2243.86 -982.836)" fill="#201335"/>
              <path id="Trazado_1052083" data-name="Trazado 1052083" d="M2261.614,1287.161c-2.157,2.695-5.082,2.968-9.127.853,3.055-.158,6.171.353,9.127-.853" transform="translate(-2080.805 -1189.056)" fill="#d5886d"/>
              <path id="Trazado_1052084" data-name="Trazado 1052084" d="M1634.1,848.585a2.273,2.273,0,0,1-2.345.512,5.776,5.776,0,0,1-2.2-3.484c-3.492-11.28-6.437-22.713-9.6-34.085-.4-1.435-.924-2.819-1.451-4.208-.48-1.267-.57-2.48.747-3.364l-.012.046c1.828-.6,2.077.7,2.423,1.966,3.065,11.206,6.185,22.4,9.623,33.5q1.412,4.558,2.811,9.121" transform="translate(-1494.846 -742.584)" fill="#f6d44b"/>
              <path id="Trazado_1052085" data-name="Trazado 1052085" d="M2072,3692.336l29.873-.071,9.779.142c-7.447,2.11-14.807,4.606-22.754,3.994a36.946,36.946,0,0,1-13.1-3.011c-1.238-.582-2.693-.141-3.794-1.052" transform="translate(-1914.079 -3410.847)" fill="#fac23a"/>
              <path id="Trazado_1052086" data-name="Trazado 1052086" d="M1558.709,3016.05l-2.859,5.139a2.3,2.3,0,0,0-.363.115,37.894,37.894,0,0,1-9.206-23.068c4.734,5.522,8.412,11.788,12.428,17.814" transform="translate(-1428.426 -2769.715)" fill="#e58223"/>
              <path id="Trazado_1052087" data-name="Trazado 1052087" d="M2550.384,3307.569a3.221,3.221,0,0,1-.079-.354c4.583,2.017,9.294,1.213,13.991.622a69.33,69.33,0,0,0,17.235-5,9.682,9.682,0,0,1,1.487-.457,2.512,2.512,0,0,1,.792.156,6.663,6.663,0,0,1-3.552,3.508,48.958,48.958,0,0,1-27.709,2.528,3.252,3.252,0,0,1-2.165-1" transform="translate(-2355.924 -3050.669)" fill="#f39c6b"/>
              <path id="Trazado_1052088" data-name="Trazado 1052088" d="M2551.472,3471.471a1.162,1.162,0,0,1-.076-.428c3.9.817,7.772,1.866,11.713,2.4,5.56.748,11.172,1.12,16.742-.27.035-.606-.843-.244-.815-.751s.483-.469.829-.473c1.384-.015,2.767-.006,4.335-.006a5.769,5.769,0,0,1-5.092,3.4,70.9,70.9,0,0,1-14.141-.054c-2.127-.2-4.229-.678-6.355-.884-2.7-.26-4.635-2.263-7.14-2.927" transform="translate(-2356.933 -3206.485)" fill="#f6a16f"/>
              <path id="Trazado_1052089" data-name="Trazado 1052089" d="M1566.5,805.222a2.337,2.337,0,0,0-.372,2.292c3.867,9.927,5.751,20.433,8.926,30.562,1.287,4.1,2.146,8.346,3.946,12.286a15.989,15.989,0,0,0-3.255-.665c-2.613,0-3.421-1.6-4.1-3.765-3.454-11.032-6.263-22.237-9.162-33.42a8.5,8.5,0,0,0-1.407-3.687c1.464-1.718,3.462-2.632,5.422-3.6" transform="translate(-1442.093 -743.85)" fill="#385db2"/>
              <path id="Trazado_1052090" data-name="Trazado 1052090" d="M921.875,1721.013c-.471,7.71-1.963,7.5-7.951,5.8a12.2,12.2,0,0,1-6.066-3.926c-2.469-2.866-.527-9.226,3.145-10.224,4.635-1.26,10.877,3.536,10.872,8.352" transform="translate(-837.642 -1581.936)" fill="#91cdf9"/>
              <path id="Trazado_1052091" data-name="Trazado 1052091" d="M324.333,1958.255a11.9,11.9,0,0,1,6.588,2c2.68,1.721,3.142,3.895,1.417,6.625a21.061,21.061,0,0,1-2.476,3.127,5.2,5.2,0,0,1-7.166.543c-2.691-1.918-3.995-5.615-2.792-7.957a20.227,20.227,0,0,0,1.165-2.147c.629-1.717,1.726-2.537,3.265-2.194" transform="translate(-295.105 -1808.929)" fill="#92cefa"/>
              <path id="Trazado_1052092" data-name="Trazado 1052092" d="M428.984,2404.707c2.013.007,3.256,1.222,4.192,2.814a3.333,3.333,0,0,1-.62,4.091c-1.482,1.75-2.951,3.582-5.63,3.376-1.549-.119-3.2-.57-3.738-1.972a5.832,5.832,0,0,1,5.8-8.309" transform="translate(-390.443 -2221.421)" fill="#93cefa"/>
              <path id="Trazado_1052093" data-name="Trazado 1052093" d="M1120.547,1381.675c2.3-1.705,2.314-1.918-.067-3.2-.783-.422-1.178-.747-.778-1.689a6.755,6.755,0,0,1,7.2-3.631,3.942,3.942,0,0,1,2.8,5.169,7.377,7.377,0,0,1-5.309,5.1c-1.658.505-2.37-1.452-3.84-1.753" transform="translate(-1034.214 -1268.366)" fill="#93cef8"/>
              <path id="Trazado_1052094" data-name="Trazado 1052094" d="M611.966,2049.633c-.3,1.009-.584,2.155-1.933,1.964a2.149,2.149,0,0,1-1.983-2.27,1.69,1.69,0,0,1,1.962-1.644,1.855,1.855,0,0,1,1.954,1.95" transform="translate(-561.704 -1891.611)" fill="#93d0fa"/>
              <path id="Trazado_1052095" data-name="Trazado 1052095" d="M3524.685,3443.441l-13.033.879c.107.992.847,1.167,1.345,1.531,6.933,5.065,13.169,10.816,17.913,18.054a14.369,14.369,0,0,1,2.323,9.327c-.05.6-.031,1.264-.71,1.5-.631.216-1.122-.237-1.609-.574-1.356-.939-1.654-2.471-1.966-3.887-1.92-8.713-7.028-15-14.6-19.453a102.886,102.886,0,0,1-9.928-7.144c-.451-.343-1.08-.72-.906-1.412.211-.844,1.006-.745,1.658-.764,5.5-.173,10.942.616,16.4,1.094,1.024.09,2.042.237,3.063.358.014.164.03.329.045.494" transform="translate(-3236.457 -3179.167)" fill="#fce46c"/>
              <path id="Trazado_1052096" data-name="Trazado 1052096" d="M3436.8,2383.151c1.275-2.772,2.387-5.647,4.916-7.608-1.381,2.7-2.6,5.51-4.916,7.608" transform="translate(-3174.856 -2194.483)" fill="#fec53d"/>
              <path id="Trazado_1052097" data-name="Trazado 1052097" d="M2314.09,3087.622c-1.037,3.8-3.577,5.82-7.657,6.094-1.178-.692-2.587-.5-3.827-1.064-4.065-1.85-5.81-5.751-4.329-9.91a8.045,8.045,0,0,1,9.8-4.781c4.6,1.365,6.532,4.476,6.01,9.661" transform="translate(-2122.625 -2843.058)" fill="#7ebaf0"/>
              <path id="Trazado_1052098" data-name="Trazado 1052098" d="M2305.993,3081.67c-.258-5.425-1.889-7.894-6.053-9.159a7.278,7.278,0,0,0-9.436,5.069c-1.135,4.246,1.043,7.786,5.408,8.97.845.229,2.036-.01,2.424,1.213a8.6,8.6,0,0,1-9.2-6.745c-.79-3.536,1.632-7.64,5.469-9.252.479-.2.977-.356,1.467-.533,4.766-.362,8.329,1.351,10.233,5.927-.04,1.507.47,3.054-.317,4.509" transform="translate(-2114.528 -2837.105)" fill="#6697da"/>
              <path id="Trazado_1052099" data-name="Trazado 1052099" d="M1886.581,3154.173l-.859-.079c-.078-.288.03.052-.122-.182-.652-1,.47-3.079-1.16-3.157-2.133-.1-4.587-.424-6.3,1.588l-2.921-1.043c3.028-4.186,7.415-3.928,11.614-2.565a46.174,46.174,0,0,0,9.5,2.391c-.637.643-1.583.094-2.111.72a16.953,16.953,0,0,1-5.634-1.191c-1.637-.6-2.364-.357-2.1,1.521.093.657.064,1.331.091,2" transform="translate(-1732.295 -2907.918)" fill="#eb966a"/>
              <path id="Trazado_1052100" data-name="Trazado 1052100" d="M2534.8,2795.413c1.132.057,1.661.511,1.64,1.674s-.819,1.425-1.586,1.4a1.576,1.576,0,0,1-1.674-1.7c.049-1.017.8-1.324,1.62-1.374" transform="translate(-2340.104 -2582.351)" fill="#abc2e3"/>
              <path id="Trazado_1052101" data-name="Trazado 1052101" d="M2141.583,3202.056l4.975,0a8.163,8.163,0,0,1-4.975,0" transform="translate(-1978.355 -2958)" fill="#eb966a"/>
              <path id="Trazado_1052102" data-name="Trazado 1052102" d="M1870.8,3319.98a55.61,55.61,0,0,1,9.738.249c-1.358-1.161-3.106-.787-4.644-1.118a38.577,38.577,0,0,0-4.819-.207c6.977-1.318,13.228,1.378,19.664,3.65a2.329,2.329,0,0,1-2.259.854c-5.777-.841-11.594-1.466-17.254-2.988-.058-.016-.1-.1-.426-.44" transform="translate(-1728.212 -3065.622)" fill="#f29b6b"/>
              <path id="Trazado_1052103" data-name="Trazado 1052103" d="M1910.116,3175c-.67-1.132-.07-1.663.966-1.842,1.795-.312,3.6-.609,5.41-.777,1.417-.131,1.658.879,1.646,2.032a4.162,4.162,0,0,1-.443,2.339l-7.579-1.752" transform="translate(-1764.269 -2930.578)" fill="#f5a736"/>
              <path id="Trazado_1052104" data-name="Trazado 1052104" d="M1925.177,1672.8c3.214-3.142,6.106-6.406,6.816-11.165.328-2.2-.039-4.472.761-6.6,2.912,3.832,5.446,7.97,8.93,11.341,6.441,6.234,13.849,10.662,22.9,11.825,1.674.215,2.071.66.869,1.978a.916.916,0,0,0,.132,1.516,1.351,1.351,0,0,1-.133,2.408c-2.014,1.23-2.555,3.388-3.651,5.2-13.473.574-25.318-3.1-34.646-13.3a9.772,9.772,0,0,1-1.98-3.2" transform="translate(-1778.443 -1528.888)" fill="#fdbe86"/>
              <path id="Trazado_1052105" data-name="Trazado 1052105" d="M2652.961,1838.774l-5.7,4.574c-2.09.339-3.742-.211-4.645-2.286-1.325-1.394-3.158-2.387-3.563-4.509a63.846,63.846,0,0,0,11.355,1.79c.864.034,1.8-.263,2.557.43" transform="translate(-2437.905 -1696.576)" fill="#d45e12"/>
              <path id="Trazado_1052106" data-name="Trazado 1052106" d="M2637.714,1895.706c1.156,1.559,3.2,1.313,4.645,2.285-2.4,2.758-5.622,4.419-8.612,6.386.654-1.757,2.007-3.041,3.059-4.531.839-1.189,1.919-2.358.426-3.811l.483-.33" transform="translate(-2433.006 -1751.219)" fill="#638bbc"/>
              <path id="Trazado_1052107" data-name="Trazado 1052107" d="M1914.641,1851.136c-.05.641-.513.866-1.036,1.032-.244-.508-.785-.5-1.207-.694a2.687,2.687,0,0,1,2.243-.337" transform="translate(-1766.638 -1709.932)" fill="#fdbe86"/>
              <path id="Trazado_1052108" data-name="Trazado 1052108" d="M2125.006,1414.731c8.676-.121,17.036-.042,25.5-.549-4.033,7.778-20.467,8.216-25.5.549" transform="translate(-1963.042 -1306.396)" fill="#fcfbf9"/>
              <path id="Trazado_1052109" data-name="Trazado 1052109" d="M2548.17,2809.132a.823.823,0,0,1-.612.868.711.711,0,0,1-.946-.6.6.6,0,0,1,.563-.746.863.863,0,0,1,.994.477" transform="translate(-2352.498 -2594.569)" fill="#3d5181"/>
            </g>
          </g>
          <g id="Grupo_1209453" data-name="Grupo 1209453" transform="translate(0 56.257)">
            <g id="Grupo_1209452" data-name="Grupo 1209452">
              <g transform="matrix(1, 0, 0, 1, -86.92, -67.39)" filter="url(#Trazado_1052110)">
                <path id="Trazado_1052110-2" data-name="Trazado 1052110" d="M40.965.084c9.151-.617,18.223,2.228,25.88,7.11A43.4,43.4,0,0,1,85.463,34.213c2.511,11.641-.089,23.1-6.515,33.005L89.9,88.759,66.48,79.047l-5.1,2.659a42.224,42.224,0,0,1-14.159,3.686c-11.615.9-22.823-2.279-31.727-9.95A44.5,44.5,0,0,1,.1,45.108a42.29,42.29,0,0,1,9.918-30.139c8.1-9.306,18.756-14,30.95-14.885" transform="translate(86.92 67.39)" fill="#f6f3ef"/>
              </g>
              <path id="Trazado_1052111" data-name="Trazado 1052111" d="M95.476,63.134l.03.383c.332,6.885-4.212,15.666-8.792,20.514A34.773,34.773,0,0,1,62.729,95.018,33.91,33.91,0,0,1,38,85.869c-6.377-6.079-10.832-14.845-11-23.743-.178-9.242,2.748-17.633,9.243-24.3a34.7,34.7,0,0,1,48.732-.77c6.015,5.993,10.546,14.632,10.5,23.284a22.027,22.027,0,0,0,0,2.8" transform="translate(-18.111 -18.412)" fill="#fec53d"/>
              <path id="Trazado_1052112" data-name="Trazado 1052112" d="M102.227,108.617c-2.389,0-24.435-.181-24.643-.03a7.77,7.77,0,0,0-.665,1.477c-.954,2.111-2.086,5.7-3.88,7.12a2.377,2.377,0,0,1-1.941-.361,10.786,10.786,0,0,1-1.412-3.805L67.775,105.7,65.034,115.2l-1.428,6.146c-.24,1.22-.313,2.849-1.194,3.787a1.772,1.772,0,0,1-1.547-.21c-1.405-2.236-1.872-6.636-2.442-9.248L55.5,101.771c-.322,1.678-.533,4.065-1.323,5.561a2.136,2.136,0,0,1-1.352,1.246,21.526,21.526,0,0,1-3.656.047H41.125a14.261,14.261,0,0,1-3.215-.065,4.618,4.618,0,0,1-.77-.637,2.1,2.1,0,0,1,.247-1.8c1.392-.551,3.327-.32,4.821-.321l9.677.026L54.1,96.117a2.116,2.116,0,0,1,1.652-.886,4.651,4.651,0,0,1,.8.568,7.553,7.553,0,0,1,.628,2.065l1.31,5.943,3.142,13.609,3.09-10.381c.434-1.548.958-4.917,2-6.076.579-.645.931-.55,1.754-.627,1.273.912,1.435,2.908,1.78,4.383l2.063,9.011a65.483,65.483,0,0,1,3.87-7.817,81.762,81.762,0,0,1,8.944-.105l17.1.016a22.033,22.033,0,0,0,0,2.8" transform="translate(-24.862 -63.895)" fill="#263173"/>
            </g>
          </g>
        </g>
      </g>
      <g id="Grupo_1209460" data-name="Grupo 1209460" transform="translate(1289.497 5980.708)">
        <g id="Grupo_1209454" data-name="Grupo 1209454" clip-path="url(#clip-path-3)">
          <path id="Trazado_1052113" data-name="Trazado 1052113" d="M219.349,74.668c-.026-1.577-.492-4.955.621-6.095,1.151-1.178,6.088-.691,7.889-.685,1.082,0,3.715-.325,4.479.451a2.493,2.493,0,0,1,.732,1.33,31.6,31.6,0,0,1,.045,4.871l.021,12.28c.021,1.308.44,4.891-.261,5.866a4.091,4.091,0,0,1-2.164.123,12.352,12.352,0,0,0-2.867-.124l-6.264.032a3.6,3.6,0,0,1-1.951-.192L219.4,91.7c-.371-2.676-.018-5.937-.008-8.668Z" transform="translate(-161.505 -49.935)" fill="#747eca"/>
          <path id="Trazado_1052114" data-name="Trazado 1052114" d="M233.625,140.079c.021,1.308.44,4.891-.261,5.866a4.091,4.091,0,0,1-2.164.123,12.349,12.349,0,0,0-2.867-.124l-6.264.032a3.6,3.6,0,0,1-1.951-.192l-.224-.821.026-4.808Z" transform="translate(-161.993 -103.195)" fill="#303a72"/>
          <path id="Trazado_1052115" data-name="Trazado 1052115" d="M164.549,437.244l5.9-.09a16,16,0,0,1,2.96.014l.179.016.068,2.182c.6.476,1.741.284,2.52.281l6.836-.01a24.33,24.33,0,0,1,4.034.128c5.387.941,8.381,4.642,9.882,9.647l-55.153.021a9.949,9.949,0,0,1,3.352-6.518c3.441-3.324,7.112-3.266,11.573-3.272l7.852.066Z" transform="translate(-104.443 -321.997)" fill="#303a72"/>
          <path id="Trazado_1052116" data-name="Trazado 1052116" d="M228.273,437.244l5.9-.09a16,16,0,0,1,2.96.014v2.315a1.664,1.664,0,0,1-.319.289c-.4.2-7.136.038-8.06,0l-.479-.059Z" transform="translate(-168.166 -321.997)" fill="#1a275f"/>
          <path id="Trazado_1052117" data-name="Trazado 1052117" d="M.117,37.75c.192-2.32.008-4.812.008-7.147L.13,15.512c0-3.2-.606-7.694.8-10.588A8.541,8.541,0,0,1,6.047.5,10.14,10.14,0,0,1,9.467.1l15.1-.011c2.17,0,4.861-.3,6.936.175a8.345,8.345,0,0,1,6.061,5.96,29.051,29.051,0,0,1,.2,5.987L37.8,24.736,37.784,33.1,37.76,42.85c0,2.041.282,4.488-.482,6.4a8.623,8.623,0,0,1-6.846,5.161,40.413,40.413,0,0,1-4.376.049l-8.465-.017-6.538,0a15.738,15.738,0,0,1-3.792-.212,9.383,9.383,0,0,1-4.682-2.512C-.794,48.242.13,42.235.117,37.75" transform="translate(0 0)" fill="#303a72"/>
          <path id="Trazado_1052118" data-name="Trazado 1052118" d="M228.094,162.327l6.264-.032a12.351,12.351,0,0,1,2.867.124l.013,9.426-9.166-.017Z" transform="translate(-168.019 -119.546)" fill="#1a275f"/>
          <path id="Trazado_1052119" data-name="Trazado 1052119" d="M143.506,93.933l20.049,0,.047,8.367H143.493Z" transform="translate(-105.709 -69.196)" fill="#6c58aa"/>
          <path id="Trazado_1052120" data-name="Trazado 1052120" d="M228.073,198.557l9.166.017-.076,62.888-.179-.016a16,16,0,0,0-2.96-.014l-5.9.09Z" transform="translate(-168.019 -146.275)" fill="#747eca"/>
        </g>
      </g>
      <g id="Grupo_1209461" data-name="Grupo 1209461" transform="translate(847.782 5974.02)">
        <g id="Grupo_1209456" data-name="Grupo 1209456" clip-path="url(#clip-path-4)">
          <path id="Trazado_1052121" data-name="Trazado 1052121" d="M61.72,202.993C62,202.5,84.626,191.27,86.5,190.54a24.059,24.059,0,0,0,3.088,4.474L73.779,202.89c-2.44,1.234-5.186,3.1-7.751,3.871a2.685,2.685,0,0,1-1.73-.138c-1.309-.458-1.846-1.944-2.36-3.11Z" transform="translate(-45.128 -139.317)" fill="#141e54"/>
          <path id="Trazado_1052122" data-name="Trazado 1052122" d="M76.834,144.989c-1.523,3.978-2.092,8.066-.317,12.1l.068.15c-1.871.73-24.5,11.958-24.777,12.453l-2.729-5.435c-.709-1.408-1.24-2.386-.682-3.963a3.224,3.224,0,0,1,1.269-1.656c2.526-1.7,5.789-2.947,8.539-4.338Z" transform="translate(-35.216 -106.011)" fill="#1a275f"/>
          <path id="Trazado_1052123" data-name="Trazado 1052123" d="M246.7,80.066l1.2-.716c1.012,5.565,3.4,10.211,6.482,14.889L234.23,104.516a19.128,19.128,0,0,0-.874-5.969c-1.242-3.76-3.934-6.073-7.223-8.052Z" transform="translate(-165.341 -58.018)" fill="#1a275f"/>
          <path id="Trazado_1052124" data-name="Trazado 1052124" d="M266.343,80.066l1.2-.716c1.012,5.565,3.4,10.211,6.482,14.889l-20.148,10.277A19.128,19.128,0,0,0,253,98.547l16.9-8.567a40.181,40.181,0,0,1-3.554-9.914" transform="translate(-184.987 -58.018)" fill="#141e54"/>
          <path id="Trazado_1052125" data-name="Trazado 1052125" d="M305.752,39.251a10.729,10.729,0,0,1-.139-5.882c1.018-3.132,4.111-4.213,6.778-5.592l6.43-3.27a37.779,37.779,0,0,0,.016,6.372,33.38,33.38,0,0,0,8.094,17.466,24.162,24.162,0,0,0,9.359,6.687l-12.374,6.552a6.139,6.139,0,0,1-3.139.273c-3.128-.524-6.782-5.2-8.543-7.718-3.086-4.678-5.469-9.324-6.482-14.889" transform="translate(-223.197 -17.919)" fill="#303a72"/>
          <path id="Trazado_1052126" data-name="Trazado 1052126" d="M150.954,123.078l.119-.241a13.875,13.875,0,0,1,8.177-7.133,14.385,14.385,0,0,1,10.879.874c3.289,1.978,5.982,4.292,7.223,8.052a19.127,19.127,0,0,1,.874,5.969,15.131,15.131,0,0,1-5.975,10.408,3.639,3.639,0,0,1-.96.58,7.785,7.785,0,0,1,.212,3.274l-.488.575a24.359,24.359,0,0,1-13.628.382,3,3,0,0,1-1.5-1.219c-.425-.815,0-2.265.256-3.082a16.02,16.02,0,0,1-2.347-1.719,24.061,24.061,0,0,1-3.088-4.474l-.068-.15c-1.776-4.03-1.206-8.118.317-12.1" transform="translate(-109.337 -84.1)" fill="#303a72"/>
          <path id="Trazado_1052127" data-name="Trazado 1052127" d="M172.916,213.576c3.83,1.929,7.477,2.8,11.679,1.442l3.471-1.372a7.785,7.785,0,0,1,.212,3.274l-.488.575a24.36,24.36,0,0,1-13.628.382,3,3,0,0,1-1.5-1.219c-.425-.815,0-2.265.256-3.082" transform="translate(-126.111 -156.16)" fill="#1a275f"/>
          <path id="Trazado_1052128" data-name="Trazado 1052128" d="M177.815,134.95a9.271,9.271,0,0,1,5.426,1.058,9.041,9.041,0,0,1,4.3,5.365,8.557,8.557,0,0,1-.87,6.678,8.724,8.724,0,0,1-12.494,2.973,8.645,8.645,0,0,1-3.714-5.395,8.824,8.824,0,0,1,1.189-6.659,9.253,9.253,0,0,1,6.163-4.02" transform="translate(-124.492 -98.641)" fill="#747eca"/>
          <path id="Trazado_1052129" data-name="Trazado 1052129" d="M48.05,228.535a24.36,24.36,0,0,0,13.628-.382c.732,1.811,2.322,3.577,3.4,5.245L90.23,269.222l22.578,31.722h-5.148l-22.8-32.311L63.334,238.159c-.661-.97-3.77-6.05-4.628-6.143l-1.433.072c-.549,1.457-.176,4.082-.172,5.692l.04,14.241-.03,39.846,9.044.013a21.216,21.216,0,0,1,3.953.075,2.371,2.371,0,0,1,1.1.653c1.3,1.274.7,6.334.7,8.229l-32.434-.009c-.008-1.9-.6-6.888.714-8.251a3.18,3.18,0,0,1,.833-.586,11.028,11.028,0,0,1,3.423-.182l8.577.076-.058-45.3L53,236.134c0-1.032.264-3.138-.17-4.016a7.167,7.167,0,0,0-2.11,0L5.137,300.809l-5.137,0Z" transform="translate(0 -166.818)" fill="#303a72"/>
          <path id="Trazado_1052130" data-name="Trazado 1052130" d="M367.5,0a18.8,18.8,0,0,1,14.279,5.512,20.673,20.673,0,0,1,6.015,14.5c.017,3.743-1.209,8.309-3.946,10.993a7.472,7.472,0,0,1-1.731,1.273L380.161,33.3l-5.622,2.849-1.722.966a24.162,24.162,0,0,1-9.359-6.687,33.38,33.38,0,0,1-8.094-17.466,37.782,37.782,0,0,1-.016-6.372l1.78-1.069a.914.914,0,0,1,.069-.347c.793-2.133,4.455-3.426,6.376-4.275l2.052-.655Z" transform="translate(-259.724 0)" fill="#303a72"/>
          <path id="Trazado_1052131" data-name="Trazado 1052131" d="M384.8,1.553,386.855.9c-.251,1.794-.7,3.564-.814,5.37A27.225,27.225,0,0,0,391.8,24.581a22.785,22.785,0,0,0,8.347,6.9,13.684,13.684,0,0,1,3.195,1.462l-1.956,1.016c-4.549-2.041-8.055-4.159-11-8.309C385,18.052,383.24,10.784,384.8,1.553" transform="translate(-280.955 -0.657)" fill="#141e54"/>
          <path id="Trazado_1052132" data-name="Trazado 1052132" d="M363.573,3.336c-1.563,9.23.194,16.5,5.587,24.093,2.947,4.15,6.452,6.268,11,8.309l-5.622,2.849-1.722.966a24.162,24.162,0,0,1-9.359-6.687A33.38,33.38,0,0,1,355.365,15.4a37.782,37.782,0,0,1-.016-6.372l1.78-1.069a.914.914,0,0,1,.069-.347c.793-2.133,4.455-3.426,6.376-4.275" transform="translate(-259.724 -2.439)" fill="#303a72"/>
          <path id="Trazado_1052133" data-name="Trazado 1052133" d="M355.349,21.6l1.78-1.069a41.786,41.786,0,0,0-.041,7,32.2,32.2,0,0,0,8,17.048,23.737,23.737,0,0,0,6.615,5.389,22.726,22.726,0,0,1,2.841,1.193l-1.722.966a24.162,24.162,0,0,1-9.359-6.687,33.38,33.38,0,0,1-8.094-17.466,37.782,37.782,0,0,1-.016-6.372" transform="translate(-259.724 -15.011)" fill="#141e54"/>
        </g>
      </g>
    </g>
  </g>
</svg>
