<svg xmlns="http://www.w3.org/2000/svg" width="95.88" height="95.878" viewBox="0 0 95.88 95.878">
  <g id="icons8-python" transform="translate(-4.563 -5)">
    <path id="Trazado_1052316" data-name="Trazado 1052316" d="M53.724,5a54.22,54.22,0,0,0-9.931.926c-9.709,1.69-11.478,5.24-11.478,11.783v10H55.023v5.046H20.477c-6.651,0-12.472,3.134-14.316,10.645-2.084,8.621-2.177,14.021,0,23.023C7.813,73.136,11.454,78.17,18.108,78.17h9.164V65.292c0-7.484,6.777-14.876,14.543-14.876H60.072c6.366,0,12.615-4.7,12.615-11.044V17.709c0-6.154-4.438-10.756-10.642-11.788A42.933,42.933,0,0,0,53.724,5ZM41.149,15.092a3.785,3.785,0,1,1,0,7.569,3.785,3.785,0,1,1,0-7.569Z" transform="translate(0 0)" fill="#0277bd"/>
    <path id="Trazado_1052317" data-name="Trazado 1052317" d="M34.526,87.17a54.22,54.22,0,0,0,9.931-.926c9.709-1.69,11.478-5.24,11.478-11.783v-10H33.226V59.416H67.775c6.651,0,12.472-3.134,14.316-10.645,2.084-8.621,2.177-14.021,0-23.023C80.436,19.034,76.8,14,70.142,14H60.978V26.878c0,7.484-6.777,14.876-14.543,14.876H28.177c-6.366,0-12.615,4.7-12.615,11.044V74.461c0,6.154,4.438,10.756,10.642,11.788A42.933,42.933,0,0,0,34.526,87.17ZM47.1,77.077a3.785,3.785,0,1,1,0-7.569,3.785,3.785,0,0,1,0,7.569Z" transform="translate(16.753 13.708)" fill="#ffc107"/>
  </g>
</svg>
