<svg xmlns="http://www.w3.org/2000/svg" width="169.971" height="57.518" viewBox="0 0 169.971 57.518">
  <path id="Trazado_1052549" data-name="Trazado 1052549" d="M180.318,76.228a3.933,3.933,0,1,0,3.934,3.933A3.913,3.913,0,0,0,180.318,76.228Zm-.121.615h.121a3.138,3.138,0,1,1-.121,0Zm-1.476,1.106V82.5h.738V80.53h.738l1.229,1.966h.736l-1.229-2.089c.738,0,1.1-.492,1.1-1.229,0-.86-.49-1.229-1.6-1.229h-1.719Zm.738,1.967V78.44h.982c.615,0,.984.246.984.738s-.369.737-.861.737h-1.1ZM55.821,93.68a23.779,23.779,0,0,0-8.111-3.933c-4.424-1.476-10.692-2.95-13.274-3.811-1.6-.614-2.334-1.6-2.334-2.949,0-1.843,2.212-2.949,4.917-3.072,4.424.123,5.776,2.581,6.021,4.424H55.822V93.68h0ZM71.8,105.6h9.463c8.234-.123,14.871-4.3,18.189-10.2q.369-.738.736-1.475a16.688,16.688,0,0,0,1.477,1.475,24.2,24.2,0,0,0,8.232,4.425c4.918,1.721,8.727,2.949,10.078,3.441,2.459,1.105,4.057,1.842,4.057,4.055,0,2.58-2.949,3.688-5.9,3.811-4.055-.123-8.234-2.09-8.111-6.268H93.8c.86,10.691,11.429,19.049,23.966,19.295,7.619-.123,14.625-2.336,19.172-7.744,4.547,4.67,9.832,7.621,17.33,7.744,11.8-.123,24.088-5.9,24.211-18.436A15.314,15.314,0,0,0,174.912,95.4c-2.213-2.581-5.408-4.425-9.832-5.653-4.426-1.476-10.693-2.95-13.273-3.811-1.6-.614-2.336-1.6-2.336-2.949,0-1.843,2.213-2.949,4.916-3.072,4.426.123,5.777,2.581,6.023,4.424h15.361c.123-10.569-8.725-17.7-21.385-17.7-9.463,0-15.854,3.564-18.926,8.726-3.441-5.408-10.324-8.726-18.926-8.726-9.1,0-15.24,3.441-18.559,8.357-3.688-4.792-9.833-7.866-17.207-7.866H55.821v8.112c-3.441-5.408-10.324-8.6-18.8-8.6C23.867,66.642,16.739,73.893,16,82.25A17.22,17.22,0,0,0,22.392,95.4a22.021,22.021,0,0,0,7.989,4.425c4.916,1.721,8.726,2.949,10.078,3.441,2.458,1.105,4.056,1.842,4.056,4.055,0,2.58-3.073,3.688-5.9,3.811-4.056-.123-8.234-2.09-8.111-6.268H14.281c.86,10.691,11.43,19.049,23.966,19.295,6.882-.123,13.273-1.967,17.575-6.023V123.3H71.8V105.6h0Zm0-25.195h8.6a6.023,6.023,0,0,1,0,12.043H71.8ZM137.059,95.4c-2.213-2.581-5.408-4.425-9.832-5.653-4.424-1.476-10.691-2.95-13.15-3.811-1.721-.614-2.459-1.6-2.459-2.949,0-1.843,2.213-2.949,4.918-3.072,4.547.123,5.775,2.581,6.021,4.424h10.814A17.823,17.823,0,0,0,139.639,95.4a23.653,23.653,0,0,0,8.111,4.425c4.916,1.721,8.727,2.949,9.955,3.441,2.582,1.105,4.18,1.842,4.18,4.055,0,2.58-3.072,3.688-5.9,3.811-4.055-.123-8.234-2.09-8.111-6.268h-7.25a15.706,15.706,0,0,0-3.565-9.465Z" transform="translate(-14.281 -66.642)" fill="#cc1e4c" fill-rule="evenodd"/>
</svg>
