<svg xmlns="http://www.w3.org/2000/svg" xmlns:xlink="http://www.w3.org/1999/xlink" width="103" height="103" viewBox="0 0 103 103">
  <defs>
    <filter id="Trazado_982547" x="0" y="0" width="103" height="103" filterUnits="userSpaceOnUse">
      <feOffset dy="3" input="SourceAlpha"/>
      <feGaussianBlur stdDeviation="3" result="blur"/>
      <feFlood flood-opacity="0.161"/>
      <feComposite operator="in" in2="blur"/>
      <feComposite in="SourceGraphic"/>
    </filter>
    <clipPath id="clip-path">
      <path id="path3018" d="M0-682.665H60.515v60.515H0Z" transform="translate(0 682.665)"/>
    </clipPath>
  </defs>
  <g id="Grupo_1209519" data-name="Grupo 1209519" transform="translate(-611 -4059.612)">
    <g id="Grupo_1207487" data-name="Grupo 1207487" transform="translate(0 396.112)">
      <g id="Grupo_1207315" data-name="Grupo 1207315" transform="translate(0 2919.5)">
        <g id="Grupo_1202210" data-name="Grupo 1202210" transform="translate(340 -126.414)">
          <g id="Grupo_1174813" data-name="Grupo 1174813" transform="translate(280 876.414)">
            <g id="Grupo_1201680" data-name="Grupo 1201680">
              <g id="Grupo_1201330" data-name="Grupo 1201330">
                <g id="Grupo_1172010" data-name="Grupo 1172010">
                  <g id="Grupo_1171046" data-name="Grupo 1171046">
                    <g id="Grupo_1148525" data-name="Grupo 1148525">
                      <g transform="matrix(1, 0, 0, 1, -9, -6)" filter="url(#Trazado_982547)">
                        <g id="Trazado_982547-2" data-name="Trazado 982547" transform="translate(9 6)" fill="#f2f7e5">
                          <path d="M 42.5 83.5 C 36.96437835693359 83.5 31.59512901306152 82.41617584228516 26.54141235351562 80.27863311767578 C 21.65934181213379 78.21369171142578 17.27447128295898 75.25723266601562 13.50862312316895 71.49137878417969 C 9.742764472961426 67.72553253173828 6.786305904388428 63.34066009521484 4.721364498138428 58.45858764648438 C 2.583823442459106 53.40486907958984 1.5 48.03562164306641 1.5 42.5 C 1.5 36.96437835693359 2.583823442459106 31.59512901306152 4.721364498138428 26.54141235351562 C 6.786305904388428 21.65934181213379 9.742764472961426 17.27448272705078 13.50862312316895 13.50862312316895 C 17.27447128295898 9.742776870727539 21.65934181213379 6.786305904388428 26.54141235351562 4.721364498138428 C 31.59512901306152 2.583823442459106 36.96437835693359 1.5 42.5 1.5 C 48.03562164306641 1.5 53.40486907958984 2.583823442459106 58.45858764648438 4.721364498138428 C 63.34066009521484 6.786305904388428 67.72553253173828 9.742776870727539 71.49137878417969 13.50862312316895 C 75.25723266601562 17.27448272705078 78.21369171142578 21.65934181213379 80.27863311767578 26.54141235351562 C 82.41617584228516 31.59512901306152 83.5 36.96437835693359 83.5 42.5 C 83.5 48.03562164306641 82.41617584228516 53.40486907958984 80.27863311767578 58.45858764648438 C 78.21369171142578 63.34066009521484 75.25723266601562 67.72553253173828 71.49137878417969 71.49137878417969 C 67.72553253173828 75.25723266601562 63.34066009521484 78.21369171142578 58.45858764648438 80.27863311767578 C 53.40486907958984 82.41617584228516 48.03562164306641 83.5 42.5 83.5 Z" stroke="none"/>
                          <path d="M 42.5 3 C 37.16621398925781 3 31.99356079101562 4.043960571289062 27.125732421875 6.102882385253906 C 22.42246627807617 8.092185974121094 18.19785308837891 10.94070434570312 14.56928253173828 14.56928253173828 C 10.94070434570312 18.19785308837891 8.092185974121094 22.42246627807617 6.102882385253906 27.125732421875 C 4.043960571289062 31.99356079101562 3 37.16621398925781 3 42.5 C 3 47.83378601074219 4.043960571289062 53.00643920898438 6.102882385253906 57.874267578125 C 8.092185974121094 62.57753372192383 10.94070434570312 66.80214691162109 14.56928253173828 70.43071746826172 C 18.19785308837891 74.05929565429688 22.42246627807617 76.90781402587891 27.125732421875 78.89711761474609 C 31.99356079101562 80.95603942871094 37.16621398925781 82 42.5 82 C 47.83378601074219 82 53.00643920898438 80.95603942871094 57.874267578125 78.89711761474609 C 62.57753372192383 76.90781402587891 66.80214691162109 74.05929565429688 70.43071746826172 70.43071746826172 C 74.05929565429688 66.80214691162109 76.90781402587891 62.57753372192383 78.89711761474609 57.874267578125 C 80.95603942871094 53.00643920898438 82 47.83378601074219 82 42.5 C 82 37.16621398925781 80.95603942871094 31.99356079101562 78.89711761474609 27.125732421875 C 76.90781402587891 22.42246627807617 74.05929565429688 18.19785308837891 70.43071746826172 14.56928253173828 C 66.80214691162109 10.94070434570312 62.57753372192383 8.092185974121094 57.874267578125 6.102882385253906 C 53.00643920898438 4.043960571289062 47.83378601074219 3 42.5 3 M 42.5 0 C 65.97210693359375 0 85 19.02789306640625 85 42.5 C 85 65.97210693359375 65.97210693359375 85 42.5 85 C 19.02789306640625 85 0 65.97210693359375 0 42.5 C 0 19.02789306640625 19.02789306640625 0 42.5 0 Z" stroke="none" fill="#1d7083"/>
                        </g>
                      </g>
                    </g>
                  </g>
                </g>
              </g>
            </g>
          </g>
        </g>
      </g>
    </g>
    <g id="g3012" transform="translate(632.243 4762.74)">
      <g id="g3014" transform="translate(0 -682.665)">
        <g id="g3016" clip-path="url(#clip-path)">
          <g id="g3022" transform="translate(1.182 4.337)">
            <path id="path3024" d="M-537.01-433.64h-46.316a5.918,5.918,0,0,1-5.918-5.917V-469.9a5.918,5.918,0,0,1,5.918-5.918h46.316a5.918,5.918,0,0,1,5.917,5.918v30.344a5.917,5.917,0,0,1-5.917,5.917" transform="translate(589.244 475.819)" fill="#c5e8ff"/>
          </g>
          <g id="g3026" transform="translate(1.182 4.337)">
            <path id="path3028" d="M-537.01-433.64h-46.316a5.918,5.918,0,0,1-5.918-5.917V-469.9a5.918,5.918,0,0,1,5.918-5.918h46.316a5.918,5.918,0,0,1,5.917,5.918v30.344A5.917,5.917,0,0,1-537.01-433.64Z" transform="translate(589.244 475.819)" fill="none" stroke="#000" stroke-linecap="round" stroke-linejoin="round" stroke-miterlimit="10" stroke-width="1.2"/>
          </g>
          <g id="g3030" transform="translate(19.67 7.74)">
            <path id="path3032" d="M-334.77-50.183c0-2.7-7.289-4.881-16.281-4.881s-16.281,2.185-16.281,4.881v9.533c0,2.7,7.289,4.881,16.281,4.881s16.281-2.185,16.281-4.881Z" transform="translate(367.332 55.064)" fill="#f33954"/>
          </g>
          <g id="g3034" transform="translate(19.67 7.74)">
            <path id="path3036" d="M-334.77-50.183c0-2.7-7.289-4.881-16.281-4.881s-16.281,2.185-16.281,4.881v9.533c0,2.7,7.289,4.881,16.281,4.881s16.281-2.185,16.281-4.881Z" transform="translate(367.332 55.064)" fill="none" stroke="#000" stroke-linecap="round" stroke-linejoin="round" stroke-miterlimit="10" stroke-width="1.2"/>
          </g>
          <g id="g3038" transform="translate(19.67 7.74)">
            <path id="path3040" d="M-334.77-50.183c0,2.7-7.289,4.881-16.281,4.881s-16.281-2.185-16.281-4.881,7.289-4.881,16.281-4.881,16.281,2.185,16.281,4.881" transform="translate(367.332 55.064)" fill="#f3a0ac"/>
          </g>
          <g id="g3042" transform="translate(19.67 7.74)">
            <path id="path3044" d="M-334.77-50.183c0,2.7-7.289,4.881-16.281,4.881s-16.281-2.185-16.281-4.881,7.289-4.881,16.281-4.881S-334.77-52.879-334.77-50.183Z" transform="translate(367.332 55.064)" fill="none" stroke="#000" stroke-linecap="round" stroke-linejoin="round" stroke-miterlimit="10" stroke-width="1.2"/>
          </g>
          <g id="g3046" transform="translate(19.67 12.621)">
            <path id="path3048" d="M0,0H0V9.533c0,1.691,2.869,3.181,7.226,4.057l.018-.006V4.061L11,0Z" fill="#f33954"/>
          </g>
          <g id="g3050" transform="translate(19.67 12.621)">
            <path id="path3052" d="M0,0H0V9.533c0,1.691,2.869,3.181,7.226,4.057l.018-.006V4.061L11,0Z" fill="none" stroke="#000" stroke-linecap="round" stroke-linejoin="round" stroke-miterlimit="10" stroke-width="1.2"/>
          </g>
          <g id="g3054" transform="translate(21.744 35.166)">
            <path id="path3056" d="M-282.269-216.019h-23.225a4.23,4.23,0,0,1-4.23-4.23V-232.8a4.23,4.23,0,0,1,4.23-4.23h23.225a4.23,4.23,0,0,1,4.23,4.23v12.551a4.23,4.23,0,0,1-4.23,4.23" transform="translate(309.725 237.03)" fill="#00b8ff"/>
          </g>
          <g id="g3058" transform="translate(21.745 35.166)">
            <path id="path3060" d="M-171.26,0h10.8a4.23,4.23,0,0,1,4.23,4.23V16.781a4.23,4.23,0,0,1-4.23,4.23h-23.225a4.23,4.23,0,0,1-4.23-4.23V4.23A4.23,4.23,0,0,1-183.688,0h2.972" transform="translate(187.918)" fill="none" stroke="#000" stroke-linecap="round" stroke-linejoin="round" stroke-miterlimit="10" stroke-width="1.2"/>
          </g>
          <g id="g3062" transform="translate(26.453 47.735)">
            <path id="path3064" d="M-25.638,0h0a2.494,2.494,0,0,0-2.494,2.494V8.443h4.988V2.494A2.494,2.494,0,0,0-25.638,0" transform="translate(28.132)" fill="#fb0"/>
          </g>
          <g id="g3066" transform="translate(26.453 47.735)">
            <path id="path3068" d="M-25.638,0h0a2.494,2.494,0,0,0-2.494,2.494V8.443h4.988V2.494A2.494,2.494,0,0,0-25.638,0Z" transform="translate(28.132)" fill="none" stroke="#000" stroke-linecap="round" stroke-linejoin="round" stroke-miterlimit="10" stroke-width="1.2"/>
          </g>
          <g id="g3070" transform="translate(35.31 42.85)">
            <path id="path3072" d="M-25.639,0h0a2.494,2.494,0,0,0-2.494,2.494V13.327h4.988V2.494A2.494,2.494,0,0,0-25.639,0" transform="translate(28.133)" fill="#fb0"/>
          </g>
          <g id="g3074" transform="translate(35.31 42.85)">
            <path id="path3076" d="M-25.639,0h0a2.494,2.494,0,0,0-2.494,2.494V13.327h4.988V2.494A2.494,2.494,0,0,0-25.639,0Z" transform="translate(28.133)" fill="none" stroke="#000" stroke-linecap="round" stroke-linejoin="round" stroke-miterlimit="10" stroke-width="1.2"/>
          </g>
          <g id="g3078" transform="translate(44.168 40.068)">
            <path id="path3080" d="M-25.638,0h0a2.494,2.494,0,0,0-2.494,2.494V16.109h4.988V2.494A2.494,2.494,0,0,0-25.638,0" transform="translate(28.132)" fill="#fb0"/>
          </g>
          <g id="g3082" transform="translate(44.168 40.068)">
            <path id="path3084" d="M-25.638,0h0a2.494,2.494,0,0,0-2.494,2.494V16.109h4.988V2.494A2.494,2.494,0,0,0-25.638,0Z" transform="translate(28.132)" fill="none" stroke="#000" stroke-linecap="round" stroke-linejoin="round" stroke-miterlimit="10" stroke-width="1.2"/>
          </g>
          <g id="g3086" transform="translate(8.454 13.221)">
            <path id="path3088" d="M0-63.7v-2.017A4.179,4.179,0,0,1,4.179-69.89h1.5" transform="translate(0 69.89)" fill="none" stroke="#000" stroke-linecap="round" stroke-linejoin="round" stroke-miterlimit="10" stroke-width="1.2"/>
          </g>
          <g id="g3090" transform="translate(5.135 23.683)">
            <path id="path3092" d="M-13,0a1.265,1.265,0,0,0-1.265,1.265V8.616c.466,2.867,7.19,4.021,7.19,4.021l3.443-3.184a.88.88,0,0,0,.282-.646V1.117A1.117,1.117,0,0,0-4.466,0Z" transform="translate(14.265)" fill="#fb0"/>
          </g>
          <g id="g3094" transform="translate(5.601 23.683)">
            <path id="path3096" d="M-72.811-37.454l2.615-2.829a.485.485,0,0,0-.356-.814h-8.5a.836.836,0,0,0-.576,1.44c1.045,1.008,3.158,1.874,5.942,2.481a.931.931,0,0,0,.881-.278" transform="translate(79.893 41.097)" fill="#ffdf85"/>
          </g>
          <g id="g3098" transform="translate(12.325 24.03)">
            <path id="path3100" d="M0-126.362l3.443-3.184a.879.879,0,0,0,.282-.646v-7.69a1.112,1.112,0,0,0-.31-.77L.2-135.192c-.2.207-.2.616-.194,1.142Z" transform="translate(0 138.653)" fill="#ffdf85"/>
          </g>
          <g id="g3102" transform="translate(33.675 35.166)">
            <path id="path3104" d="M0,0H0" fill="none" stroke="#000" stroke-linecap="round" stroke-linejoin="round" stroke-miterlimit="10" stroke-width="1.2"/>
          </g>
          <g id="g3106" transform="translate(5.135 23.683)">
            <path id="path3108" d="M-13,0a1.265,1.265,0,0,0-1.265,1.265V8.616c.466,2.867,7.19,4.021,7.19,4.021l3.443-3.184a.88.88,0,0,0,.282-.646V1.117A1.117,1.117,0,0,0-4.466,0Z" transform="translate(14.265)" fill="none" stroke="#000" stroke-linecap="round" stroke-linejoin="round" stroke-miterlimit="10" stroke-width="1.2"/>
          </g>
          <g id="g3110" transform="translate(5.601 23.683)">
            <path id="path3112" d="M-72.811-37.454l2.615-2.829a.485.485,0,0,0-.356-.814h-8.5a.836.836,0,0,0-.576,1.44c1.045,1.008,3.158,1.874,5.942,2.481A.931.931,0,0,0-72.811-37.454Z" transform="translate(79.893 41.097)" fill="none" stroke="#000" stroke-linecap="round" stroke-linejoin="round" stroke-miterlimit="10" stroke-width="1.2"/>
          </g>
          <g id="g3114" transform="translate(12.325 24.03)">
            <path id="path3116" d="M0-126.362l3.443-3.184a.879.879,0,0,0,.282-.646v-7.69a1.112,1.112,0,0,0-.31-.77L.2-135.192c-.2.207-.2.616-.194,1.142Z" transform="translate(0 138.653)" fill="none" stroke="#000" stroke-linecap="round" stroke-linejoin="round" stroke-miterlimit="10" stroke-width="1.2"/>
          </g>
        </g>
      </g>
    </g>
  </g>
</svg>
