<svg xmlns="http://www.w3.org/2000/svg" xmlns:xlink="http://www.w3.org/1999/xlink" width="103" height="103" viewBox="0 0 103 103">
  <defs>
    <filter id="Trazado_982547" x="0" y="0" width="103" height="103" filterUnits="userSpaceOnUse">
      <feOffset dy="3" input="SourceAlpha"/>
      <feGaussianBlur stdDeviation="3" result="blur"/>
      <feFlood flood-opacity="0.161"/>
      <feComposite operator="in" in2="blur"/>
      <feComposite in="SourceGraphic"/>
    </filter>
  </defs>
  <g id="Grupo_1209527" data-name="Grupo 1209527" transform="translate(-611 -4743.612)">
    <g id="Grupo_1209392" data-name="Grupo 1209392" transform="translate(0 1080.112)">
      <g id="Grupo_1207315" data-name="Grupo 1207315" transform="translate(0 2919.5)">
        <g id="Grupo_1202210" data-name="Grupo 1202210" transform="translate(340 -126.414)">
          <g id="Grupo_1174813" data-name="Grupo 1174813" transform="translate(280 876.414)">
            <g id="Grupo_1201680" data-name="Grupo 1201680">
              <g id="Grupo_1201330" data-name="Grupo 1201330">
                <g id="Grupo_1172010" data-name="Grupo 1172010">
                  <g id="Grupo_1171046" data-name="Grupo 1171046">
                    <g id="Grupo_1148525" data-name="Grupo 1148525">
                      <g transform="matrix(1, 0, 0, 1, -9, -6)" filter="url(#Trazado_982547)">
                        <g id="Trazado_982547-2" data-name="Trazado 982547" transform="translate(9 6)" fill="#e9f9fd">
                          <path d="M 42.5 83.5 C 36.96437835693359 83.5 31.59512901306152 82.41617584228516 26.54141235351562 80.27863311767578 C 21.65934181213379 78.21369171142578 17.27447128295898 75.25723266601562 13.50862312316895 71.49137878417969 C 9.742764472961426 67.72553253173828 6.786305904388428 63.34066009521484 4.721364498138428 58.45858764648438 C 2.583823442459106 53.40486907958984 1.5 48.03562164306641 1.5 42.5 C 1.5 36.96437835693359 2.583823442459106 31.59512901306152 4.721364498138428 26.54141235351562 C 6.786305904388428 21.65934181213379 9.742764472961426 17.27448272705078 13.50862312316895 13.50862312316895 C 17.27447128295898 9.742776870727539 21.65934181213379 6.786305904388428 26.54141235351562 4.721364498138428 C 31.59512901306152 2.583823442459106 36.96437835693359 1.5 42.5 1.5 C 48.03562164306641 1.5 53.40486907958984 2.583823442459106 58.45858764648438 4.721364498138428 C 63.34066009521484 6.786305904388428 67.72553253173828 9.742776870727539 71.49137878417969 13.50862312316895 C 75.25723266601562 17.27448272705078 78.21369171142578 21.65934181213379 80.27863311767578 26.54141235351562 C 82.41617584228516 31.59512901306152 83.5 36.96437835693359 83.5 42.5 C 83.5 48.03562164306641 82.41617584228516 53.40486907958984 80.27863311767578 58.45858764648438 C 78.21369171142578 63.34066009521484 75.25723266601562 67.72553253173828 71.49137878417969 71.49137878417969 C 67.72553253173828 75.25723266601562 63.34066009521484 78.21369171142578 58.45858764648438 80.27863311767578 C 53.40486907958984 82.41617584228516 48.03562164306641 83.5 42.5 83.5 Z" stroke="none"/>
                          <path d="M 42.5 3 C 37.16621398925781 3 31.99356079101562 4.043960571289062 27.125732421875 6.102882385253906 C 22.42246627807617 8.092185974121094 18.19785308837891 10.94070434570312 14.56928253173828 14.56928253173828 C 10.94070434570312 18.19785308837891 8.092185974121094 22.42246627807617 6.102882385253906 27.125732421875 C 4.043960571289062 31.99356079101562 3 37.16621398925781 3 42.5 C 3 47.83378601074219 4.043960571289062 53.00643920898438 6.102882385253906 57.874267578125 C 8.092185974121094 62.57753372192383 10.94070434570312 66.80214691162109 14.56928253173828 70.43071746826172 C 18.19785308837891 74.05929565429688 22.42246627807617 76.90781402587891 27.125732421875 78.89711761474609 C 31.99356079101562 80.95603942871094 37.16621398925781 82 42.5 82 C 47.83378601074219 82 53.00643920898438 80.95603942871094 57.874267578125 78.89711761474609 C 62.57753372192383 76.90781402587891 66.80214691162109 74.05929565429688 70.43071746826172 70.43071746826172 C 74.05929565429688 66.80214691162109 76.90781402587891 62.57753372192383 78.89711761474609 57.874267578125 C 80.95603942871094 53.00643920898438 82 47.83378601074219 82 42.5 C 82 37.16621398925781 80.95603942871094 31.99356079101562 78.89711761474609 27.125732421875 C 76.90781402587891 22.42246627807617 74.05929565429688 18.19785308837891 70.43071746826172 14.56928253173828 C 66.80214691162109 10.94070434570312 62.57753372192383 8.092185974121094 57.874267578125 6.102882385253906 C 53.00643920898438 4.043960571289062 47.83378601074219 3 42.5 3 M 42.5 0 C 65.97210693359375 0 85 19.02789306640625 85 42.5 C 85 65.97210693359375 65.97210693359375 85 42.5 85 C 19.02789306640625 85 0 65.97210693359375 0 42.5 C 0 19.02789306640625 19.02789306640625 0 42.5 0 Z" stroke="none" fill="#36ceef"/>
                        </g>
                      </g>
                    </g>
                  </g>
                </g>
              </g>
            </g>
          </g>
        </g>
      </g>
    </g>
    <g id="smartphone_1712326" transform="translate(635.469 4763.852)">
      <path id="Trazado_1052499" data-name="Trazado 1052499" d="M96.008,344H127.8v7.065H96.008Zm0,0" transform="translate(-85.409 -306.025)" fill="#69d3ff"/>
      <path id="Trazado_1052500" data-name="Trazado 1052500" d="M96.008,344H127.8v3.533H96.008Zm0,0" transform="translate(-85.409 -306.025)" fill="#32c5f4"/>
      <path id="Trazado_1052501" data-name="Trazado 1052501" d="M96.008,408v8.831a1.766,1.766,0,0,0,1.766,1.766h28.261a1.766,1.766,0,0,0,1.766-1.766V408Zm0,0" transform="translate(-85.409 -362.96)" fill="#f6f6f6"/>
      <path id="Trazado_1052502" data-name="Trazado 1052502" d="M329.774,408v8.831a1.766,1.766,0,0,1-1.766,1.766h4.416a1.766,1.766,0,0,0,1.766-1.766V408Zm0,0" transform="translate(-291.798 -362.96)" fill="#ccd6e3"/>
      <path id="Trazado_1052503" data-name="Trazado 1052503" d="M115.334,48V80.677H101.2v3.533l-4.416-3.533H80.008V48Zm0,0" transform="translate(-71.175 -42.701)" fill="#8687c9"/>
      <path id="Trazado_1052504" data-name="Trazado 1052504" d="M208.891,440h5.3a.883.883,0,0,1,.883.883v1.766a.883.883,0,0,1-.883.883h-5.3a.883.883,0,0,1-.883-.883v-1.766A.883.883,0,0,1,208.891,440Zm0,0" transform="translate(-185.045 -391.427)" fill="#fe7073"/>
      <path id="Trazado_1052505" data-name="Trazado 1052505" d="M242.657,440h-2.649a.883.883,0,0,1,.883.883v1.766a.883.883,0,0,1-.883.883h2.649a.883.883,0,0,0,.883-.883v-1.766A.883.883,0,0,0,242.657,440Zm0,0" transform="translate(-213.512 -391.427)" fill="#fc5452"/>
      <path id="Trazado_1052506" data-name="Trazado 1052506" d="M80.008,8h7.065v4.416H80.008Zm0,0" transform="translate(-71.175 -7.117)" fill="#ccd6e3"/>
      <path id="Trazado_1052507" data-name="Trazado 1052507" d="M352.008,8h5.3v4.416h-5.3Zm0,0" transform="translate(-313.148 -7.117)" fill="#ccd6e3"/>
      <path id="Trazado_1052508" data-name="Trazado 1052508" d="M144.008,8H166.97v4.416H144.008Zm0,0" transform="translate(-128.11 -7.117)" fill="#f6f6f6"/>
      <path id="Trazado_1052509" data-name="Trazado 1052509" d="M111.8,48H80.008v2.649H111.8V80.677h3.533V48Zm0,0" transform="translate(-71.175 -42.701)" fill="#626393"/>
      <path id="Trazado_1052510" data-name="Trazado 1052510" d="M271.956,218.649v1.766h-5.3v-1.766L264.008,216h5.3Zm0,0" transform="translate(-234.863 -192.155)" fill="#ff8a17"/>
      <path id="Trazado_1052511" data-name="Trazado 1052511" d="M157.255,216l-2.649,2.649v1.766h-10.6v-1.766L146.657,216Zm0,0" transform="translate(-128.11 -192.155)" fill="#ff8a17"/>
      <path id="Trazado_1052512" data-name="Trazado 1052512" d="M266.657,220.416h2.649V226.6h-5.3V216l2.649,2.649Zm0,0" transform="translate(-234.863 -192.155)" fill="#fd9b3a"/>
      <path id="Trazado_1052513" data-name="Trazado 1052513" d="M178.606,216v10.6h-10.6v-6.182h7.948v-1.766Zm0,0" transform="translate(-149.461 -192.155)" fill="#ffb05e"/>
      <path id="Trazado_1052514" data-name="Trazado 1052514" d="M34.606,80.883v2.649h-10.6V80h3.533l.883.883Zm0,0" transform="translate(-21.357 -71.169)" fill="#ff8a17"/>
      <path id="Trazado_1052515" data-name="Trazado 1052515" d="M20.372,112h1.766l-1.766,7.948H9.774L8.008,112Zm0,0" transform="translate(-7.124 -99.636)" fill="#ffb05e"/>
      <path id="Trazado_1052516" data-name="Trazado 1052516" d="M19.229,132.656a10.375,10.375,0,0,0-5.448.423l1.129,5.081h10.6l.765-3.444a7.757,7.757,0,0,1-2.236-.353c-1.628-.5-3.143-1.35-4.808-1.706Zm0,0" transform="translate(-12.26 -117.848)" fill="#fd9b3a"/>
      <path id="Trazado_1052517" data-name="Trazado 1052517" d="M356.424,160v4.416L352.008,160Zm0,0" transform="translate(-313.148 -142.337)" fill="#f6f6f6"/>
      <path id="Trazado_1052518" data-name="Trazado 1052518" d="M361.723,88v12.364h-5.3V95.948h-4.416V88Zm0,0" transform="translate(-313.148 -78.286)" fill="#ccd6e3"/>
      <path id="Trazado_1052519" data-name="Trazado 1052519" d="M357.66,123.832a9.965,9.965,0,0,0-5.652-.762v3.969h4.416v4.416h5.3v-5.984c-.737.033-.6-.061-1.3-.3-.969-.333-1.835-.909-2.766-1.337Zm0,0" transform="translate(-313.148 -109.376)" fill="#f6f6f6"/>
      <g id="Grupo_1209526" data-name="Grupo 1209526" transform="translate(0 0)">
        <path id="Trazado_1052520" data-name="Trazado 1052520" d="M207.073,432h-5.3a1.766,1.766,0,0,0-1.766,1.766v1.766a1.766,1.766,0,0,0,1.766,1.766h5.3a1.766,1.766,0,0,0,1.766-1.766v-1.766A1.766,1.766,0,0,0,207.073,432Zm0,3.533h-5.3v-1.766h5.3Zm0,0" transform="translate(-177.928 -384.31)" fill="#252340"/>
        <path id="Trazado_1052521" data-name="Trazado 1052521" d="M128.008,400h24.728v1.766H128.008Zm0,0" transform="translate(-113.877 -355.842)" fill="#252340"/>
        <path id="Trazado_1052522" data-name="Trazado 1052522" d="M139.541,220.364h15.9a.883.883,0,0,0,.883-.883v-5.3h1.766a.883.883,0,0,0,.883-.883v-1.766a.883.883,0,0,0-.259-.624l-2.649-2.649a.883.883,0,0,0-.624-.259h-15.9a.883.883,0,0,0-.624.259l-2.649,2.649a.883.883,0,0,0-.259.624V213.3a.883.883,0,0,0,.883.883h1.766v5.3A.883.883,0,0,0,139.541,220.364Zm15.531-10.6L157.2,211.9v.517h-3.533v-.883a.883.883,0,0,0-.259-.624l-1.142-1.142Zm-2.284,4.416h1.766V218.6h-3.533v-7.583l.883.883v1.4A.883.883,0,0,0,152.788,214.182Zm-4.416-.883v-1.4l.883-.883V218.6h-8.832v-4.416h7.065A.883.883,0,0,0,148.372,213.3Zm-10.6-.883V211.9l2.132-2.132h8.1l-1.142,1.142a.883.883,0,0,0-.259.624v.883Zm0,0" transform="translate(-120.994 -185.038)" fill="#252340"/>
        <path id="Trazado_1052523" data-name="Trazado 1052523" d="M112.633,80h-9.715a.883.883,0,0,0-.883.883v7.948c0,.019.009.035.01.055a.878.878,0,0,0,.046.229c.009.028.017.055.029.082a.887.887,0,0,0,.177.259l4.416,4.416a.888.888,0,0,0,.621.259v14.13H94.087a.883.883,0,0,0-.883.883v1.695l-2.981-2.384a.884.884,0,0,0-.552-.194h-15.9V94.13H72.008v15.014a.883.883,0,0,0,.883.883h.883v15.014a2.649,2.649,0,0,0,2.649,2.649h28.261a2.65,2.65,0,0,0,2.649-2.649V110.027h.883a.883.883,0,0,0,.883-.883V94.13h3.533a.883.883,0,0,0,.883-.883V80.883A.883.883,0,0,0,112.633,80Zm-7.065,45.041a.883.883,0,0,1-.883.883H76.424a.883.883,0,0,1-.883-.883V110.027h13.82l4.174,3.339a.883.883,0,0,0,1.435-.69v-2.649h10.6Zm-.517-35.326h1.4v1.4Zm6.7,2.649h-3.533V88.832a.883.883,0,0,0-.883-.883H103.8V81.766h7.948Zm0,0" transform="translate(-64.059 -71.168)" fill="#252340"/>
        <path id="Trazado_1052524" data-name="Trazado 1052524" d="M14.111,20.5l1.766-7.948a.884.884,0,0,0-.863-1.075h-.883V9.714a.883.883,0,0,0-.883-.883H9.716V6.182h33.56v.883h1.766V.883A.883.883,0,0,0,44.159,0H8.833a.883.883,0,0,0-.883.883V8.831H7.432l-.624-.624a.883.883,0,0,0-.624-.259H2.651a.883.883,0,0,0-.883.883v2.649H.884a.883.883,0,0,0-.863,1.075L1.788,20.5a.883.883,0,0,0,.863.692h10.6a.883.883,0,0,0,.863-.692Zm2.67-16.088V1.766h21.2V4.415Zm26.495,0H39.743V1.766h3.533ZM15.015,1.766V4.415h-5.3V1.766ZM3.534,9.714H5.817l.624.624a.883.883,0,0,0,.624.259h5.3v.883H3.534Zm-.177,9.715L1.986,13.247H13.913l-1.372,6.182Zm0,0" transform="translate(0 0)" fill="#252340"/>
        <path id="Trazado_1052525" data-name="Trazado 1052525" d="M205.626,88v8.466L203.6,94.441l-1.249,1.249,3.533,3.533a.884.884,0,0,0,1.249,0l3.533-3.533-1.249-1.249-2.025,2.025V88Zm0,0" transform="translate(-180.013 -78.285)" fill="#252340"/>
        <path id="Trazado_1052526" data-name="Trazado 1052526" d="M264.008,88h1.766v1.766h-1.766Zm0,0" transform="translate(-234.863 -78.285)" fill="#252340"/>
        <path id="Trazado_1052527" data-name="Trazado 1052527" d="M296.008,88h1.766v1.766h-1.766Zm0,0" transform="translate(-263.331 -78.285)" fill="#252340"/>
        <path id="Trazado_1052528" data-name="Trazado 1052528" d="M200.008,88h1.766v1.766h-1.766Zm0,0" transform="translate(-177.928 -78.285)" fill="#252340"/>
        <path id="Trazado_1052529" data-name="Trazado 1052529" d="M168.008,88h1.766v1.766h-1.766Zm0,0" transform="translate(-149.461 -78.285)" fill="#252340"/>
      </g>
    </g>
  </g>
</svg>
