<svg xmlns="http://www.w3.org/2000/svg" xmlns:xlink="http://www.w3.org/1999/xlink" width="103" height="103" viewBox="0 0 103 103">
  <defs>
    <filter id="Trazado_982547" x="0" y="0" width="103" height="103" filterUnits="userSpaceOnUse">
      <feOffset dy="3" input="SourceAlpha"/>
      <feGaussianBlur stdDeviation="3" result="blur"/>
      <feFlood flood-opacity="0.161"/>
      <feComposite operator="in" in2="blur"/>
      <feComposite in="SourceGraphic"/>
    </filter>
  </defs>
  <g id="Grupo_1209531" data-name="Grupo 1209531" transform="translate(-1031 -4743.612)">
    <g id="Grupo_1209393" data-name="Grupo 1209393" transform="translate(0 1080.112)">
      <g id="Grupo_1207317" data-name="Grupo 1207317" transform="translate(0 2919.5)">
        <g id="Grupo_1202211" data-name="Grupo 1202211" transform="translate(760 -126.414)">
          <g id="Grupo_1174813" data-name="Grupo 1174813" transform="translate(280 876.414)">
            <g id="Grupo_1201680" data-name="Grupo 1201680">
              <g id="Grupo_1201330" data-name="Grupo 1201330">
                <g id="Grupo_1172010" data-name="Grupo 1172010">
                  <g id="Grupo_1171046" data-name="Grupo 1171046">
                    <g id="Grupo_1148525" data-name="Grupo 1148525">
                      <g transform="matrix(1, 0, 0, 1, -9, -6)" filter="url(#Trazado_982547)">
                        <g id="Trazado_982547-2" data-name="Trazado 982547" transform="translate(9 6)" fill="#e9f9fd">
                          <path d="M 42.5 83.5 C 36.96437835693359 83.5 31.59512901306152 82.41617584228516 26.54141235351562 80.27863311767578 C 21.65934181213379 78.21369171142578 17.27447128295898 75.25723266601562 13.50862312316895 71.49137878417969 C 9.742764472961426 67.72553253173828 6.786305904388428 63.34066009521484 4.721364498138428 58.45858764648438 C 2.583823442459106 53.40486907958984 1.5 48.03562164306641 1.5 42.5 C 1.5 36.96437835693359 2.583823442459106 31.59512901306152 4.721364498138428 26.54141235351562 C 6.786305904388428 21.65934181213379 9.742764472961426 17.27448272705078 13.50862312316895 13.50862312316895 C 17.27447128295898 9.742776870727539 21.65934181213379 6.786305904388428 26.54141235351562 4.721364498138428 C 31.59512901306152 2.583823442459106 36.96437835693359 1.5 42.5 1.5 C 48.03562164306641 1.5 53.40486907958984 2.583823442459106 58.45858764648438 4.721364498138428 C 63.34066009521484 6.786305904388428 67.72553253173828 9.742776870727539 71.49137878417969 13.50862312316895 C 75.25723266601562 17.27448272705078 78.21369171142578 21.65934181213379 80.27863311767578 26.54141235351562 C 82.41617584228516 31.59512901306152 83.5 36.96437835693359 83.5 42.5 C 83.5 48.03562164306641 82.41617584228516 53.40486907958984 80.27863311767578 58.45858764648438 C 78.21369171142578 63.34066009521484 75.25723266601562 67.72553253173828 71.49137878417969 71.49137878417969 C 67.72553253173828 75.25723266601562 63.34066009521484 78.21369171142578 58.45858764648438 80.27863311767578 C 53.40486907958984 82.41617584228516 48.03562164306641 83.5 42.5 83.5 Z" stroke="none"/>
                          <path d="M 42.5 3 C 37.16621398925781 3 31.99356079101562 4.043960571289062 27.125732421875 6.102882385253906 C 22.42246627807617 8.092185974121094 18.19785308837891 10.94070434570312 14.56928253173828 14.56928253173828 C 10.94070434570312 18.19785308837891 8.092185974121094 22.42246627807617 6.102882385253906 27.125732421875 C 4.043960571289062 31.99356079101562 3 37.16621398925781 3 42.5 C 3 47.83378601074219 4.043960571289062 53.00643920898438 6.102882385253906 57.874267578125 C 8.092185974121094 62.57753372192383 10.94070434570312 66.80214691162109 14.56928253173828 70.43071746826172 C 18.19785308837891 74.05929565429688 22.42246627807617 76.90781402587891 27.125732421875 78.89711761474609 C 31.99356079101562 80.95603942871094 37.16621398925781 82 42.5 82 C 47.83378601074219 82 53.00643920898438 80.95603942871094 57.874267578125 78.89711761474609 C 62.57753372192383 76.90781402587891 66.80214691162109 74.05929565429688 70.43071746826172 70.43071746826172 C 74.05929565429688 66.80214691162109 76.90781402587891 62.57753372192383 78.89711761474609 57.874267578125 C 80.95603942871094 53.00643920898438 82 47.83378601074219 82 42.5 C 82 37.16621398925781 80.95603942871094 31.99356079101562 78.89711761474609 27.125732421875 C 76.90781402587891 22.42246627807617 74.05929565429688 18.19785308837891 70.43071746826172 14.56928253173828 C 66.80214691162109 10.94070434570312 62.57753372192383 8.092185974121094 57.874267578125 6.102882385253906 C 53.00643920898438 4.043960571289062 47.83378601074219 3 42.5 3 M 42.5 0 C 65.97210693359375 0 85 19.02789306640625 85 42.5 C 85 65.97210693359375 65.97210693359375 85 42.5 85 C 19.02789306640625 85 0 65.97210693359375 0 42.5 C 0 19.02789306640625 19.02789306640625 0 42.5 0 Z" stroke="none" fill="#36ceef"/>
                        </g>
                      </g>
                    </g>
                  </g>
                </g>
              </g>
            </g>
          </g>
        </g>
      </g>
    </g>
    <g id="presentation_551694" transform="translate(1052.301 4759.468)">
      <g id="Grupo_1209528" data-name="Grupo 1209528" transform="translate(27.363 4.971)">
        <rect id="Rectángulo_422450" data-name="Rectángulo 422450" width="5.673" height="3.782" transform="translate(0 53.896)" fill="#6d7173"/>
        <rect id="Rectángulo_422451" data-name="Rectángulo 422451" width="5.673" height="5.673" transform="translate(0 0)" fill="#6d7173"/>
      </g>
      <path id="Trazado_1052530" data-name="Trazado 1052530" d="M66.154,94.314v5.673H7.53V94.314H9.421V60.274H64.263v34.04Z" transform="translate(-6.642 -49.63)" fill="#c3c7c9"/>
      <rect id="Rectángulo_422452" data-name="Rectángulo 422452" width="58.623" height="5.673" transform="translate(0.888 44.685)" fill="#6d7173"/>
      <rect id="Rectángulo_422453" data-name="Rectángulo 422453" width="6.619" height="34.04" transform="translate(2.779 10.645)" fill="#adb1b3"/>
      <rect id="Rectángulo_422454" data-name="Rectángulo 422454" width="6.619" height="5.673" transform="translate(0.888 44.685)" fill="#535758"/>
      <path id="Trazado_1052531" data-name="Trazado 1052531" d="M309.781,116.383v18.911h-5.673V116.383Z" transform="translate(-268.234 -99.12)" fill="#42c668"/>
      <path id="Trazado_1052532" data-name="Trazado 1052532" d="M261.687,164.477v13.238h-5.673V164.477Z" transform="translate(-225.814 -141.54)" fill="#ffdb55"/>
      <rect id="Rectángulo_422455" data-name="Rectángulo 422455" width="5.673" height="9.455" transform="translate(24.527 26.718)" fill="#f26433"/>
      <path id="Trazado_1052533" data-name="Trazado 1052533" d="M165.5,154.118v9.455h-5.673V148.445H165.5Z" transform="translate(-140.973 -127.4)" fill="#3f89f5"/>
      <rect id="Rectángulo_422456" data-name="Rectángulo 422456" width="2.837" height="15.129" transform="translate(18.854 21.045)" fill="#3f6bf5"/>
      <rect id="Rectángulo_422457" data-name="Rectángulo 422457" width="2.837" height="9.455" transform="translate(24.527 26.718)" fill="#ef3e25"/>
      <rect id="Rectángulo_422458" data-name="Rectángulo 422458" width="2.837" height="13.238" transform="translate(30.2 22.937)" fill="#fdb328"/>
      <rect id="Rectángulo_422459" data-name="Rectángulo 422459" width="2.837" height="18.911" transform="translate(35.873 17.264)" fill="#00ac7d"/>
      <g id="Grupo_1209529" data-name="Grupo 1209529" transform="translate(0 4.007)">
        <path id="Trazado_1052534" data-name="Trazado 1052534" d="M173.078,93.588V86.142h-1.891V52.1h-15.07v1.773h13.3V86.142H132.479v1.773H171.3v3.9H127.751v1.773h14.242v6.737h-2.837v5.555H146.6v-5.555h-2.837V93.588h29.312ZM144.83,102.1v2.009h-3.9V102.1Z" transform="translate(-112.681 -46.429)" fill="#231f20"/>
        <path id="Trazado_1052535" data-name="Trazado 1052535" d="M1.773,45.493H3.664V11.454H40.6V9.68H33.922V4.007H26.475V9.68H1.891V43.72H0v7.447H12.233V49.393H1.773ZM28.248,5.78h3.9v3.9h-3.9Z" transform="translate(0 -4.007)" fill="#231f20"/>
      </g>
      <rect id="Rectángulo_422460" data-name="Rectángulo 422460" width="1.891" height="1.773" transform="translate(16.016 43.72)" fill="#fff"/>
      <rect id="Rectángulo_422461" data-name="Rectángulo 422461" width="1.891" height="1.773" transform="translate(12.233 43.72)" fill="#231f20"/>
      <rect id="Rectángulo_422462" data-name="Rectángulo 422462" width="1.891" height="1.773" transform="translate(8.451 43.72)" fill="#fff"/>
      <g id="Grupo_1209530" data-name="Grupo 1209530" transform="translate(11.287 16.299)">
        <path id="Trazado_1052536" data-name="Trazado 1052536" d="M158.007,128.894v-1.773h-2.9v-10.46h-1.773v10.46h-3.9V109.983h3.9v3.841h1.773V108.21h-7.447v5.673h-5.673v3.782h-3.9v-5.673h-7.447v15.129h-2.9v1.773Zm-14.242-13.238h3.9v11.464h-3.9Zm-5.673,3.782h3.9v7.682h-3.9Zm-5.673-5.673h3.9v13.356h-3.9Z" transform="translate(-123.966 -108.21)" fill="#231f20"/>
        <rect id="Rectángulo_422463" data-name="Rectángulo 422463" width="1.891" height="1.773" transform="translate(35.931 18.911)" fill="#231f20"/>
        <rect id="Rectángulo_422464" data-name="Rectángulo 422464" width="1.891" height="1.773" transform="translate(0 18.911)" fill="#231f20"/>
      </g>
      <path id="Trazado_1052537" data-name="Trazado 1052537" d="M55.6,84.165H48.094v6.56h1.773V85.938H55.6Z" transform="translate(-42.421 -70.702)" fill="#fff"/>
    </g>
  </g>
</svg>
