<svg xmlns="http://www.w3.org/2000/svg" xmlns:xlink="http://www.w3.org/1999/xlink" width="103" height="103" viewBox="0 0 103 103">
  <defs>
    <filter id="Trazado_982547" x="0" y="0" width="103" height="103" filterUnits="userSpaceOnUse">
      <feOffset dy="3" input="SourceAlpha"/>
      <feGaussianBlur stdDeviation="3" result="blur"/>
      <feFlood flood-opacity="0.161"/>
      <feComposite operator="in" in2="blur"/>
      <feComposite in="SourceGraphic"/>
    </filter>
  </defs>
  <g id="Grupo_1209533" data-name="Grupo 1209533" transform="translate(-191 -856.254)">
    <g id="Grupo_1209532" data-name="Grupo 1209532">
      <g id="Grupo_1209407" data-name="Grupo 1209407" transform="translate(0 -3947.243)">
        <g id="Grupo_1207682" data-name="Grupo 1207682" transform="translate(0 2033.284)">
          <g id="Grupo_1207604" data-name="Grupo 1207604" transform="translate(0 -893.287)">
            <g id="Grupo_1207313" data-name="Grupo 1207313" transform="translate(0 2919.5)">
              <g id="Grupo_1202212" data-name="Grupo 1202212" transform="translate(-80 -126.414)">
                <g id="Grupo_1174813" data-name="Grupo 1174813" transform="translate(280 876.414)">
                  <g id="Grupo_1201680" data-name="Grupo 1201680">
                    <g id="Grupo_1201330" data-name="Grupo 1201330">
                      <g id="Grupo_1172010" data-name="Grupo 1172010">
                        <g id="Grupo_1171046" data-name="Grupo 1171046">
                          <g id="Grupo_1148525" data-name="Grupo 1148525">
                            <g transform="matrix(1, 0, 0, 1, -9, -6)" filter="url(#Trazado_982547)">
                              <g id="Trazado_982547-2" data-name="Trazado 982547" transform="translate(9 6)" fill="#f2f7e5">
                                <path d="M 42.5 83.5 C 36.96437835693359 83.5 31.59512901306152 82.41617584228516 26.54141235351562 80.27863311767578 C 21.65934181213379 78.21369171142578 17.27447128295898 75.25723266601562 13.50862312316895 71.49137878417969 C 9.742764472961426 67.72553253173828 6.786305904388428 63.34066009521484 4.721364498138428 58.45858764648438 C 2.583823442459106 53.40486907958984 1.5 48.03562164306641 1.5 42.5 C 1.5 36.96437835693359 2.583823442459106 31.59512901306152 4.721364498138428 26.54141235351562 C 6.786305904388428 21.65934181213379 9.742764472961426 17.27448272705078 13.50862312316895 13.50862312316895 C 17.27447128295898 9.742776870727539 21.65934181213379 6.786305904388428 26.54141235351562 4.721364498138428 C 31.59512901306152 2.583823442459106 36.96437835693359 1.5 42.5 1.5 C 48.03562164306641 1.5 53.40486907958984 2.583823442459106 58.45858764648438 4.721364498138428 C 63.34066009521484 6.786305904388428 67.72553253173828 9.742776870727539 71.49137878417969 13.50862312316895 C 75.25723266601562 17.27448272705078 78.21369171142578 21.65934181213379 80.27863311767578 26.54141235351562 C 82.41617584228516 31.59512901306152 83.5 36.96437835693359 83.5 42.5 C 83.5 48.03562164306641 82.41617584228516 53.40486907958984 80.27863311767578 58.45858764648438 C 78.21369171142578 63.34066009521484 75.25723266601562 67.72553253173828 71.49137878417969 71.49137878417969 C 67.72553253173828 75.25723266601562 63.34066009521484 78.21369171142578 58.45858764648438 80.27863311767578 C 53.40486907958984 82.41617584228516 48.03562164306641 83.5 42.5 83.5 Z" stroke="none"/>
                                <path d="M 42.5 3 C 37.16621398925781 3 31.99356079101562 4.043960571289062 27.125732421875 6.102882385253906 C 22.42246627807617 8.092185974121094 18.19785308837891 10.94070434570312 14.56928253173828 14.56928253173828 C 10.94070434570312 18.19785308837891 8.092185974121094 22.42246627807617 6.102882385253906 27.125732421875 C 4.043960571289062 31.99356079101562 3 37.16621398925781 3 42.5 C 3 47.83378601074219 4.043960571289062 53.00643920898438 6.102882385253906 57.874267578125 C 8.092185974121094 62.57753372192383 10.94070434570312 66.80214691162109 14.56928253173828 70.43071746826172 C 18.19785308837891 74.05929565429688 22.42246627807617 76.90781402587891 27.125732421875 78.89711761474609 C 31.99356079101562 80.95603942871094 37.16621398925781 82 42.5 82 C 47.83378601074219 82 53.00643920898438 80.95603942871094 57.874267578125 78.89711761474609 C 62.57753372192383 76.90781402587891 66.80214691162109 74.05929565429688 70.43071746826172 70.43071746826172 C 74.05929565429688 66.80214691162109 76.90781402587891 62.57753372192383 78.89711761474609 57.874267578125 C 80.95603942871094 53.00643920898438 82 47.83378601074219 82 42.5 C 82 37.16621398925781 80.95603942871094 31.99356079101562 78.89711761474609 27.125732421875 C 76.90781402587891 22.42246627807617 74.05929565429688 18.19785308837891 70.43071746826172 14.56928253173828 C 66.80214691162109 10.94070434570312 62.57753372192383 8.092185974121094 57.874267578125 6.102882385253906 C 53.00643920898438 4.043960571289062 47.83378601074219 3 42.5 3 M 42.5 0 C 65.97210693359375 0 85 19.02789306640625 85 42.5 C 85 65.97210693359375 65.97210693359375 85 42.5 85 C 19.02789306640625 85 0 65.97210693359375 0 42.5 C 0 19.02789306640625 19.02789306640625 0 42.5 0 Z" stroke="none" fill="#1d7083"/>
                              </g>
                            </g>
                          </g>
                        </g>
                      </g>
                    </g>
                  </g>
                </g>
              </g>
            </g>
          </g>
        </g>
      </g>
    </g>
    <g id="line_15146065" transform="translate(215.496 878.246)">
      <path id="Trazado_1052542" data-name="Trazado 1052542" d="M38.07,27.1l4.635-1.953a1.783,1.783,0,0,1,1.971.387l.981.981L48.2,29.05l5.112,5.112V34a1.8,1.8,0,1,1,3.6,0v4.5a1.805,1.805,0,0,1-1.8,1.8h-4.5a1.8,1.8,0,0,1,0-3.6h.162l-5.112-5.112Z" transform="translate(-3.805 -2.495)" fill="#33b7a4"/>
      <path id="Trazado_1052543" data-name="Trazado 1052543" d="M6.8,35.316l16.354-10,6.966,2.934-.056.45,3.656,1.6,1.043-.1L39.4,32.157a1.783,1.783,0,0,0,1.971-.387L50,23.138V23.3a1.8,1.8,0,1,0,3.6,0V18.8A1.805,1.805,0,0,0,51.8,17H47.3a1.8,1.8,0,1,0,0,3.6h.162l-7.776,7.767L23.7,21.644a1.812,1.812,0,0,0-1.638.117L6.8,31.086,5,31.4v4.5Z" transform="translate(-0.5 -1.695)" fill="#3ed3c0"/>
      <path id="Trazado_1052544" data-name="Trazado 1052544" d="M30.12,28.715,23.154,31.65,6.8,21.65,5,21.965v3.6l1.8.315L22.065,35.2a1.812,1.812,0,0,0,1.638.117l11.062-4.653Z" transform="translate(-0.5 -2.16)" fill="#33b7a4"/>
      <path id="Trazado_1052545" data-name="Trazado 1052545" d="M52.843,50.323l-3.68,2.709a.857.857,0,0,1-1.359-.72V51.4H4.6a1.8,1.8,0,0,1-1.8-1.8V6.4H1.889a.857.857,0,0,1-.72-1.359L3.881,1.365a.894.894,0,0,1,1.44,0L8.03,5.045A.857.857,0,0,1,7.307,6.4H6.4V46.9a.9.9,0,0,0,.9.9H47.8v-.909a.857.857,0,0,1,1.359-.72l3.681,2.709a.894.894,0,0,1,0,1.44Z" transform="translate(-0.1 -0.096)" fill="#5b50c9"/>
      <path id="Trazado_1052546" data-name="Trazado 1052546" d="M51.3,14.4H46.8a2.7,2.7,0,0,0-1.53,4.922l-3.42,3.415-.338-.337a2.667,2.667,0,0,0-2.963-.586l-4.287,1.806L23.554,19.118a2.713,2.713,0,0,0-2.454.18l-6.7,4.089-7.2-4.4V7.2H7.21a1.778,1.778,0,0,0,1.6-.979,1.723,1.723,0,0,0-.158-1.811L5.94.735a1.847,1.847,0,0,0-2.89,0L.348,4.414A1.723,1.723,0,0,0,.186,6.225a1.78,1.78,0,0,0,1.6.979L1.8,10.8a.9.9,0,0,0,1.8,0V6.3a.9.9,0,0,0-.9-.9l-.9.075L4.5,1.8,7.207,5.4H6.3a.9.9,0,0,0-.9.9v40.5a1.8,1.8,0,0,0,1.8,1.8H47.7a.9.9,0,0,0,.9-.9l-.075-.9,3.675,2.7-3.6,2.712v-.912a.9.9,0,0,0-.9-.9H4.5a.9.9,0,0,1-.9-.9V14.4a.9.9,0,0,0-1.8,0v35.1a2.7,2.7,0,0,0,2.7,2.7H46.8v.009a1.78,1.78,0,0,0,.983,1.6,1.723,1.723,0,0,0,1.81-.158l3.68-2.709a1.794,1.794,0,0,0,0-2.89l-3.676-2.7a1.724,1.724,0,0,0-1.814-.163,1.778,1.778,0,0,0-.983,1.6l-39.6.006V34.126l7.2-4.4,6.693,4.088a2.679,2.679,0,0,0,1.4.393,2.76,2.76,0,0,0,1.058-.212l10.711-4.506,4.283,1.8a2.7,2.7,0,0,0,1.065.217,2.653,2.653,0,0,0,1.9-.8l.345-.345,3.42,3.42a2.7,2.7,0,0,0,1.53,4.922h4.5a2.7,2.7,0,0,0,2.7-2.7v-4.5a2.7,2.7,0,0,0-4.922-1.53l-3.42-3.42,3.42-3.42A2.7,2.7,0,0,0,54,21.6V17.1A2.7,2.7,0,0,0,51.3,14.4Zm-12.05,9.072a.889.889,0,0,1,.979.2l.342.342-1.593,1.591-2.4-1.007ZM7.2,25.323l2.016,1.232L7.2,27.788Zm0,6.694V29.9l3.746-2.287,1.732,1.058Zm15.661.314a.912.912,0,0,1-.824-.055L7.2,23.213v-2.12l14.984,9.163a.9.9,0,0,0,.47.132.92.92,0,0,0,.349-.07l6.618-2.79,2.321.979Zm-3.28-5.776,3.15-1.927L27.3,26.554,22.732,28.48ZM48.866,32.3a.9.9,0,0,0,1.536-.635v-.162a.9.9,0,1,1,1.8,0v4.5a.9.9,0,0,1-.9.9H46.8a.9.9,0,1,1,0-1.8h.162a.9.9,0,0,0,.636-1.536l-4.476-4.476,1.265-1.265ZM52.2,21.6a.9.9,0,1,1-1.8,0v-.162a.9.9,0,0,0-1.536-.636l-8.64,8.64a.891.891,0,0,1-.98.188L23,22.795a.909.909,0,0,0-.819.062L17.853,25.5l-1.731-1.058,5.909-3.608a.909.909,0,0,1,.821-.056l15.984,6.723a.9.9,0,0,0,.985-.193L47.6,19.545A.9.9,0,0,0,46.965,18H46.8a.9.9,0,1,1,0-1.8h4.5a.9.9,0,0,1,.9.9Z" transform="translate(0 0)"/>
    </g>
  </g>
</svg>
