<svg xmlns="http://www.w3.org/2000/svg" xmlns:xlink="http://www.w3.org/1999/xlink" width="113" height="113" viewBox="0 0 113 113">
  <defs>
    <filter id="Trazado_982547" x="0" y="0" width="113" height="113" filterUnits="userSpaceOnUse">
      <feOffset dy="3" input="SourceAlpha"/>
      <feGaussianBlur stdDeviation="3" result="blur"/>
      <feFlood flood-opacity="0.161"/>
      <feComposite operator="in" in2="blur"/>
      <feComposite in="SourceGraphic"/>
    </filter>
  </defs>
  <g id="Grupo_1209466" data-name="Grupo 1209466" transform="translate(-320 -1784.512)">
    <g id="Grupo_1207466" data-name="Grupo 1207466" transform="translate(0 1148.44)">
      <g id="Grupo_1202423" data-name="Grupo 1202423" transform="translate(0 -677.451)">
        <g id="Grupo_1202352" data-name="Grupo 1202352" transform="translate(49 443.108)">
          <g id="Grupo_1174813" data-name="Grupo 1174813" transform="translate(280 876.414)">
            <g id="Grupo_1201680" data-name="Grupo 1201680">
              <g id="Grupo_1201330" data-name="Grupo 1201330">
                <g id="Grupo_1172010" data-name="Grupo 1172010">
                  <g id="Grupo_1171046" data-name="Grupo 1171046">
                    <g id="Grupo_1148525" data-name="Grupo 1148525">
                      <g transform="matrix(1, 0, 0, 1, -9, -6)" filter="url(#Trazado_982547)">
                        <g id="Trazado_982547-2" data-name="Trazado 982547" transform="translate(9 6)" fill="#fff4e6">
                          <path d="M 47.5 93.5 C 41.28937149047852 93.5 35.26533508300781 92.28397369384766 29.59518623352051 89.88570404052734 C 24.11771965026855 87.56893157958984 19.19813346862793 84.25196075439453 14.97309303283691 80.02691650390625 C 10.74804019927979 75.80186462402344 7.431066513061523 70.88229370117188 5.114293098449707 65.40481567382812 C 2.716026782989502 59.73468017578125 1.5 53.71062850952148 1.5 47.5 C 1.5 41.28937149047852 2.716026782989502 35.26533508300781 5.114293098449707 29.59518623352051 C 7.431066513061523 24.11771965026855 10.74804019927979 19.19813346862793 14.97309303283691 14.97309303283691 C 19.19813346862793 10.74804019927979 24.11771965026855 7.431066513061523 29.59518623352051 5.114293098449707 C 35.26533508300781 2.716026782989502 41.28937149047852 1.5 47.5 1.5 C 53.71062850952148 1.5 59.73468017578125 2.716026782989502 65.40481567382812 5.114293098449707 C 70.88229370117188 7.431066513061523 75.80186462402344 10.74804019927979 80.02691650390625 14.97309303283691 C 84.25196075439453 19.19813346862793 87.56893157958984 24.11771965026855 89.88570404052734 29.59518623352051 C 92.28397369384766 35.26533508300781 93.5 41.28937149047852 93.5 47.5 C 93.5 53.71062850952148 92.28397369384766 59.73468017578125 89.88570404052734 65.40481567382812 C 87.56893157958984 70.88229370117188 84.25196075439453 75.80186462402344 80.02691650390625 80.02691650390625 C 75.80186462402344 84.25196075439453 70.88229370117188 87.56893157958984 65.40481567382812 89.88570404052734 C 59.73468017578125 92.28397369384766 53.71062850952148 93.5 47.5 93.5 Z" stroke="none"/>
                          <path d="M 47.5 3 C 41.49121475219727 3 35.66376876831055 4.176155090332031 30.17950439453125 6.495796203613281 C 24.88084411621094 8.736953735351562 20.12152099609375 11.94598388671875 16.03375244140625 16.03375244140625 C 11.94598388671875 20.12152099609375 8.736953735351562 24.88084411621094 6.495796203613281 30.17950439453125 C 4.176155090332031 35.66376876831055 3 41.49121475219727 3 47.5 C 3 53.50878524780273 4.176155090332031 59.33623123168945 6.495796203613281 64.82049560546875 C 8.736953735351562 70.11915588378906 11.94598388671875 74.87847900390625 16.03375244140625 78.96624755859375 C 20.12152099609375 83.05401611328125 24.88084411621094 86.26304626464844 30.17950439453125 88.50419616699219 C 35.66376876831055 90.82384490966797 41.49121475219727 92 47.5 92 C 53.50878524780273 92 59.33623123168945 90.82384490966797 64.82049560546875 88.50419616699219 C 70.11915588378906 86.26304626464844 74.87847900390625 83.05401611328125 78.96624755859375 78.96624755859375 C 83.05401611328125 74.87847900390625 86.26304626464844 70.11915588378906 88.50419616699219 64.82049560546875 C 90.82384490966797 59.33623123168945 92 53.50878524780273 92 47.5 C 92 41.49121475219727 90.82384490966797 35.66376876831055 88.50419616699219 30.17950439453125 C 86.26304626464844 24.88084411621094 83.05401611328125 20.12152099609375 78.96624755859375 16.03375244140625 C 74.87847900390625 11.94598388671875 70.11915588378906 8.736953735351562 64.82049560546875 6.495796203613281 C 59.33623123168945 4.176155090332031 53.50878524780273 3 47.5 3 M 47.5 0 C 73.7335205078125 0 95 21.2664794921875 95 47.5 C 95 73.7335205078125 73.7335205078125 95 47.5 95 C 21.2664794921875 95 0 73.7335205078125 0 47.5 C 0 21.2664794921875 21.2664794921875 0 47.5 0 Z" stroke="none" fill="#ff9d1c"/>
                        </g>
                      </g>
                    </g>
                  </g>
                </g>
              </g>
            </g>
          </g>
        </g>
      </g>
    </g>
    <g id="Monitoring-money-arrow-report-dollar" transform="translate(345.52 1807.032)">
      <path id="Trazado_1052348" data-name="Trazado 1052348" d="M39.708,13.626v45.4H4.932A1.938,1.938,0,0,1,3,57.1V4.932A1.938,1.938,0,0,1,4.932,3h24.15v8.694a1.938,1.938,0,0,0,1.932,1.932Z" transform="translate(-0.034 -0.034)" fill="#fee9ab"/>
      <path id="Trazado_1052349" data-name="Trazado 1052349" d="M37,14h3.864V59.4H37Z" transform="translate(-1.19 -0.408)" fill="#ffd422"/>
      <path id="Trazado_1052350" data-name="Trazado 1052350" d="M40.735,45.01c-.145-.01-.28-.01-.415-.01s-.27,0-.415.01C32.186,45.27,21,52.728,21,52.728s11.186,7.457,18.9,7.718c.145.01.28.01.415.01s.27,0,.415-.01c7.718-.261,18.9-7.718,18.9-7.718s-11.186-7.457-18.9-7.718Z" transform="translate(-0.646 -1.462)" fill="#e0e0e2"/>
      <path id="Trazado_1052351" data-name="Trazado 1052351" d="M60.252,52.728s-11.186,7.457-18.9,7.718c-.145.01-.28.01-.415.01s-.27,0-.415-.01c-.493-.019-.995-.058-1.517-.126,7.583-1.053,17.388-7.593,17.388-7.593s-9.8-6.54-17.388-7.593c.522-.068,1.024-.106,1.517-.126.145-.01.28-.01.415-.01s.27,0,.415.01c7.718.261,18.9,7.718,18.9,7.718Z" transform="translate(-1.258 -1.462)" fill="#c6c5ca"/>
      <path id="Trazado_1052352" data-name="Trazado 1052352" d="M40.626,13.626H31.932A1.938,1.938,0,0,1,30,11.694V3Z" transform="translate(-0.952 -0.034)" fill="#ff7956"/>
      <ellipse id="Elipse_13424" data-name="Elipse 13424" cx="8.5" cy="9" rx="8.5" ry="9" transform="translate(12 27.96)" fill="#ffcd00"/>
      <path id="Trazado_1052353" data-name="Trazado 1052353" d="M29.626,37.694a8.694,8.694,0,0,1-8.694,8.694A9.037,9.037,0,0,1,19,46.175a8.7,8.7,0,0,0,0-16.963A9.038,9.038,0,0,1,20.932,29a8.694,8.694,0,0,1,8.694,8.694Z" transform="translate(-0.578 -0.918)" fill="#ddb200"/>
      <path id="Trazado_1052354" data-name="Trazado 1052354" d="M20.8,9l5.8,7.728h-2.9v7.728H17.9V16.728H15Z" transform="translate(-0.442 -0.238)" fill="#ff3051"/>
      <path id="Trazado_1052355" data-name="Trazado 1052355" d="M26.8,16.728H23.9v7.728H21V9Z" transform="translate(-0.646 -0.238)" fill="#cd2a00"/>
      <path id="Trazado_1052356" data-name="Trazado 1052356" d="M48.455,52.728a7.728,7.728,0,0,1-7.314,7.718c-.143.01-.279.01-.414.01s-.27,0-.415-.01a7.728,7.728,0,0,1,0-15.437c.145-.01.28-.01.415-.01s.27,0,.415.01A7.728,7.728,0,0,1,48.455,52.728Z" transform="translate(-1.053 -1.462)" fill="#898890"/>
      <path id="Trazado_1052357" data-name="Trazado 1052357" d="M48.677,52.728a7.728,7.728,0,0,1-7.314,7.718c-.143.01-.279.01-.414.01s-.27,0-.415-.01a6.182,6.182,0,0,1-1.034-.135,7.718,7.718,0,0,0,0-15.166,6.182,6.182,0,0,1,1.034-.135c.145-.01.28-.01.415-.01s.27,0,.415.01A7.728,7.728,0,0,1,48.677,52.728Z" transform="translate(-1.275 -1.462)" fill="#57565c"/>
      <circle id="Elipse_13425" data-name="Elipse 13425" cx="3" cy="3" r="3" transform="translate(37 47.96)" fill="#ff3051"/>
      <path id="Trazado_1052358" data-name="Trazado 1052358" d="M43.847,52.9A2.9,2.9,0,0,1,39.5,55.41a2.9,2.9,0,0,0,0-5.023A2.9,2.9,0,0,1,43.847,52.9Z" transform="translate(-1.275 -1.632)" fill="#cd2a00"/>
      <path id="Trazado_1052359" data-name="Trazado 1052359" d="M40.864,49a3.864,3.864,0,1,0,3.864,3.864A3.864,3.864,0,0,0,40.864,49Zm0,5.8A1.932,1.932,0,1,1,42.8,52.864,1.932,1.932,0,0,1,40.864,54.8Z" transform="translate(-1.19 -1.598)"/>
      <path id="Trazado_1052360" data-name="Trazado 1052360" d="M59.525,50.464c-.464-.309-11.022-7.293-18.885-7.854V13.592a1,1,0,0,0-.28-.686L29.734,2.28A1,1,0,0,0,29.048,2H4.9A2.907,2.907,0,0,0,2,4.9V57.062a2.907,2.907,0,0,0,2.9,2.9H39.674c7.931,0,19.368-7.564,19.851-7.892a.956.956,0,0,0,0-1.6ZM30.014,5.294l7.332,7.332H30.98a.966.966,0,0,1-.966-.966ZM4.9,58.028a.966.966,0,0,1-.966-.966V4.9A.966.966,0,0,1,4.9,3.932H28.082V11.66a2.907,2.907,0,0,0,2.9,2.9h7.728V42.61c-7.863.56-18.422,7.544-18.885,7.854a.956.956,0,0,0,0,1.6,66.834,66.834,0,0,0,11.4,5.96ZM32.786,56.54A62.966,62.966,0,0,1,22.16,51.266a62.967,62.967,0,0,1,10.626-5.274,8.6,8.6,0,0,0,0,10.549Zm6.888,1.488a6.762,6.762,0,1,1,6.762-6.762,6.762,6.762,0,0,1-6.762,6.762Zm6.888-1.488a8.6,8.6,0,0,0,0-10.549,62.967,62.967,0,0,1,10.626,5.274A62.966,62.966,0,0,1,46.561,56.54Z"/>
      <path id="Trazado_1052361" data-name="Trazado 1052361" d="M50,2H61.592V3.932H50Z" transform="translate(-1.632 0)"/>
      <path id="Trazado_1052362" data-name="Trazado 1052362" d="M50,8H61.592V9.932H50Z" transform="translate(-1.632 -0.204)"/>
      <path id="Trazado_1052363" data-name="Trazado 1052363" d="M46,2h1.932V3.932H46Z" transform="translate(-1.496 0)"/>
      <path id="Trazado_1052364" data-name="Trazado 1052364" d="M46,8h1.932V9.932H46Z" transform="translate(-1.496 -0.204)"/>
      <path id="Trazado_1052365" data-name="Trazado 1052365" d="M50,14H61.592v1.932H50Z" transform="translate(-1.632 -0.408)"/>
      <path id="Trazado_1052366" data-name="Trazado 1052366" d="M46,14h1.932v1.932H46Z" transform="translate(-1.496 -0.408)"/>
      <path id="Trazado_1052367" data-name="Trazado 1052367" d="M50,20H61.592v1.932H50Z" transform="translate(-1.632 -0.612)"/>
      <path id="Trazado_1052368" data-name="Trazado 1052368" d="M46,20h1.932v1.932H46Z" transform="translate(-1.496 -0.612)"/>
      <path id="Trazado_1052369" data-name="Trazado 1052369" d="M50,26H61.592v1.932H50Z" transform="translate(-1.632 -0.816)"/>
      <path id="Trazado_1052370" data-name="Trazado 1052370" d="M46,26h1.932v1.932H46Z" transform="translate(-1.496 -0.816)"/>
      <path id="Trazado_1052371" data-name="Trazado 1052371" d="M50,32H61.592v1.932H50Z" transform="translate(-1.632 -1.02)"/>
      <path id="Trazado_1052372" data-name="Trazado 1052372" d="M46,32h1.932v1.932H46Z" transform="translate(-1.496 -1.02)"/>
      <path id="Trazado_1052373" data-name="Trazado 1052373" d="M50,38H61.592v1.932H50Z" transform="translate(-1.632 -1.224)"/>
      <path id="Trazado_1052374" data-name="Trazado 1052374" d="M46,38h1.932v1.932H46Z" transform="translate(-1.496 -1.224)"/>
      <path id="Trazado_1052375" data-name="Trazado 1052375" d="M27.331,16.115l-5.8-7.728a1.006,1.006,0,0,0-1.546,0l-5.8,7.728a.966.966,0,0,0,.773,1.546H16.9v6.762a.966.966,0,0,0,.966.966h5.8a.966.966,0,0,0,.966-.966V17.661h1.932a.966.966,0,0,0,.773-1.546Zm-3.671-.386a.966.966,0,0,0-.966.966v6.762H18.83V16.695a.966.966,0,0,0-.966-.966H16.9l3.864-5.149,3.864,5.149Z" transform="translate(-0.408 -0.205)"/>
      <path id="Trazado_1052376" data-name="Trazado 1052376" d="M20.66,28a9.66,9.66,0,1,0,9.66,9.66A9.66,9.66,0,0,0,20.66,28Zm0,17.388a7.728,7.728,0,1,1,7.728-7.728,7.728,7.728,0,0,1-7.728,7.728Z" transform="translate(-0.306 -0.884)"/>
      <path id="Trazado_1052377" data-name="Trazado 1052377" d="M23.8,39.728a2.908,2.908,0,0,1-1.932,2.724v1.14H19.932v-1.14A2.908,2.908,0,0,1,18,39.728h1.932a.966.966,0,1,0,.966-.966,2.9,2.9,0,0,1-.966-5.622V32h1.932v1.14A2.908,2.908,0,0,1,23.8,35.864H21.864a.966.966,0,1,0-.966.966A2.907,2.907,0,0,1,23.8,39.728Z" transform="translate(-0.544 -1.02)"/>
    </g>
  </g>
</svg>
